<svg xmlns="http://www.w3.org/2000/svg" width="31.849" height="31.849" viewBox="0 0 31.849 31.849">
  <path id="fb" d="M28.278,1.928H7.712A5.141,5.141,0,0,0,2.571,7.07V27.635a5.141,5.141,0,0,0,5.141,5.142H17.995V19.28H14.139V15.424h3.856V12.532a4.82,4.82,0,0,1,4.82-4.82h4.82v3.856h-4.82a.964.964,0,0,0-.964.964v2.892h5.3l-.964,3.856H21.851v13.5h6.427a5.141,5.141,0,0,0,5.141-5.142V7.07a5.141,5.141,0,0,0-5.141-5.142Z" transform="translate(-2.071 -1.428)" fill="#fff" stroke="#fff" stroke-width="1"/>
</svg>
