<svg xmlns="http://www.w3.org/2000/svg" xmlns:xlink="http://www.w3.org/1999/xlink" width="586.984" height="585.132" viewBox="0 0 586.984 585.132">
  <defs>
    <linearGradient id="linear-gradient" x1="-4.937" y1="-3.423" x2="-4.554" y2="-1.188" gradientUnits="objectBoundingBox">
      <stop offset="0" stop-color="#e38ddd"/>
      <stop offset="1" stop-color="#9571f6"/>
    </linearGradient>
    <clipPath id="clip-path">
      <path id="Path_727" data-name="Path 727" d="M2032,1750.06c2.524,23.784,4.113,48.09,6.527,72.055,13.086,3.891,28.563,8.152,34.966-7.59,8.9-21.886,50.252-22.306,69-18.818,23.2,4.318,74.217,8.993,70.525-25.513-3.074-28.724-16.357-45.207,17.3-55.832s50.58-31.406,42.5-62.686c-8.506-32.922,29.234-67.117,4.477-92.227-43.139-43.753-99.125,34.905-105.837,83.029s-30.48,32.382-62.955,35.267c-44.343,3.938-17.006,49.884-36.238,65.182C2057.165,1754.92,2048.267,1750.261,2032,1750.06Z" transform="translate(-2032 -1546.656)" fill="none"/>
    </clipPath>
    <clipPath id="clip-path-2">
      <path id="Path_736" data-name="Path 736" d="M2437.242,1238.471q-26.252-3.861-52.437-8.927c-.284.256-6.019-37.786,12.052-57.735,35.732-38.654,11.662-73.336,4.8-93.89-10.988-28.99-5.355-64.21,26.574-57.61,31.1,5.681,35.817-58.343,30.45-107.667-4.582-24.008,18.069-53.135,40.667-59.793,23.075-7.374,46.1,7.721,53.161,55.565,10.682,55.406-29.752,88.815-44.724,116.593-14.733,27.269,19.528,49.324-8.053,73.493-23.2,21.467-52.444,36.9-41.748,63.867C2468.976,1189.037,2466.344,1210.834,2437.242,1238.471Z" transform="translate(-2383.72 -851.077)" fill="none"/>
    </clipPath>
    <linearGradient id="linear-gradient-2" x1="-2.802" y1="-1.165" x2="-3.539" y2="-0.243" gradientUnits="objectBoundingBox">
      <stop offset="0" stop-color="#ff9085"/>
      <stop offset="1" stop-color="#fb6fbb"/>
    </linearGradient>
    <linearGradient id="linear-gradient-3" x1="0.148" y1="1.185" x2="0.902" y2="-0.284" gradientUnits="objectBoundingBox">
      <stop offset="0" stop-color="#444b8c"/>
      <stop offset="1" stop-color="#26264f"/>
    </linearGradient>
    <linearGradient id="linear-gradient-4" x1="-0.345" y1="2.146" x2="0.409" y2="0.677" gradientUnits="objectBoundingBox">
      <stop offset="0" stop-color="#aa80f9"/>
      <stop offset="1" stop-color="#6165d7"/>
    </linearGradient>
    <linearGradient id="linear-gradient-5" x1="0.782" y1="0.182" x2="-0.614" y2="1.755" xlink:href="#linear-gradient-4"/>
    <linearGradient id="linear-gradient-6" x1="0" y1="0.5" x2="1" y2="0.5" xlink:href="#linear-gradient-4"/>
    <clipPath id="clip-path-3">
      <path id="Path_746" data-name="Path 746" d="M673.656,426.7c-211.73,0-235.689,180.864-235.689,180.864H377.24V624L496.624,788.175,642.489,597.59H585.03l81.3-95.3s93.433,16.7,125.683,27.527c41.674,15.363,74.451,50.232,74.451,50.232S833.918,426.7,673.656,426.7Z" transform="translate(-377.24 -426.7)" fill="none"/>
    </clipPath>
    <linearGradient id="linear-gradient-7" x1="0.284" y1="1.037" x2="0.764" y2="0.039" gradientUnits="objectBoundingBox">
      <stop offset="0" stop-color="#fcb148"/>
      <stop offset="0.05" stop-color="#fdba46"/>
      <stop offset="0.14" stop-color="#ffc244"/>
      <stop offset="0.32" stop-color="#ffc444"/>
      <stop offset="0.48" stop-color="#fdb946"/>
      <stop offset="0.78" stop-color="#f99c4d"/>
      <stop offset="0.87" stop-color="#f8924f"/>
      <stop offset="1" stop-color="#f8924f"/>
    </linearGradient>
    <linearGradient id="linear-gradient-8" x1="0.401" y1="0.958" x2="0.726" y2="0.09" xlink:href="#linear-gradient-7"/>
    <linearGradient id="linear-gradient-9" x1="-0.085" y1="0.5" x2="1.065" y2="0.5" xlink:href="#linear-gradient-7"/>
    <linearGradient id="linear-gradient-10" x1="0.495" y1="0.179" x2="0.556" y2="4.091" gradientUnits="objectBoundingBox">
      <stop offset="0" stop-color="#ffdb44"/>
      <stop offset="1" stop-color="#feef06"/>
    </linearGradient>
    <linearGradient id="linear-gradient-11" x1="0.492" y1="-0.777" x2="0.511" y2="1.295" xlink:href="#linear-gradient-10"/>
    <linearGradient id="linear-gradient-12" x1="0.072" y1="-41.299" x2="0.091" y2="-38.867" gradientUnits="objectBoundingBox">
      <stop offset="0" stop-color="#f36f56"/>
      <stop offset="0.31" stop-color="#f99c4c"/>
      <stop offset="0.55" stop-color="#fdb946"/>
      <stop offset="0.68" stop-color="#ffc444"/>
      <stop offset="0.8" stop-color="#ffc244"/>
      <stop offset="0.87" stop-color="#feba46"/>
      <stop offset="0.92" stop-color="#fcad49"/>
      <stop offset="0.96" stop-color="#f99a4d"/>
      <stop offset="1" stop-color="#f68252"/>
      <stop offset="1" stop-color="#f57e53"/>
    </linearGradient>
    <linearGradient id="linear-gradient-13" x1="-0.085" y1="0.5" x2="1.065" y2="0.5" xlink:href="#linear-gradient-7"/>
    <linearGradient id="linear-gradient-14" x1="0.495" y1="0.179" x2="0.556" y2="4.091" xlink:href="#linear-gradient-10"/>
    <linearGradient id="linear-gradient-15" x1="0.492" y1="-0.777" x2="0.511" y2="1.295" xlink:href="#linear-gradient-10"/>
    <linearGradient id="linear-gradient-16" x1="0.354" y1="-37.653" x2="0.373" y2="-35.221" xlink:href="#linear-gradient-12"/>
    <linearGradient id="linear-gradient-17" x1="-0.085" y1="0.5" x2="1.065" y2="0.5" xlink:href="#linear-gradient-7"/>
    <linearGradient id="linear-gradient-18" x1="0.495" y1="0.179" x2="0.556" y2="4.091" xlink:href="#linear-gradient-10"/>
    <linearGradient id="linear-gradient-19" x1="0.492" y1="-0.777" x2="0.511" y2="1.296" xlink:href="#linear-gradient-10"/>
    <linearGradient id="linear-gradient-20" x1="0.111" y1="-34.018" x2="0.13" y2="-31.586" xlink:href="#linear-gradient-12"/>
    <linearGradient id="linear-gradient-24" x1="-0.037" y1="-30.371" x2="-0.018" y2="-27.94" xlink:href="#linear-gradient-12"/>
    <linearGradient id="linear-gradient-25" x1="-0.085" y1="0.5" x2="1.065" y2="0.5" xlink:href="#linear-gradient-7"/>
    <linearGradient id="linear-gradient-28" x1="0.072" y1="-26.438" x2="0.091" y2="-24.006" xlink:href="#linear-gradient-12"/>
    <linearGradient id="linear-gradient-30" x1="0.495" y1="0.179" x2="0.556" y2="4.091" xlink:href="#linear-gradient-10"/>
    <linearGradient id="linear-gradient-32" x1="0.354" y1="-22.783" x2="0.373" y2="-20.352" xlink:href="#linear-gradient-12"/>
    <linearGradient id="linear-gradient-36" x1="0.111" y1="-19.156" x2="0.13" y2="-16.725" xlink:href="#linear-gradient-12"/>
    <linearGradient id="linear-gradient-39" x1="0.492" y1="-0.777" x2="0.511" y2="1.296" xlink:href="#linear-gradient-10"/>
    <linearGradient id="linear-gradient-40" x1="0.237" y1="-15.51" x2="0.256" y2="-13.079" xlink:href="#linear-gradient-12"/>
    <linearGradient id="linear-gradient-41" x1="0.644" y1="-0.34" x2="2.348" y2="-0.34" xlink:href="#linear-gradient-7"/>
    <linearGradient id="linear-gradient-42" x1="1.569" y1="-0.522" x2="1.672" y2="0.098" xlink:href="#linear-gradient-10"/>
    <linearGradient id="linear-gradient-43" x1="1.566" y1="-0.549" x2="1.597" y2="-0.358" xlink:href="#linear-gradient-10"/>
    <linearGradient id="linear-gradient-44" x1="-4.316" y1="-1.025" x2="-4.284" y2="-0.832" xlink:href="#linear-gradient-12"/>
    <linearGradient id="linear-gradient-45" x1="-104.128" y1="0.268" x2="-103.866" y2="1.66" gradientUnits="objectBoundingBox">
      <stop offset="0" stop-color="#ffc444"/>
      <stop offset="1" stop-color="#f36f56"/>
    </linearGradient>
    <linearGradient id="linear-gradient-46" x1="22.559" y1="-31.838" x2="22.774" y2="-30.034" xlink:href="#linear-gradient-45"/>
    <linearGradient id="linear-gradient-47" x1="4.793" y1="-2.054" x2="5.183" y2="-0.539" xlink:href="#linear-gradient-2"/>
    <linearGradient id="linear-gradient-48" x1="30.213" y1="12.174" x2="30.213" y2="2.634" xlink:href="#linear-gradient-45"/>
    <linearGradient id="linear-gradient-49" x1="2.65" y1="-0.055" x2="2.479" y2="0.909" gradientUnits="objectBoundingBox">
      <stop offset="0" stop-color="#311944"/>
      <stop offset="1" stop-color="#893976"/>
    </linearGradient>
    <linearGradient id="linear-gradient-51" x1="8.007" y1="-0.86" x2="7.019" y2="-4.831" xlink:href="#linear-gradient-2"/>
    <linearGradient id="linear-gradient-52" x1="58.361" y1="-117.9" x2="58.361" y2="-128.005" xlink:href="#linear-gradient-45"/>
    <linearGradient id="linear-gradient-53" x1="66.806" y1="-58.907" x2="64.769" y2="-61.688" xlink:href="#linear-gradient-2"/>
    <linearGradient id="linear-gradient-54" x1="-24.284" y1="0.532" x2="-26.696" y2="0.475" xlink:href="#linear-gradient-49"/>
    <linearGradient id="linear-gradient-55" x1="-9.98" y1="-0.387" x2="-9.745" y2="0.92" xlink:href="#linear-gradient-2"/>
    <linearGradient id="linear-gradient-56" x1="-5.616" y1="-2.164" x2="-5.153" y2="-0.398" xlink:href="#linear-gradient-2"/>
    <linearGradient id="linear-gradient-57" x1="5.145" y1="-0.496" x2="4.493" y2="0.364" xlink:href="#linear-gradient-45"/>
    <linearGradient id="linear-gradient-58" x1="-17.321" y1="0.252" x2="-16.973" y2="1.822" xlink:href="#linear-gradient-2"/>
    <linearGradient id="linear-gradient-59" x1="0.288" y1="0.827" x2="0.822" y2="-0.255" xlink:href="#linear-gradient-3"/>
  </defs>
  <g id="percent" transform="translate(34.3 24.9)">
    <g id="Illustration" transform="translate(-34.3 -24.9)">
      <path id="Path_720" data-name="Path 720" d="M962.54,568.273c-70.11-95.958-190.136-101.953-197.547-102.3-94.664-4.391-162.241,43.888-186.607,61.854-17.688,13.046-42.237,31.471-65.152,63.861-10.467,14.789-46.862,69.613-47.442,143.393-.9,114.7,85.431,189.347,101.1,202.353,84.783,70.352,233.062,105.382,344.284,25.133C1041.81,868.323,1040.479,674.958,962.54,568.273Z" transform="translate(-447.959 -457.844)" fill="#f4f7fa"/>
      <path id="Path_721" data-name="Path 721" d="M2089.862,1818.661c-3.285-1.15-9.416-6.547-10.432-8.613-6.777-13.746-21.139-38.654-16.857-54.288.731-2.668,13.34-2.617,15.556-4.747,8.053-1.923,10.954-2.092,17.7-7.676,19.931-16.49-8.1-61.288,36.427-65.54,32.614-3.115,56.231,12.884,62.978-35.3s62.7-126.774,105.847-83.045c24.763,25.095-12.991,59.307-4.477,92.228,8.089,31.283-8.836,52.052-42.5,62.685s-20.36,27.088-17.314,55.837c3.67,34.535-47.25,29.753-70.569,25.542C2147.455,1792.34,2097.348,1796.379,2089.862,1818.661Z" transform="translate(-1722.654 -1321.187)" fill="url(#linear-gradient)"/>
      <g id="Group_29" data-name="Group 29" transform="translate(333.139 225.471)" clip-path="url(#clip-path)">
        <path id="Path_722" data-name="Path 722" d="M2107.511,1766.646l-.171-.691c55.553-13.891,105.35-44.444,144.007-88.33,36.781-41.754,62.99-94.706,75.792-153.125l.7.153c-12.828,58.536-39.093,111.6-75.955,153.443C2213.128,1722.1,2163.207,1752.71,2107.511,1766.646Z" transform="translate(-2092.172 -1528.96)" fill="#fcfdfe"/>
        <path id="Path_723" data-name="Path 723" d="M2518.481,2629.961c-26.977-15.633-75.393-26.138-107.931-23.414l-.06-.711c32.67-2.736,81.272,7.813,108.349,23.509Z" transform="translate(-2334.292 -2392.255)" fill="#fcfdfe"/>
        <path id="Path_724" data-name="Path 724" d="M2214.248,2282.633l-.358-.616c14.682-8.524,24.493-24.143,29.155-46.423,3.423-16.333,4.043-35.8,1.854-57.864l.711-.07c2.194,22.146,1.566,41.674-1.869,58.081C2239.035,2258.227,2229.112,2274,2214.248,2282.633Z" transform="translate(-2177.271 -2050.625)" fill="#fcfdfe"/>
        <path id="Path_725" data-name="Path 725" d="M2848.618,2194.96l-.389-.6c26.838-17.483,60.509-16.561,84.034-12.709l-.117.7C2908.753,2178.524,2875.267,2177.6,2848.618,2194.96Z" transform="translate(-2683.905 -2051.969)" fill="#fcfdfe"/>
        <path id="Path_726" data-name="Path 726" d="M2998.054,1602.259l-.684-.2c4.29-14.888,8.339-46.1-12.77-87.978l.636-.32a155.906,155.906,0,0,1,14.588,43.268C3002.6,1573.339,3002,1588.553,2998.054,1602.259Z" transform="translate(-2792.821 -1520.383)" fill="#fcfdfe"/>
      </g>
      <g id="Group_30" data-name="Group 30" transform="translate(403.948 85.436)" clip-path="url(#clip-path-2)">
        <path id="Path_728" data-name="Path 728" d="M2437.242,1238.5q-26.252-3.862-52.437-8.927c-.284.256-6.019-37.786,12.052-57.735,35.732-38.654,11.662-73.335,4.8-93.891-10.872-28.96-5.156-60.322,24.32-60.785,32.695-1.156,38.621-55.269,32.7-104.486-4.582-24.008,18.069-53.135,40.667-59.793,23.076-7.374,46.1,7.721,53.161,55.565,10.682,55.406-29.751,88.815-44.723,116.593-14.733,27.269,19.528,49.324-8.053,73.493-23.2,21.467-52.444,36.9-41.748,63.867C2468.976,1189.061,2466.344,1210.858,2437.242,1238.5Z" transform="translate(-2383.72 -851.101)" fill="url(#linear-gradient-2)"/>
        <path id="Path_729" data-name="Path 729" d="M2530.5,1194.041l-.711-.012c0-.338,16.722-80.376,45.557-158.261,3.982-12.613,8.309-25.332,12.494-37.635,11.2-32.938,22.79-67,28.29-100.913,6.15-37.909,3.958-72.051-6.7-104.377l.677-.224c10.694,32.439,12.895,66.69,6.728,104.714-5.512,33.973-17.112,68.063-28.32,101.029-4.184,12.3-8.51,25.016-12.494,37.647C2546.96,1114.493,2530.545,1193.574,2530.5,1194.041Z" transform="translate(-2500.383 -804.389)" fill="#fcfdfe"/>
        <path id="Path_730" data-name="Path 730" d="M2919.979,1168.938l-.53-.477c19.508-21.676,43.049-52.48,55.7-69.031,10.183-13.326,10.233-13.3,10.656-13.241l-.054.352.145.318c-.516.354-4.781,5.937-10.181,13C2963.059,1116.419,2939.508,1147.239,2919.979,1168.938Z" transform="translate(-2811.596 -1038.849)" fill="#fcfdfe"/>
        <path id="Path_731" data-name="Path 731" d="M2793.1,1087.206c-4.027-24.843-14.268-41.184-22.146-50.52-8.691-10.308-16.709-14.8-17.515-14.9a.278.278,0,0,0,.169-.05l-.4-.592c.179-.121.389-.093.864.115,2.16.938,10.233,5.989,18.7,16.508,10.67,13.257,17.936,30.311,21.024,49.324Z" transform="translate(-2678.824 -986.85)" fill="#fcfdfe"/>
        <path id="Path_732" data-name="Path 732" d="M2498.707,1796.9l-.707-.084c2.752-23.116-2.633-47.977-16.009-73.9a215.114,215.114,0,0,0-26.442-39.365c-.765-.912-1.034-1.236-1.119-1.383l.616-.358c.062.107.5.626,1.051,1.285a215.726,215.726,0,0,1,26.526,39.5C2496.065,1748.639,2501.477,1773.651,2498.707,1796.9Z" transform="translate(-2440.194 -1514.565)" fill="#fcfdfe"/>
        <path id="Path_733" data-name="Path 733" d="M2711.144,1987.721l-.6-.375c20.988-33.906,65.228-36.254,65.6-36.141l.264.332-.244.35-.113-.332-.03.348h0C2775.315,1951.9,2731.793,1954.36,2711.144,1987.721Zm64.792-36.508.115.336Z" transform="translate(-2644.744 -1729.723)" fill="#fcfdfe"/>
        <path id="Path_734" data-name="Path 734" d="M2451.845,2509.715l-.713-.026c.369-10.066-3.221-27.219-22.467-51.792-1.043-1.333-1.043-1.333-1.007-1.532l.7.1-.352-.05.326-.135c.054.1.445.6.9,1.178C2448.6,2482.194,2452.218,2499.532,2451.845,2509.715Z" transform="translate(-2418.804 -2133.118)" fill="#fcfdfe"/>
        <path id="Path_735" data-name="Path 735" d="M2567.194,2478.052l-.684-.2c2.214-7.65,10.95-22.655,44.492-37.1.465-.2.761-.326.867-.382l.326.634c-.113.058-.425.2-.912.4C2578.009,2455.737,2569.379,2470.518,2567.194,2478.052Z" transform="translate(-2529.71 -2120.411)" fill="#fcfdfe"/>
      </g>
      <path id="Path_737" data-name="Path 737" d="M1262.821,1074.4c0,117.7-95.382,217.482-217.073,223.044-126.386,5.778-232.478-91.561-232.478-217.619s106.093-225.959,232.472-223.232C1167.439,859.219,1262.821,956.689,1262.821,1074.4Z" transform="translate(-725.488 -770.003)" fill="url(#linear-gradient-3)"/>
      <path id="Path_738" data-name="Path 738" d="M1333.011,1074.4c0,117.7-95.382,217.482-217.073,223.044-126.386,5.778-232.478-91.561-232.478-217.619s106.1-225.96,232.478-223.232C1237.629,859.219,1333.011,956.689,1333.011,1074.4Z" transform="translate(-781.547 -770.003)" fill="url(#linear-gradient-4)"/>
      <path id="Path_739" data-name="Path 739" d="M1372.867,1126.8c0,110.906-89.971,204.744-204.533,209.751-118.713,5.188-218.154-86.367-218.154-204.65s99.441-212.237,218.154-209.914C1282.9,924.225,1372.867,1015.891,1372.867,1126.8Z" transform="translate(-834.835 -822.238)" fill="url(#linear-gradient-5)"/>
      <path id="Path_740" data-name="Path 740" d="M1431.06,1497.866q13.82-17.934,13.823-53.654,0-34.162-14.054-52.569t-40.3-18.4q-53.578,0-53.578,70.972,0,34.788,13.976,53.189t39.6,18.4Q1417.235,1515.8,1431.06,1497.866Zm-40.222-14.209q-7.767,0-11.258-9.706t-3.495-29.429q0-19.719,3.495-29.274t11.258-9.551q14.91,0,14.91,38.825Q1405.748,1483.657,1390.838,1483.657Z" transform="translate(-1143.74 -1182.681)" fill="#fff"/>
      <path id="Path_741" data-name="Path 741" d="M2220.729,1842.133q-14.057-18.4-40.3-18.4-53.58,0-53.58,70.972,0,34.627,13.978,53.034t39.6,18.4q26.707,0,40.532-17.938t13.825-53.5Q2234.789,1860.54,2220.729,1842.133Zm-39.989,92.014q-7.767,0-11.26-9.706t-3.493-29.429q0-19.729,3.493-29.272t11.26-9.551q14.908,0,14.9,38.823Q2195.648,1934.149,2180.74,1934.147Z" transform="translate(-1774.615 -1542.477)" fill="#fff"/>
      <path id="Path_742" data-name="Path 742" d="M1765.812,1391.27a5,5,0,0,0-4.256-2.5h-23.027a10.012,10.012,0,0,0-8.7,5.19L1610.8,1608.581a5.017,5.017,0,0,0,4.318,7.439h25.97a4.971,4.971,0,0,0,4.318-2.579l120.471-217.216A5.033,5.033,0,0,0,1765.812,1391.27Z" transform="translate(-1361.956 -1195.084)" fill="#fff"/>
      <g id="Group_31" data-name="Group 31" transform="translate(101.913 96.369)" opacity="0.3">
        <path id="Path_743" data-name="Path 743" d="M1017.985,1021.4c-7.473-24.36-7.131-61.357,29.314-116.018-94.017,27.082-163.84,112.338-163.84,214.323,0,126.058,106.1,223.4,232.478,217.629a228.981,228.981,0,0,0,124.133-43.284c-1.079-33.621-8.393-70.418-28.962-104.361C1154.548,1096.358,1041.435,1097.823,1017.985,1021.4Z" transform="translate(-883.46 -905.38)" opacity="0.3" fill="url(#linear-gradient-6)"/>
      </g>
      <g id="Group_32" data-name="Group 32" transform="translate(0 0)" clip-path="url(#clip-path-3)">
        <path id="Path_744" data-name="Path 744" d="M889.387,631.864v.688c-6.317-8.216-17.634-19.627-24.412-26.234-.125-.292-.338-.584-.463-.876a151.639,151.639,0,0,0-40.367-54.367c-1.172-1.1-2.529-2.07-3.783-3.11-.642-.507-1.289-1.031-1.939-1.538l-.95-.773c-.334-.258-.678-.489-1.007-.739q-2.013-1.456-4.045-2.939l-1.007-.739-1.065-.687q-1.057-.7-2.112-1.385c-2.78-1.915-5.776-3.573-8.7-5.327-1.49-.85-3.052-1.633-4.568-2.44-.749-.4-1.516-.815-2.283-1.208s-1.578-.747-2.355-1.117A152.569,152.569,0,0,0,750.121,516.3l-5.271-.825c-1.76-.232-3.545-.378-5.3-.576l-2.653-.284-2.661-.137-2.663-.155c-.884-.042-1.76-.129-2.654-.111-1.768-.01-3.537-.026-5.315-.034-.433,0-.9-.026-1.309,0l-1.182.058-2.363.121-2.347.113a5.958,5.958,0,0,0-.622.024l-2.416.173-3.221.213-2.416.173-.4.026h-.145s-.838,0,.57.026l-5.208.731c-.858.127-1.723.2-2.581.386l-2.545.479-2.555.481-1.272.24c-.425.079-.84.2-1.254.292-1.669.4-3.34.805-5,1.208-.84.173-1.653.447-2.464.678l-2.436.731-2.444.709-2.382.833c-1.588.568-3.177,1.065-4.721,1.667s-3.076,1.238-4.6,1.864a133.427,133.427,0,0,0-32.334,19.369l-1.749,1.391-1.661,1.486c-1.1.98-2.239,1.917-3.286,2.923-.044.034-.081.085-.127.119-2.039,2.013-4.1,3.9-5.937,5.981-.487.507-.966,1.023-1.435,1.538l-.723.757-.666.805c-.894,1.049-1.778,2.1-2.664,3.145-.215.258-.451.507-.668.773l-.6.805c-.415.542-.821,1.083-1.226,1.61-.805,1.083-1.661,2.08-2.374,3.2a117.033,117.033,0,0,0-13.744,25.383A111.43,111.43,0,0,0,593,617.328c-.117.85-.236,1.683-.352,2.508s-.27,1.611-.306,2.416q-.2,2.4-.4,4.572c-.091,1.478-.091,2.9-.153,4.228-.028.67-.073,1.323-.083,1.951.028.644.046,1.27.054,1.872.018,1.208.036,2.355.054,3.422a4.17,4.17,0,0,0,.065.662c.026.2.052.4.08.584.036.376.091.326.127.67.026.292.063.429.091.429h59.408l-36.1,38.108-83.917,87.394L411.54,640.639h63.106a8.133,8.133,0,0,0,.29-1.838c.244-1.745.505-3.447.793-5.518.163-1.031.308-1.993.479-3.1.091-.542.171-1.057.262-1.625s.163-1.16.28-1.649c.441-2.08.9-4.272,1.389-6.609.262-1.16.515-2.345.785-3.565s.632-2.458.974-3.729c.687-2.535,1.355-5.2,2.184-7.94q1.327-4.087,2.752-8.49c.461-1.478,1.065-2.929,1.625-4.429s1.156-3,1.752-4.546a213.1,213.1,0,0,1,20.535-38.986,216.544,216.544,0,0,1,33.715-39.165c1.633-1.59,3.439-3.042,5.18-4.562.884-.749,1.759-1.5,2.643-2.261l1.345-1.133L553,500.41c1.85-1.435,3.718-2.887,5.579-4.341l1.409-1.081,1.462-1.031c.984-.7,1.959-1.385,2.943-2.072,3.853-2.818,7.995-5.345,12.109-7.956,2.076-1.272,4.228-2.458,6.362-3.686,1.057-.6,2.13-1.208,3.205-1.822l3.3-1.7a220.541,220.541,0,0,1,57.1-20.275c2.518-.473,5.055-.954,7.582-1.425s5.1-.757,7.65-1.127l3.825-.515,3.853-.36,3.845-.352c1.281-.111,2.553-.25,3.843-.292,2.563-.113,5.136-.4,7.709-.515.63-.026,1.28-.258,1.921-.258h1.933l3.825.2,3.825.121c1.28,0,2.563.163,3.825.223l7.626.439c1.731.024.6.042,1.037.05l.2.026.4.042.793.1,1.61.189,3.2.376,1.611.189.793.095.984.129,4.043.568,4.043.584,2.013.3c.66.1,1.246.24,1.878.36,2.462.5,4.926,1.007,7.391,1.494,1.228.234,2.436.568,3.646.87l3.638.918,3.61.92,3.563,1.073c2.366.731,4.739,1.419,7.056,2.215q3.482,1.238,6.924,2.476a200.931,200.931,0,0,1,49.237,26.86c.9.66,1.8,1.331,2.69,1.993s1.731,1.383,2.589,2.088c1.715,1.393,3.439,2.732,5.089,4.159,3.259,2.913,6.507,5.705,9.476,8.729.759.739,1.5,1.488,2.257,2.215l1.109,1.1,1.065,1.143q2.126,2.291,4.2,4.554l1.037,1.133.993,1.17c.64.781,1.3,1.554,1.941,2.327,1.281,1.556,2.617,3.034,3.781,4.63a188.264,188.264,0,0,1,16.669,25.34c2.237,4.081,4.228,8.146,5.991,12.158a172.817,172.817,0,0,1,11.135,34.3c.246,1.3.507,2.585.751,3.849s.513,2.482.666,3.712c.342,2.448.687,4.793,1.007,7.046.27,2.269.415,4.451.614,6.521.081,1.031.189,2.037.252,3.034s.254,1.943.3,2.887C889.071,628.411,889.387,630.209,889.387,631.864Z" transform="translate(-404.635 -446.587)" fill="url(#linear-gradient-7)"/>
        <path id="Path_745" data-name="Path 745" d="M1752.615,819.249v.688c-6.317-8.216-17.634-19.627-24.412-26.234-.125-.292-.338-.584-.463-.876a151.641,151.641,0,0,0-40.367-54.367c-1.172-1.1-2.529-2.07-3.783-3.11-.642-.507-1.289-1.031-1.939-1.538l-.95-.773c-.334-.258-.678-.489-1.007-.739q-2.013-1.456-4.044-2.939l-1.007-.739-1.065-.687q-1.057-.7-2.112-1.385c-2.781-1.915-5.776-3.574-8.7-5.327-1.49-.85-3.052-1.633-4.568-2.44-.749-.4-1.516-.815-2.283-1.208s-1.579-.747-2.356-1.117a152.566,152.566,0,0,0-40.212-12.768l-5.271-.825c-1.76-.232-3.545-.378-5.3-.576l-2.653-.284-2.662-.137-2.663-.155c-.884-.042-1.76-.129-2.654-.111-1.768-.01-3.537-.026-5.315-.034-.433,0-.9-.026-1.309,0l-1.182.058-2.364.121-2.347.113a5.989,5.989,0,0,0-.622.024l-2.416.173-3.221.213-2.416.173-.4.026h-.145s-.837,0,.57.026l-5.208.731c-.858.127-1.723.2-2.581.387l-2.545.479-2.555.481-1.272.24c-.425.079-.84.2-1.254.292-1.669.4-3.34.805-5,1.208-.839.173-1.653.447-2.464.678l-2.436.731-2.444.709-2.382.833c-1.588.568-3.177,1.065-4.721,1.667s-3.076,1.238-4.6,1.864a133.426,133.426,0,0,0-32.334,19.369l-1.75,1.391-1.661,1.486c-1.1.98-2.239,1.917-3.286,2.923-.044.034-.08.085-.127.119,26.667-31.44,69.859-51.865,118.619-51.865,49.95,0,94.07,21.439,120.55,54.186,2.237,4.081,4.228,8.146,5.991,12.158a172.814,172.814,0,0,1,11.135,34.3c.246,1.3.507,2.585.751,3.849s.513,2.482.667,3.712c.342,2.448.687,4.793,1.006,7.046.27,2.269.415,4.451.614,6.521.081,1.031.189,2.037.252,3.034s.254,1.943.3,2.887C1752.3,815.8,1752.615,817.595,1752.615,819.249Z" transform="translate(-1267.862 -633.973)" opacity="0.4" fill="url(#linear-gradient-8)"/>
      </g>
      <path id="Path_747" data-name="Path 747" d="M592.65,3141.08v18.346c0,5.929,37.043,10.735,82.719,10.735s82.719-4.806,82.719-10.735V3141.08Z" transform="translate(-549.283 -2594.616)" fill="url(#linear-gradient-9)"/>
      <path id="Path_748" data-name="Path 748" d="M758.088,3098.494c0,5.929-37.043,10.734-82.719,10.734s-82.719-4.805-82.719-10.734,37.043-10.734,82.719-10.734S758.088,3092.565,758.088,3098.494Z" transform="translate(-549.283 -2552.031)" fill="url(#linear-gradient-10)"/>
      <path id="Path_749" data-name="Path 749" d="M675.177,3148.7c-40.466,0-82.767-3.865-82.767-11.318,0-.4.147-1.129.556-1.129s.234.564.234.972c0,4.727,33.667,9.994,81.978,9.994s81.978-5.267,81.978-9.994c0-.4.07-.793.479-.793s.31.545.31.956C757.945,3144.838,715.637,3148.7,675.177,3148.7Z" transform="translate(-549.092 -2590.758)" fill="url(#linear-gradient-11)"/>
      <path id="Path_750" data-name="Path 750" d="M788.969,3125.539c.805-.562,1.675-1.115,2.6-1.663a16.371,16.371,0,0,1,3.553-1.482,34.129,34.129,0,0,1,5.454-1.079,69.111,69.111,0,0,1,8.168-.441q4.8-.022,9,.306a61.219,61.219,0,0,1,7.4.98,22.964,22.964,0,0,1,5.2,1.611,4.033,4.033,0,0,1,2.376,2.2l9.315.092a9.264,9.264,0,0,1,1.784.165c.521.107.773.241.773.4v.767l-11.973-.115q-.63,1.41-3.221,2.577a33.557,33.557,0,0,1-6.551,2.029l-4.361-.6a5.025,5.025,0,0,1-.964-.227c-.252-.091-.372-.192-.372-.3q0-.22,1.007-.5c.67-.189,1.435-.425,2.283-.7a23.153,23.153,0,0,0,2.5-.986,3.433,3.433,0,0,0,1.641-1.363l-28.264-.28a26.434,26.434,0,0,1-2.494,1.611,16.249,16.249,0,0,1-3.668,1.423,38.25,38.25,0,0,1-5.687,1.029,80.521,80.521,0,0,1-8.574.419c-2.591.012-5.112-.085-7.582-.294a51.863,51.863,0,0,1-6.581-.938,20.59,20.59,0,0,1-4.721-1.544c-1.224-.616-1.913-1.321-2.054-2.118l-7.668-.078a10.019,10.019,0,0,1-1.812-.159c-.529-.1-.805-.238-.805-.4v-.767l10.485.1a5.618,5.618,0,0,1,2.865-2.112,32.827,32.827,0,0,1,5.321-1.6l3.511.481c1.067.151,1.6.326,1.6.528,0,.109-.215.244-.656.4s-.968.352-1.574.576a14.851,14.851,0,0,0-1.745.787,3.736,3.736,0,0,0-1.276,1.022Zm-25.866,1.045a2.741,2.741,0,0,0,1.393,1.3,11.17,11.17,0,0,0,2.664.9,27.288,27.288,0,0,0,3.59.515q2,.167,4.185.155a43.767,43.767,0,0,0,4.443-.219,25.783,25.783,0,0,0,3.324-.564,15.475,15.475,0,0,0,2.5-.825,13.8,13.8,0,0,0,1.909-1.019Zm61.526-.687a2.839,2.839,0,0,0-1.522-1.339,13.662,13.662,0,0,0-3.062-.966,33.762,33.762,0,0,0-4.344-.584q-2.47-.191-5.458-.177a42.22,42.22,0,0,0-4.574.238,23.617,23.617,0,0,0-3.324.6,12.075,12.075,0,0,0-2.388.882,16.926,16.926,0,0,0-1.83,1.079Z" transform="translate(-670.698 -2578.477)" fill="#fcb048"/>
      <path id="Path_751" data-name="Path 751" d="M680.549,3093.53c-36.884,0-75.294,3.245-81.429,9.529a7.414,7.414,0,0,1,.67.707c5.178-4.363,36.888-8.754,80.758-8.754,45,0,77.215,4.631,81.117,9.09a7.5,7.5,0,0,1,.618-.7C757.21,3096.9,718.087,3093.53,680.549,3093.53Z" transform="translate(-554.451 -2556.639)" fill="url(#linear-gradient-12)"/>
      <path id="Path_752" data-name="Path 752" d="M478.43,3045.35V3063.7c0,5.929,37.043,10.735,82.719,10.735s82.719-4.806,82.719-10.735V3045.35Z" transform="translate(-458.058 -2518.159)" fill="url(#linear-gradient-13)"/>
      <path id="Path_753" data-name="Path 753" d="M643.868,3002.764c0,5.929-37.043,10.734-82.719,10.734s-82.719-4.805-82.719-10.734,37.043-10.734,82.719-10.734S643.868,2996.835,643.868,3002.764Z" transform="translate(-458.058 -2475.573)" fill="url(#linear-gradient-14)"/>
      <path id="Path_754" data-name="Path 754" d="M560.957,3052.968c-40.466,0-82.767-3.865-82.767-11.318,0-.4.147-1.129.556-1.129s.234.563.234.972c0,4.727,33.667,9.993,81.978,9.993s81.978-5.266,81.978-9.993c0-.4.07-.793.479-.793s.31.547.31.956C643.725,3049.108,601.417,3052.968,560.957,3052.968Z" transform="translate(-457.867 -2514.301)" fill="url(#linear-gradient-15)"/>
      <path id="Path_755" data-name="Path 755" d="M674.755,3029.816c.805-.562,1.677-1.115,2.6-1.663a16.441,16.441,0,0,1,3.553-1.482,33.99,33.99,0,0,1,5.452-1.077,69.266,69.266,0,0,1,8.168-.441q4.8-.025,9,.3a61.6,61.6,0,0,1,7.4.98,23.034,23.034,0,0,1,5.2,1.61,4.025,4.025,0,0,1,2.376,2.2l9.313.094a9.149,9.149,0,0,1,1.786.166c.521.106.773.239.773.4v.767l-11.975-.115a6.019,6.019,0,0,1-3.209,2.577,33.049,33.049,0,0,1-6.567,2.025l-4.361-.6a5.126,5.126,0,0,1-.962-.227c-.252-.093-.372-.191-.375-.3,0-.149.336-.316,1.007-.505s1.435-.425,2.283-.7a22.928,22.928,0,0,0,2.5-.989,3.439,3.439,0,0,0,1.641-1.361l-28.255-.28a26.912,26.912,0,0,1-2.5,1.611,16.278,16.278,0,0,1-3.666,1.426,38.538,38.538,0,0,1-5.687,1.027,80.328,80.328,0,0,1-8.574.42c-2.591.012-5.112-.086-7.582-.294a52.133,52.133,0,0,1-6.581-.938,20.373,20.373,0,0,1-4.721-1.546c-1.224-.614-1.913-1.319-2.056-2.116l-7.666-.081a10.02,10.02,0,0,1-1.812-.159c-.529-.1-.805-.238-.805-.4v-.765l10.485.1a5.63,5.63,0,0,1,2.865-2.112,32.877,32.877,0,0,1,5.321-1.6l3.511.483c1.067.149,1.594.324,1.6.525,0,.109-.215.244-.656.4s-.968.354-1.574.578a14.319,14.319,0,0,0-1.746.787,3.681,3.681,0,0,0-1.278,1.023Zm-25.866,1.047a2.747,2.747,0,0,0,1.393,1.3,11.041,11.041,0,0,0,2.663.9,27.31,27.31,0,0,0,3.594.516q2,.163,4.185.153a43.139,43.139,0,0,0,4.443-.22,25.44,25.44,0,0,0,3.324-.562,15.688,15.688,0,0,0,2.5-.825,14.035,14.035,0,0,0,1.909-1.021Zm61.526-.687a2.848,2.848,0,0,0-1.522-1.341,13.7,13.7,0,0,0-3.064-.966,33.857,33.857,0,0,0-4.342-.582q-2.47-.2-5.46-.177a41.812,41.812,0,0,0-4.572.238,23.621,23.621,0,0,0-3.324.6,12.2,12.2,0,0,0-2.388.884,16.883,16.883,0,0,0-1.832,1.079Z" transform="translate(-579.481 -2502.027)" fill="#fcb048"/>
      <path id="Path_756" data-name="Path 756" d="M566.321,2997.8c-36.884,0-75.294,3.245-81.431,9.529a7.409,7.409,0,0,1,.672.707c5.178-4.363,36.888-8.754,80.758-8.754,45,0,77.213,4.631,81.117,9.09a7.807,7.807,0,0,1,.618-.7C642.982,3001.166,603.857,2997.8,566.321,2997.8Z" transform="translate(-463.218 -2480.181)" fill="url(#linear-gradient-16)"/>
      <path id="Path_757" data-name="Path 757" d="M577,2949.878v18.339c0,5.929,37.043,10.735,82.719,10.735s82.719-4.806,82.719-10.735V2949.87Z" transform="translate(-536.784 -2441.901)" fill="url(#linear-gradient-17)"/>
      <path id="Path_758" data-name="Path 758" d="M742.436,2907.316c0,5.927-37.043,10.735-82.719,10.735S577,2913.243,577,2907.316s37.043-10.736,82.719-10.736S742.436,2901.387,742.436,2907.316Z" transform="translate(-536.784 -2399.339)" fill="url(#linear-gradient-18)"/>
      <path id="Path_759" data-name="Path 759" d="M659.517,2957.526c-40.466,0-82.767-3.864-82.767-11.318,0-.4.147-1.127.556-1.127s.234.562.234.972c0,4.727,33.667,9.994,81.978,9.994s81.978-5.267,81.978-9.994c0-.4.07-.793.479-.793s.31.546.31.954C742.287,2953.668,699.977,2957.526,659.517,2957.526Z" transform="translate(-536.584 -2438.075)" fill="url(#linear-gradient-19)"/>
      <path id="Path_760" data-name="Path 760" d="M773.291,2934.368c.805-.562,1.675-1.115,2.6-1.663a16.267,16.267,0,0,1,3.553-1.482,34.239,34.239,0,0,1,5.452-1.079,69.372,69.372,0,0,1,8.168-.44q4.8-.024,9,.306a61.156,61.156,0,0,1,7.4.981,22.972,22.972,0,0,1,5.2,1.61,4.024,4.024,0,0,1,2.376,2.2l9.313.095a9.13,9.13,0,0,1,1.786.166c.521.106.773.241.773.4v.767l-11.975-.115a6.023,6.023,0,0,1-3.209,2.577,33.066,33.066,0,0,1-6.567,2.025l-4.361-.6a4.936,4.936,0,0,1-.962-.228c-.252-.09-.374-.191-.374-.3,0-.147.336-.316,1.007-.5s1.437-.425,2.285-.7a22.927,22.927,0,0,0,2.5-.988,3.4,3.4,0,0,0,1.639-1.361l-28.262-.28a26.933,26.933,0,0,1-2.5,1.611,16.242,16.242,0,0,1-3.666,1.423,38.217,38.217,0,0,1-5.687,1.029,80.972,80.972,0,0,1-8.574.418c-2.591.012-5.114-.086-7.584-.293a51.784,51.784,0,0,1-6.579-.938,20.5,20.5,0,0,1-4.721-1.546c-1.224-.6-1.913-1.319-2.056-2.116l-7.656-.081a10.109,10.109,0,0,1-1.812-.159c-.53-.1-.805-.239-.805-.4v-.767l10.483.1a5.629,5.629,0,0,1,2.867-2.112,32.724,32.724,0,0,1,5.321-1.6l3.511.481c1.065.151,1.594.326,1.6.527,0,.108-.215.242-.656.4s-.968.354-1.574.578a14.105,14.105,0,0,0-1.745.787,3.726,3.726,0,0,0-1.278,1.022Zm-25.864,1.045a2.748,2.748,0,0,0,1.391,1.3,11.121,11.121,0,0,0,2.666.9,26.96,26.96,0,0,0,3.59.518q2,.167,4.185.155a43.838,43.838,0,0,0,4.443-.219,25.871,25.871,0,0,0,3.324-.564,15.528,15.528,0,0,0,2.5-.825,13.772,13.772,0,0,0,1.909-1.021Zm61.526-.687a2.836,2.836,0,0,0-1.522-1.339,13.6,13.6,0,0,0-3.064-.966,33.687,33.687,0,0,0-4.343-.584q-2.47-.191-5.46-.177a42.432,42.432,0,0,0-4.572.238,23.688,23.688,0,0,0-3.324.6,12.086,12.086,0,0,0-2.388.881,17.173,17.173,0,0,0-1.832,1.08Z" transform="translate(-658.183 -2425.793)" fill="#fcb048"/>
      <path id="Path_761" data-name="Path 761" d="M664.879,2902.36c-36.882,0-75.294,3.245-81.429,9.527a7.369,7.369,0,0,1,.672.708c5.178-4.363,36.888-8.756,80.756-8.756,45,0,77.215,4.63,81.119,9.092a7.276,7.276,0,0,1,.618-.7C741.542,2905.724,702.417,2902.36,664.879,2902.36Z" transform="translate(-541.935 -2403.956)" fill="url(#linear-gradient-20)"/>
      <path id="Path_762" data-name="Path 762" d="M636.8,2854.18v18.346c0,5.929,37.043,10.737,82.719,10.737s82.719-4.808,82.719-10.737V2854.18Z" transform="translate(-584.545 -2365.475)" fill="url(#linear-gradient-13)"/>
      <ellipse id="Ellipse_29" data-name="Ellipse 29" cx="82.719" cy="10.734" rx="82.719" ry="10.734" transform="translate(52.253 477.97)" fill="url(#linear-gradient-14)"/>
      <path id="Path_763" data-name="Path 763" d="M719.325,2861.8c-40.466,0-82.765-3.865-82.765-11.318,0-.4.145-1.129.556-1.129s.234.564.234.972c0,4.727,33.667,9.994,81.976,9.994s81.98-5.267,81.98-9.994c0-.4.068-.793.479-.793s.31.545.31.956C802.095,2857.936,759.785,2861.8,719.325,2861.8Z" transform="translate(-584.353 -2361.617)" fill="url(#linear-gradient-15)"/>
      <path id="Path_764" data-name="Path 764" d="M833.053,2838.646c.805-.562,1.675-1.115,2.6-1.663a16.426,16.426,0,0,1,3.553-1.482,33.986,33.986,0,0,1,5.454-1.077,69.266,69.266,0,0,1,8.168-.441q4.8-.024,9,.3a61.3,61.3,0,0,1,7.4.98,22.942,22.942,0,0,1,5.2,1.611,4.042,4.042,0,0,1,2.378,2.2l9.313.093a9.247,9.247,0,0,1,1.786.167c.519.1.771.24.773.4v.767l-11.975-.117a6.055,6.055,0,0,1-3.221,2.579,33.1,33.1,0,0,1-6.565,2.025l-4.361-.6a5.09,5.09,0,0,1-.962-.229c-.252-.091-.375-.191-.375-.3q0-.219,1.007-.5t2.285-.7a23.28,23.28,0,0,0,2.5-.989,3.462,3.462,0,0,0,1.639-1.361l-28.261-.282a26.592,26.592,0,0,1-2.5,1.611,16.306,16.306,0,0,1-3.666,1.425,38.543,38.543,0,0,1-5.687,1.027,79.856,79.856,0,0,1-8.576.419c-2.589.014-5.112-.085-7.582-.294a52.236,52.236,0,0,1-6.579-.936,20.631,20.631,0,0,1-4.721-1.546c-1.224-.614-1.913-1.321-2.056-2.118l-7.668-.079a10.019,10.019,0,0,1-1.812-.159c-.527-.1-.805-.238-.805-.4v-.767l10.483.1a5.64,5.64,0,0,1,2.867-2.112,32.77,32.77,0,0,1,5.321-1.6l3.509.481c1.067.151,1.6.326,1.6.527,0,.109-.215.243-.656.4s-.97.353-1.574.576a14.532,14.532,0,0,0-1.748.789,3.688,3.688,0,0,0-1.276,1.023Zm-25.866,1.045a2.741,2.741,0,0,0,1.393,1.3,11.183,11.183,0,0,0,2.664.9,27,27,0,0,0,3.59.516q2,.167,4.185.155a43.139,43.139,0,0,0,4.443-.219,26.12,26.12,0,0,0,3.326-.562,15.769,15.769,0,0,0,2.5-.825,14.016,14.016,0,0,0,1.911-1.021Zm61.528-.684a2.853,2.853,0,0,0-1.524-1.341,13.651,13.651,0,0,0-3.062-.966,33.69,33.69,0,0,0-4.343-.584q-2.47-.191-5.46-.175a41.847,41.847,0,0,0-4.574.235,23.728,23.728,0,0,0-3.324.6,12.184,12.184,0,0,0-2.386.883,16.979,16.979,0,0,0-1.832,1.077Z" transform="translate(-705.896 -2349.343)" fill="#fcb048"/>
      <path id="Path_765" data-name="Path 765" d="M724.689,2806.63c-36.882,0-75.294,3.245-81.429,9.528a7.7,7.7,0,0,1,.672.707c5.176-4.363,36.886-8.754,80.756-8.754,45,0,77.215,4.631,81.119,9.09a7.576,7.576,0,0,1,.618-.7C801.352,2810,762.227,2806.63,724.689,2806.63Z" transform="translate(-589.704 -2327.498)" fill="url(#linear-gradient-24)"/>
      <path id="Path_766" data-name="Path 766" d="M592.65,2750.9v18.341c0,5.929,37.043,10.734,82.719,10.734s82.719-4.805,82.719-10.734V2750.9Z" transform="translate(-549.283 -2282.988)" fill="url(#linear-gradient-25)"/>
      <path id="Path_767" data-name="Path 767" d="M758.088,2708.314c0,5.929-37.043,10.735-82.719,10.735s-82.719-4.805-82.719-10.735,37.043-10.734,82.719-10.734S758.088,2702.385,758.088,2708.314Z" transform="translate(-549.283 -2240.402)" fill="url(#linear-gradient-14)"/>
      <path id="Path_768" data-name="Path 768" d="M675.177,2758.517c-40.466,0-82.767-3.865-82.767-11.318,0-.4.147-1.129.556-1.129s.234.564.234.972c0,4.727,33.667,9.993,81.978,9.993s81.978-5.266,81.978-9.993c0-.4.07-.793.479-.793s.31.547.31.956C757.945,2754.658,715.637,2758.517,675.177,2758.517Z" transform="translate(-549.092 -2279.13)" fill="url(#linear-gradient-15)"/>
      <path id="Path_769" data-name="Path 769" d="M788.969,2735.366c.805-.562,1.675-1.115,2.6-1.663a16.368,16.368,0,0,1,3.553-1.48,33.688,33.688,0,0,1,5.454-1.079,69.268,69.268,0,0,1,8.168-.441q4.8-.024,9,.3a61.614,61.614,0,0,1,7.4.98,22.939,22.939,0,0,1,5.2,1.611,4,4,0,0,1,2.368,2.2l9.315.095a9.129,9.129,0,0,1,1.784.165c.521.107.773.24.773.4v.767l-11.973-.115q-.63,1.409-3.221,2.577a33.739,33.739,0,0,1-6.543,2.033l-4.361-.6a5.292,5.292,0,0,1-.964-.227c-.252-.093-.372-.191-.372-.3,0-.149.336-.316,1.007-.505s1.435-.423,2.283-.7a22.812,22.812,0,0,0,2.5-.989,3.441,3.441,0,0,0,1.641-1.361l-28.264-.28a27.335,27.335,0,0,1-2.494,1.61,16.343,16.343,0,0,1-3.668,1.424,38.478,38.478,0,0,1-5.687,1.026,80.327,80.327,0,0,1-8.574.421c-2.591.012-5.112-.086-7.582-.294a52.222,52.222,0,0,1-6.581-.938,20.5,20.5,0,0,1-4.721-1.546c-1.224-.6-1.913-1.319-2.054-2.116l-7.668-.079a10.133,10.133,0,0,1-1.812-.161c-.529-.1-.805-.237-.805-.4v-.765l10.485.1a5.631,5.631,0,0,1,2.865-2.112,32.871,32.871,0,0,1,5.321-1.61l3.511.483c1.067.149,1.6.324,1.6.526,0,.109-.215.244-.656.4s-.968.354-1.574.576a14.643,14.643,0,0,0-1.745.789,3.692,3.692,0,0,0-1.276,1.023Zm-25.866,1.047a2.747,2.747,0,0,0,1.393,1.3,11.076,11.076,0,0,0,2.664.9,27.291,27.291,0,0,0,3.589.517q2,.163,4.186.153a43.139,43.139,0,0,0,4.443-.219,25.357,25.357,0,0,0,3.324-.562,15.474,15.474,0,0,0,2.5-.826,13.984,13.984,0,0,0,1.909-1.021Zm61.526-.687a2.847,2.847,0,0,0-1.522-1.341,13.775,13.775,0,0,0-3.062-.967,33.715,33.715,0,0,0-4.344-.582q-2.47-.2-5.458-.177a41.667,41.667,0,0,0-4.574.237,23.756,23.756,0,0,0-3.324.6,12.171,12.171,0,0,0-2.388.884,16.527,16.527,0,0,0-1.83,1.079Z" transform="translate(-670.698 -2266.856)" fill="#fcb048"/>
      <path id="Path_770" data-name="Path 770" d="M680.549,2703.35c-36.884,0-75.294,3.246-81.429,9.528a7.683,7.683,0,0,1,.67.707c5.178-4.361,36.888-8.754,80.758-8.754,45,0,77.215,4.62,81.117,9.09a7.859,7.859,0,0,1,.618-.7C757.21,2706.716,718.087,2703.35,680.549,2703.35Z" transform="translate(-554.451 -2245.011)" fill="url(#linear-gradient-28)"/>
      <path id="Path_771" data-name="Path 771" d="M478.43,2655.18v18.346c0,5.929,37.043,10.734,82.719,10.734s82.719-4.805,82.719-10.734V2655.18Z" transform="translate(-458.058 -2206.538)" fill="url(#linear-gradient-13)"/>
      <ellipse id="Ellipse_30" data-name="Ellipse 30" cx="82.719" cy="10.734" rx="82.719" ry="10.734" transform="translate(20.372 437.907)" fill="url(#linear-gradient-30)"/>
      <path id="Path_772" data-name="Path 772" d="M560.957,2662.8c-40.466,0-82.767-3.864-82.767-11.318,0-.4.147-1.128.556-1.128s.234.562.234.973c0,4.727,33.667,9.993,81.978,9.993s81.978-5.267,81.978-9.993c0-.4.07-.794.479-.794s.31.546.31.955C643.725,2658.936,601.417,2662.8,560.957,2662.8Z" transform="translate(-457.867 -2202.681)" fill="url(#linear-gradient-19)"/>
      <path id="Path_773" data-name="Path 773" d="M674.755,2639.654c.805-.562,1.677-1.115,2.6-1.663a16.255,16.255,0,0,1,3.553-1.482,34.213,34.213,0,0,1,5.452-1.079,69.316,69.316,0,0,1,8.168-.437q4.8-.024,9,.306a61.2,61.2,0,0,1,7.4.98,22.984,22.984,0,0,1,5.2,1.611,4.027,4.027,0,0,1,2.376,2.2l9.313.095a9.112,9.112,0,0,1,1.786.165c.521.106.773.241.773.4v.767l-11.975-.115a6.02,6.02,0,0,1-3.209,2.577,33.049,33.049,0,0,1-6.567,2.025l-4.361-.6a5.043,5.043,0,0,1-.962-.228c-.252-.091-.372-.191-.375-.3,0-.146.336-.316,1.007-.5s1.435-.425,2.283-.7a22.831,22.831,0,0,0,2.5-.989,3.429,3.429,0,0,0,1.641-1.361l-28.255-.286a26.96,26.96,0,0,1-2.5,1.61,16.184,16.184,0,0,1-3.666,1.424,38.183,38.183,0,0,1-5.687,1.028,80.391,80.391,0,0,1-8.574.419c-2.591.012-5.112-.087-7.582-.294a51.818,51.818,0,0,1-6.581-.938,20.478,20.478,0,0,1-4.721-1.546c-1.224-.6-1.913-1.319-2.056-2.116l-7.666-.079a10,10,0,0,1-1.812-.159c-.529-.1-.805-.24-.805-.4v-.767l10.485.1a5.618,5.618,0,0,1,2.865-2.11,32.666,32.666,0,0,1,5.321-1.6l3.511.481c1.067.149,1.594.324,1.6.527,0,.109-.215.242-.656.4s-.968.354-1.574.578a14.283,14.283,0,0,0-1.746.787,3.73,3.73,0,0,0-1.278,1.022Zm-25.866,1.045a2.742,2.742,0,0,0,1.393,1.3,11.069,11.069,0,0,0,2.663.9,27,27,0,0,0,3.59.517q2,.167,4.185.155a43.765,43.765,0,0,0,4.443-.219,25.828,25.828,0,0,0,3.324-.564,15.526,15.526,0,0,0,2.5-.825,13.8,13.8,0,0,0,1.909-1.021Zm61.526-.686a2.839,2.839,0,0,0-1.522-1.339,13.608,13.608,0,0,0-3.064-.967,33.814,33.814,0,0,0-4.342-.583q-2.47-.191-5.46-.177a41.751,41.751,0,0,0-4.572.238,23.365,23.365,0,0,0-3.324.6,12.062,12.062,0,0,0-2.388.882,17.121,17.121,0,0,0-1.832,1.079Z" transform="translate(-579.481 -2190.414)" fill="#fcb048"/>
      <path id="Path_774" data-name="Path 774" d="M566.321,2607.63c-36.884,0-75.294,3.246-81.431,9.527a7.422,7.422,0,0,1,.672.709c5.188-4.363,36.888-8.751,80.758-8.751,45,0,77.213,4.62,81.117,9.092a7.326,7.326,0,0,1,.618-.7C642.982,2610.994,603.857,2607.63,566.321,2607.63Z" transform="translate(-463.218 -2168.561)" fill="url(#linear-gradient-32)"/>
      <path id="Path_775" data-name="Path 775" d="M577,2559.73v18.348c0,5.927,37.043,10.735,82.719,10.735s82.719-4.807,82.719-10.735V2559.73Z" transform="translate(-536.784 -2130.304)" fill="url(#linear-gradient-13)"/>
      <ellipse id="Ellipse_31" data-name="Ellipse 31" cx="82.719" cy="10.734" rx="82.719" ry="10.734" transform="translate(40.212 418.691)" fill="url(#linear-gradient-14)"/>
      <path id="Path_776" data-name="Path 776" d="M659.517,2567.347c-40.466,0-82.767-3.865-82.767-11.318,0-.4.147-1.129.556-1.129s.234.564.234.972c0,4.727,33.667,9.993,81.978,9.993s81.978-5.266,81.978-9.993c0-.4.07-.793.479-.793s.31.545.31.956C742.287,2563.488,699.977,2567.347,659.517,2567.347Z" transform="translate(-536.584 -2126.447)" fill="url(#linear-gradient-15)"/>
      <path id="Path_777" data-name="Path 777" d="M773.243,2544.2c.805-.562,1.675-1.115,2.6-1.663a16.33,16.33,0,0,1,3.553-1.482,33.938,33.938,0,0,1,5.452-1.077,68.746,68.746,0,0,1,8.168-.441q4.8-.024,9,.3a61.154,61.154,0,0,1,7.4.98,22.984,22.984,0,0,1,5.2,1.611,4.025,4.025,0,0,1,2.376,2.2l9.313.095a9.131,9.131,0,0,1,1.786.165c.521.1.773.24.773.4v.767l-11.975-.116a6.028,6.028,0,0,1-3.209,2.579,32.855,32.855,0,0,1-6.567,2.025l-4.361-.6a5.091,5.091,0,0,1-.962-.23c-.252-.091-.374-.2-.374-.3,0-.149.336-.316,1.007-.505s1.437-.425,2.285-.7a23.4,23.4,0,0,0,2.5-.988,3.428,3.428,0,0,0,1.639-1.361l-28.262-.282a26.586,26.586,0,0,1-2.5,1.611,16.313,16.313,0,0,1-3.666,1.425,38.476,38.476,0,0,1-5.687,1.027,79.817,79.817,0,0,1-8.574.419c-2.591.014-5.114-.084-7.584-.294a51.739,51.739,0,0,1-6.579-.936,20.609,20.609,0,0,1-4.721-1.546c-1.224-.614-1.913-1.321-2.055-2.118l-7.668-.079a9.976,9.976,0,0,1-1.812-.159c-.529-.1-.805-.238-.805-.4v-.767l10.483.1a5.639,5.639,0,0,1,2.867-2.112,32.768,32.768,0,0,1,5.321-1.6l3.511.481c1.065.151,1.595.326,1.6.528,0,.109-.215.244-.656.4s-.968.353-1.574.576a14.456,14.456,0,0,0-1.745.789,3.68,3.68,0,0,0-1.278,1.022Zm-25.864,1.045a2.745,2.745,0,0,0,1.391,1.3,11.1,11.1,0,0,0,2.666.9,27.587,27.587,0,0,0,3.59.517q2,.163,4.185.153a43.14,43.14,0,0,0,4.443-.219,26.178,26.178,0,0,0,3.324-.562,15.744,15.744,0,0,0,2.5-.826,13.985,13.985,0,0,0,1.909-1.021Zm61.526-.684a2.847,2.847,0,0,0-1.522-1.341,13.721,13.721,0,0,0-3.064-.967,33.771,33.771,0,0,0-4.342-.583q-2.47-.191-5.46-.176a41.932,41.932,0,0,0-4.572.236,23.685,23.685,0,0,0-3.324.6,12.181,12.181,0,0,0-2.388.884,17.072,17.072,0,0,0-1.832,1.077Z" transform="translate(-658.135 -2114.172)" fill="#fcb048"/>
      <path id="Path_778" data-name="Path 778" d="M664.879,2512.18c-36.882,0-75.294,3.245-81.429,9.529a7.17,7.17,0,0,1,.672.707c5.178-4.363,36.888-8.754,80.756-8.754,45,0,77.215,4.621,81.119,9.09a7.573,7.573,0,0,1,.618-.7C741.542,2515.546,702.417,2512.18,664.879,2512.18Z" transform="translate(-541.935 -2092.327)" fill="url(#linear-gradient-36)"/>
      <path id="Path_779" data-name="Path 779" d="M525.73,2464v18.348c0,5.929,37.033,10.734,82.719,10.734s82.717-4.806,82.717-10.734V2464Z" transform="translate(-495.836 -2053.847)" fill="url(#linear-gradient-9)"/>
      <ellipse id="Ellipse_32" data-name="Ellipse 32" cx="82.719" cy="10.734" rx="82.719" ry="10.734" transform="translate(29.892 399.42)" fill="url(#linear-gradient-10)"/>
      <path id="Path_780" data-name="Path 780" d="M608.255,2471.625c-40.466,0-82.765-3.863-82.765-11.318,0-.4.145-1.127.554-1.127s.234.562.234.97c0,4.727,33.669,9.993,81.978,9.993s81.978-5.267,81.978-9.993c0-.4.07-.792.479-.792s.312.546.312.955C691.025,2467.768,648.715,2471.625,608.255,2471.625Z" transform="translate(-495.644 -2049.997)" fill="url(#linear-gradient-39)"/>
      <path id="Path_781" data-name="Path 781" d="M722.055,2448.488c.805-.564,1.675-1.117,2.6-1.663a16.325,16.325,0,0,1,3.553-1.482,33.931,33.931,0,0,1,5.454-1.079,69.266,69.266,0,0,1,8.168-.441q4.8-.025,9,.3a61.564,61.564,0,0,1,7.4.981,22.977,22.977,0,0,1,5.2,1.61,4.034,4.034,0,0,1,2.376,2.2l9.315.094a9.15,9.15,0,0,1,1.786.165c.519.107.771.24.773.4v.767l-11.973-.115a6.049,6.049,0,0,1-3.221,2.577,33.282,33.282,0,0,1-6.565,2.025l-4.361-.6a5.069,5.069,0,0,1-.962-.227c-.254-.093-.374-.191-.374-.3q0-.221,1.007-.506c.67-.189,1.435-.423,2.283-.7a22.909,22.909,0,0,0,2.5-.988,3.424,3.424,0,0,0,1.639-1.361l-28.261-.28a27.008,27.008,0,0,1-2.5,1.611,16.219,16.219,0,0,1-3.666,1.423,38.248,38.248,0,0,1-5.687,1.027,80.429,80.429,0,0,1-8.576.421c-2.589.012-5.112-.087-7.582-.294a51.969,51.969,0,0,1-6.565-.938,20.46,20.46,0,0,1-4.719-1.546q-1.844-.92-2.055-2.116l-7.668-.079a9.954,9.954,0,0,1-1.812-.161c-.528-.1-.805-.238-.805-.4v-.767l10.485.1a5.619,5.619,0,0,1,2.867-2.11,32.58,32.58,0,0,1,5.319-1.61l3.511.483c1.067.149,1.6.324,1.6.525,0,.109-.215.244-.656.4s-.968.354-1.572.578a14.141,14.141,0,0,0-1.747.787,3.707,3.707,0,0,0-1.276,1.022Zm-25.866,1.045a2.781,2.781,0,0,0,1.393,1.3,10.979,10.979,0,0,0,2.663.9,27.294,27.294,0,0,0,3.59.517q2,.163,4.185.155a44.271,44.271,0,0,0,4.443-.219,25.774,25.774,0,0,0,3.326-.564,15.535,15.535,0,0,0,2.5-.825,14.043,14.043,0,0,0,1.91-1.021Zm61.528-.687a2.892,2.892,0,0,0-1.524-1.341,13.776,13.776,0,0,0-3.062-.966,33.63,33.63,0,0,0-4.345-.582q-2.47-.189-5.458-.177a41.789,41.789,0,0,0-4.574.238,23.472,23.472,0,0,0-3.324.6,12.124,12.124,0,0,0-2.388.882,17.17,17.17,0,0,0-1.83,1.079Z" transform="translate(-617.259 -2037.731)" fill="#fcb048"/>
      <path id="Path_782" data-name="Path 782" d="M613.618,2416.45c-36.882,0-75.294,3.247-81.429,9.528a7.742,7.742,0,0,1,.67.707c5.178-4.361,36.888-8.754,80.758-8.754,45,0,77.215,4.631,81.117,9.09a8.094,8.094,0,0,1,.62-.7C690.282,2419.816,651.157,2416.45,613.618,2416.45Z" transform="translate(-500.995 -2015.87)" fill="url(#linear-gradient-40)"/>
      <path id="Path_783" data-name="Path 783" d="M1401.868,2528.25l-14.952,10.636c-4.832,3.437,12.72,36.4,39.2,73.627s51.862,64.624,56.694,61.184l14.95-10.634Z" transform="translate(-1183.007 -2105.162)" fill="url(#linear-gradient-41)"/>
      <path id="Path_784" data-name="Path 784" d="M1557.078,2661.908c-4.832,3.436-30.212-23.958-56.692-61.184s-44.031-70.193-39.2-73.63,30.214,23.957,56.694,61.184S1561.909,2658.472,1557.078,2661.908Z" transform="translate(-1242.325 -2104.007)" fill="url(#linear-gradient-42)"/>
      <path id="Path_785" data-name="Path 785" d="M1498.193,2601.125c-23.452-32.97-44.824-69.686-38.75-74.006.332-.238,1.006-.535,1.24-.2s-.322.515-.656.753c-3.851,2.74,11.371,33.229,39.372,72.595s51.81,63.75,55.661,61c.334-.237.687-.4.924-.071s-.266.57-.6.805C1549.314,2666.331,1521.645,2634.093,1498.193,2601.125Z" transform="translate(-1240.737 -2103.979)" fill="url(#linear-gradient-43)"/>
      <path id="Path_786" data-name="Path 786" d="M1574.406,2688.924c.928.336,1.88.719,2.861,1.156a16.261,16.261,0,0,1,3.261,2.035,33.925,33.925,0,0,1,4.041,3.825,69.568,69.568,0,0,1,5.093,6.4q2.8,3.9,4.969,7.513a61.117,61.117,0,0,1,3.493,6.6,22.928,22.928,0,0,1,1.7,5.17,4.071,4.071,0,0,1-.417,3.221l5.321,7.65a9.173,9.173,0,0,1,.9,1.55c.215.487.254.769.121.864l-.622.449-6.845-9.824a6.046,6.046,0,0,1-3.962-1.123,32.99,32.99,0,0,1-5.456-4.176l-2.033-3.906a5.128,5.128,0,0,1-.372-.916c-.07-.258-.06-.415.028-.479q.179-.127,1.006.531t1.9,1.453a23.013,23.013,0,0,0,2.255,1.464,3.391,3.391,0,0,0,2.06.548l-16.154-23.193a27.192,27.192,0,0,1-2.76-1.1,16.336,16.336,0,0,1-3.286-2.162,38.443,38.443,0,0,1-4.133-4.039,80.778,80.778,0,0,1-5.313-6.744q-2.265-3.157-4.155-6.35a51.847,51.847,0,0,1-3.048-5.907,20.455,20.455,0,0,1-1.478-4.741,3.335,3.335,0,0,1,.533-2.9l-4.385-6.318a10.272,10.272,0,0,1-.92-1.568c-.224-.491-.268-.789-.129-.888l.622-.449,6,8.6a5.626,5.626,0,0,1,3.382,1.111,32.651,32.651,0,0,1,4.387,3.408l1.643,3.141q.743,1.431.5,1.611c-.089.064-.324-.034-.711-.3l-1.383-.948a14.449,14.449,0,0,0-1.653-.966,3.717,3.717,0,0,0-1.574-.447Zm-15.844-20.47a2.775,2.775,0,0,0-.252,1.888,11.084,11.084,0,0,0,.805,2.692,27.293,27.293,0,0,0,1.659,3.221q1.027,1.727,2.3,3.5a43.281,43.281,0,0,0,2.756,3.5,25.48,25.48,0,0,0,2.385,2.382,15.383,15.383,0,0,0,2.12,1.558,14,14,0,0,0,1.939.966Zm36.222,49.738a2.824,2.824,0,0,0,.2-2.013,13.692,13.692,0,0,0-.989-3.056,33.913,33.913,0,0,0-2.041-3.877q-1.278-2.124-3.02-4.55a41.675,41.675,0,0,0-2.843-3.589,23.405,23.405,0,0,0-2.416-2.36,12.147,12.147,0,0,0-2.1-1.433,16.886,16.886,0,0,0-1.941-.866Z" transform="translate(-1312.617 -2204.454)" fill="#fcb048"/>
      <path id="Path_787" data-name="Path 787" d="M1522.526,2594.221c-21.38-30.055-46.284-59.468-54.961-60.831a7.283,7.283,0,0,1-.185.956c6.555,1.691,28.513,24.986,53.942,60.735,26.081,36.667,40.991,65.6,39.61,71.371a7.666,7.666,0,0,1,.93.1C1564.218,2658.644,1544.283,2624.81,1522.526,2594.221Z" transform="translate(-1247.911 -2109.268)" fill="url(#linear-gradient-44)"/>
      <path id="Path_788" data-name="Path 788" d="M2598.24,1875.266a10.307,10.307,0,0,0,3.221-4.256c.854-2.19.254-3.165,1.323-4.532a5.442,5.442,0,0,1,6.04-1.635,2.435,2.435,0,0,1,1.2.948c.848,1.427-1.031,3.9-2.529,5.218a22.621,22.621,0,0,1-2.79,1.762,11.6,11.6,0,0,0-3.825,4.844Z" transform="translate(-2151.104 -1575.035)" fill="url(#linear-gradient-45)"/>
      <path id="Path_789" data-name="Path 789" d="M2852.1,1831.071a10.327,10.327,0,0,1-4.63-2.659c-1.639-1.685-1.468-2.818-2.984-3.658a5.435,5.435,0,0,0-6.191.85,2.435,2.435,0,0,0-.733,1.339c-.221,1.645,2.472,3.189,4.367,3.825a22.464,22.464,0,0,0,3.255.533,11.5,11.5,0,0,1,5.4,2.971Z" transform="translate(-2342.233 -1542.814)" fill="url(#linear-gradient-46)"/>
      <path id="Path_790" data-name="Path 790" d="M2799.312,1849.141c-.831,3.966,3.455,7.5,6.549,10.96,6.2,6.95,12.7,19.349,10.314,30-1.3,5.812-5.476,12.1-11.373,15.077-6.346,3.207-10.147.29-16.747,4.1-.487.282-8.833,5.234-9.077,11.908-.3,8.24,11.814,17,22.184,17.674,18.964,1.228,41.814-23.991,40.75-49.016-1.159-27.243-30.432-48.867-38.855-45.2A6.959,6.959,0,0,0,2799.312,1849.141Z" transform="translate(-2295.452 -1558.851)" fill="url(#linear-gradient-47)"/>
      <path id="Path_791" data-name="Path 791" d="M2423.878,2817.585l-.678,6.9,3.215-.584,2.16-6.484Z" transform="translate(-1928.451 -2245.199)" fill="url(#linear-gradient-48)"/>
      <path id="Path_792" data-name="Path 792" d="M2807.98,2636.37a173.62,173.62,0,0,1-3.672,31.306c-1.949,9.212-3.084,10.8-3.692,17.173-1.323,13.861,3.145,15.844,3.964,31.511a95.43,95.43,0,0,1-5.5,36.292,98.935,98.935,0,0,1-4.479,10.86c-1.586,1.383-4.012.852-6.569.332-.94-15.691-2.116-30.456-3.058-46.147q-4.556-35.406-9.112-70.811Z" transform="translate(-2292.965 -2191.515)" fill="url(#linear-gradient-49)"/>
      <path id="Path_793" data-name="Path 793" d="M2788.03,2763.843c-.94-15.691-2.116-30.456-3.058-46.147q-4.556-35.406-9.112-70.811l32.121-10.515c-.02.805-.062,1.592-.094,2.39-15.022,13.045-17.962,23.382-17.815,30.43.177,8.55,4.852,12.788,3.94,25.183-.655,8.858-3.318,10.427-3.318,18.423,0,10.3,4.429,16.089,6.575,22.041,2.082,5.754,2.818,13.891-1.2,25.487-.527,1.2-1.027,2.269-1.472,3.187C2793.012,2764.894,2790.585,2764.362,2788.03,2763.843Z" transform="translate(-2292.966 -2191.515)" opacity="0.3" fill="url(#linear-gradient-49)"/>
      <path id="Path_794" data-name="Path 794" d="M2811.533,3292.493c1.522-1.887,2.919-1.748,3.173-3.02a2.6,2.6,0,0,0-1.373-2.663c-1.315-.628-2.865.428-3.221.666-2.382,1.623-1.671,4.063-3.926,5.176a6.058,6.058,0,0,0-1.925,1.208c-.318.31-1.107,1.083-.908,1.6.231.6,1.667.543,3.02.5,1.638-.059,2.456-.087,3.233-.6C2810.706,3294.639,2810.358,3293.949,2811.533,3292.493Z" transform="translate(-2314.899 -2710.851)" fill="url(#linear-gradient-51)"/>
      <path id="Path_795" data-name="Path 795" d="M2416.51,2556.791l6.011,2.354,1.753-2.759-4.7-3.156Z" transform="translate(-1923.109 -2034.196)" fill="url(#linear-gradient-52)"/>
      <path id="Path_796" data-name="Path 796" d="M2854.979,3020.269c-.352-2.4.7-3.332-.07-4.385a2.618,2.618,0,0,0-2.889-.805c-1.353.54-1.629,2.4-1.691,2.819-.425,2.85,1.852,3.984,1.139,6.4a6.1,6.1,0,0,0-.423,2.229c.012.445.044,1.548.558,1.751.6.234,1.532-.856,2.416-1.89,1.069-1.244,1.611-1.864,1.756-2.78C2855.992,3022.335,2855.252,3022.12,2854.979,3020.269Z" transform="translate(-2352.399 -2493.861)" fill="url(#linear-gradient-53)"/>
      <path id="Path_797" data-name="Path 797" d="M2631.462,2582.25c-11.2,22.836-15,41.875-16.44,54.311-.924,7.995-.835,12.939,1.468,17.908,8.254,17.782,37.021,18.958,41.394,19.081l4.314-8.838A44.243,44.243,0,0,0,2647.022,2648c-6.084-3.825-8.456-3.008-9.982-5.579-6.094-10.315,26.8-32.654,21.888-47.526C2657.227,2589.759,2650.684,2584.543,2631.462,2582.25Z" transform="translate(-2164.069 -2148.291)" fill="url(#linear-gradient-54)"/>
      <path id="Path_798" data-name="Path 798" d="M2708.328,2171.362c-12.1,2.078-21.314,4.242-25.427,10.58-4.347,6.7,2.563,11.735,4.441,26.422,2.875,22.488-10.054,30.889-6.334,53.531a57.215,57.215,0,0,0,2.521,9.792,23.166,23.166,0,0,0,9.561,11.878,60.085,60.085,0,0,0,12.109,5.853c12.271,4.292,18.32,1.8,34.829,2.74,27,1.542,31.048,9.375,43.248,4.56,12.331-4.868,21.255-18.022,18.64-23.641-1.566-3.366-6.507-1.264-13.593-5.4-9.132-5.325-7.6-12.595-15.006-18.83-10.644-8.957-20.881.089-29.983-7.7-9.209-7.878-10.308-27.035-6.394-38.453,2.557-7.449,2.6-15.55,4.5-23.194a4.926,4.926,0,0,0-.113-2.8c-1.51-4.393-9.549-5.234-15.625-5.816A69.834,69.834,0,0,0,2708.328,2171.362Z" transform="translate(-2216.668 -1819.491)" fill="url(#linear-gradient-55)"/>
      <path id="Path_799" data-name="Path 799" d="M2781.864,2537.3c-3.739-2.492-1.713-9.555-7.248-13.306-5.139-3.479-9.148,1.071-16.722-1.25-9.716-2.979-9.207-12.333-18.522-15.317-6.694-2.148-8.715,2.126-18.37,2.311s-22.278-3.795-30.281-14.014a34.392,34.392,0,0,1-6.334-13.257c-2.579,8.329-5.377,16.378-3.38,28.531a57.708,57.708,0,0,0,3.519,12.422,17.206,17.206,0,0,0,6.108,7.63,60.516,60.516,0,0,0,14.563,7.477c12.271,4.292,18.32,1.8,34.829,2.74,27,1.542,31.048,9.376,43.248,4.56a35.026,35.026,0,0,0,17.326-15.353C2789.935,2538.24,2784.578,2539.11,2781.864,2537.3Z" transform="translate(-2216.667 -2068.599)" opacity="0.3" fill="url(#linear-gradient-56)"/>
      <path id="Path_800" data-name="Path 800" d="M2765.392,2070.47s-3.334,6.259-3.545,10.654,4.747,4.073,4.747,4.073l-.185,2.77a6.007,6.007,0,0,1-3.92,5.235l-1.959.72s12.77,2.734,19.741-2.192l-2.013-.2a6,6,0,0,1-5.389-5.367l-.123-1.186S2774.967,2071.285,2765.392,2070.47Z" transform="translate(-2280.722 -1739.543)" fill="url(#linear-gradient-57)"/>
      <path id="Path_801" data-name="Path 801" d="M2506.084,1911.01c1.894,3.581-1.254,8.155-3.271,12.339-4.046,8.391-6.869,22.1-1.643,31.674,2.854,5.234,8.6,10.119,15.1,11.356,6.982,1.331,9.833-2.521,17.227-.68.546.135,9.933,2.589,12.009,8.943,2.559,7.835-6.668,19.6-16.448,23.106-17.891,6.41-46.809-11.53-52.687-35.877-6.4-26.506,15.773-55.364,24.879-54.156A6.908,6.908,0,0,1,2506.084,1911.01Z" transform="translate(-2052.856 -1609.525)" fill="url(#linear-gradient-58)"/>
      <path id="Path_802" data-name="Path 802" d="M2775.592,2037.953c.66-.054,1.208-.892,1.657-.642s.423,1.48,0,2.337a3.1,3.1,0,0,1-1.2,1.282,8.107,8.107,0,0,1,1.427,3.237c.6,3.173-1.089,5.725-1.79,7.219-3.163,6.732,1.758,17.378,7.157,22.749,4.389,4.369,6.442,2.617,9.059,6.181,5.1,6.945-1.938,14.582.7,23.931,4.01,14.215,26.456,18.443,27.38,18.608.368.064.614.1.995.165,10.066,1.6,25.332,4.027,36.081-4.24,8.041-6.185,11.729-16.947,11.121-26.426a30.632,30.632,0,0,0-8.629-19.683c-1.224-1.226-8.474-8.472-18.268-8.558-5.188-.046-6.241,1.782-10.2.65-5.436-1.546-8.778-6.485-10.853-9.549-3.825-5.637-2.267-6.845-5.013-9.609-5.383-5.436-11.7-1.168-17.446-5.959-5.667-4.723-2.249-11.131-7.719-15.22-5.637-4.216-16.438-2.744-18.739,2.277C2769.347,2031.03,2773.569,2038.12,2775.592,2037.953Z" transform="translate(-2288.927 -1700.801)" fill="url(#linear-gradient-59)"/>
    </g>
  </g>
</svg>
