<svg xmlns="http://www.w3.org/2000/svg" xmlns:xlink="http://www.w3.org/1999/xlink" viewBox="0 0 233.45 260.88"><defs><style>.cls-1{fill:none;}.cls-2{isolation:isolate;}.cls-3{fill:#13247a;opacity:0.5;}.cls-4{fill:url(#Áåçûìÿííûé_ãðàäèåíò_10);}.cls-5{fill:url(#Áåçûìÿííûé_ãðàäèåíò_5);}.cls-252,.cls-6{fill:#fff;}.cls-7{fill:#0f65b2;}.cls-8{fill:#0063ad;}.cls-9{mix-blend-mode:multiply;}.cls-10{clip-path:url(#clip-path);}.cls-11{fill:#feffff;}.cls-12{fill:#fefeff;}.cls-13{fill:#fefefe;}.cls-14{fill:#fdfefe;}.cls-15{fill:#fdfdfe;}.cls-16{fill:#fcfdfe;}.cls-17{fill:#fbfcfe;}.cls-18{fill:#fbfcfd;}.cls-19{fill:#fafbfd;}.cls-20{fill:#f9fbfd;}.cls-21{fill:#f9fafc;}.cls-22{fill:#f8fafc;}.cls-23{fill:#f7f9fc;}.cls-24{fill:#f6f9fb;}.cls-25{fill:#f6f8fb;}.cls-26{fill:#f5f8fb;}.cls-27{fill:#f5f7fb;}.cls-28{fill:#f4f7fb;}.cls-29{fill:#f4f7fa;}.cls-30{fill:#f3f6fa;}.cls-31{fill:#f2f6fa;}.cls-32{fill:#f2f5fa;}.cls-33{fill:#f1f5f9;}.cls-34{fill:#f1f4f9;}.cls-35{fill:#f0f4f9;}.cls-36{fill:#eff4f9;}.cls-37{fill:#eff3f8;}.cls-38{fill:#eef3f8;}.cls-39{fill:#eef2f8;}.cls-40{fill:#edf2f8;}.cls-41{fill:#ecf1f7;}.cls-42{fill:#ebf0f7;}.cls-43{fill:#eaf0f6;}.cls-44{fill:#eaeff6;}.cls-45{fill:#e9eff6;}.cls-46{fill:#e8eef6;}.cls-47{fill:#e7eef5;}.cls-48{fill:#e7edf5;}.cls-49{fill:#e6edf5;}.cls-50{fill:#e5ecf4;}.cls-51{fill:#e4ebf4;}.cls-52{fill:#e3ebf4;}.cls-53{fill:#e2eaf3;}.cls-54{fill:#e1e9f3;}.cls-55{fill:#e0e8f2;}.cls-56{fill:#dfe8f2;}.cls-57{fill:#dfe7f2;}.cls-58{fill:#dee7f1;}.cls-59{fill:#dde6f1;}.cls-60{fill:#dce6f1;}.cls-61{fill:#dce5f0;}.cls-62{fill:#dbe4f0;}.cls-63{fill:#dae4f0;}.cls-64{fill:#d9e3ef;}.cls-65{fill:#d8e3ef;}.cls-66{fill:#d7e2ef;}.cls-67{fill:#d7e1ee;}.cls-68{fill:#d6e1ee;}.cls-69{fill:#d5e0ee;}.cls-70{fill:#d4e0ed;}.cls-71{fill:#d3dfed;}.cls-72{fill:#d2deed;}.cls-73{fill:#d2deec;}.cls-74{fill:#d1ddec;}.cls-75{fill:#d0dcec;}.cls-76{fill:#cfdceb;}.cls-77{fill:#cedbeb;}.cls-78{fill:#cddbeb;}.cls-79{fill:#ccdaea;}.cls-80{fill:#ccd9ea;}.cls-81{fill:#cbd9e9;}.cls-82{fill:#cad8e9;}.cls-83{fill:#c9d7e9;}.cls-84{fill:#c8d7e8;}.cls-85{fill:#c7d6e8;}.cls-86{fill:#c6d5e8;}.cls-87{fill:#c5d5e7;}.cls-88{fill:#c4d4e7;}.cls-89{fill:#c3d3e6;}.cls-90{fill:#c2d3e6;}.cls-91{fill:#c1d2e6;}.cls-92{fill:#c1d1e5;}.cls-93{fill:#c0d1e5;}.cls-94{fill:#bfd0e5;}.cls-95{fill:#becfe4;}.cls-96{fill:#bdcee4;}.cls-97{fill:#bccee3;}.cls-98{fill:#bbcde3;}.cls-99{fill:#bacce3;}.cls-100{fill:#b9cce2;}.cls-101{fill:#b8cbe2;}.cls-102{fill:#b7cae1;}.cls-103{fill:#b6c9e1;}.cls-104{fill:#b5c9e1;}.cls-105{fill:#b4c8e0;}.cls-106{fill:#b3c7e0;}.cls-107{fill:#b2c7df;}.cls-108{fill:#b1c6df;}.cls-109{fill:#b0c5de;}.cls-110{fill:#afc4de;}.cls-111{fill:#aec4de;}.cls-112{fill:#adc3dd;}.cls-113{fill:#acc2dd;}.cls-114{fill:#abc1dc;}.cls-115{fill:#aac1dc;}.cls-116{fill:#a9c0dc;}.cls-117{fill:#a8bfdb;}.cls-118{fill:#a7bedb;}.cls-119{fill:#a6beda;}.cls-120{fill:#a5bdda;}.cls-121{fill:#a4bcd9;}.cls-122{fill:#a3bbd9;}.cls-123{fill:#a1bad8;}.cls-124{fill:#a0bad8;}.cls-125{fill:#9fb9d8;}.cls-126{fill:#9eb8d7;}.cls-127{fill:#9db7d7;}.cls-128{fill:#9cb6d6;}.cls-129{fill:#9bb6d6;}.cls-130{fill:#9ab5d5;}.cls-131{fill:#99b4d5;}.cls-132{fill:#98b3d4;}.cls-133{fill:#97b2d4;}.cls-134{fill:#96b2d4;}.cls-135{fill:#94b1d3;}.cls-136{fill:#93b0d3;}.cls-137{fill:#92afd2;}.cls-138{fill:#91aed2;}.cls-139{fill:#90aed1;}.cls-140{fill:#8fadd1;}.cls-141{fill:#8eacd0;}.cls-142{fill:#8dabd0;}.cls-143{fill:#8caacf;}.cls-144{fill:#8aa9cf;}.cls-145{fill:#89a9cf;}.cls-146{fill:#88a8ce;}.cls-147{fill:#87a7ce;}.cls-148{fill:#86a6cd;}.cls-149{fill:#85a5cd;}.cls-150{fill:#84a4cc;}.cls-151{fill:#82a4cc;}.cls-152{fill:#81a3cb;}.cls-153{fill:#80a2cb;}.cls-154{fill:#7fa1ca;}.cls-155{fill:#7ea0ca;}.cls-156{fill:#7d9fc9;}.cls-157{fill:#7b9ec9;}.cls-158{fill:#7a9ec8;}.cls-159{fill:#799dc8;}.cls-160{fill:#789cc7;}.cls-161{fill:#779bc7;}.cls-162{fill:#759ac6;}.cls-163{fill:#7499c6;}.cls-164{fill:#7398c5;}.cls-165{fill:#7297c5;}.cls-166{fill:#7197c4;}.cls-167{fill:#6f96c4;}.cls-168{fill:#6e95c3;}.cls-169{fill:#6d94c3;}.cls-170{fill:#6c93c2;}.cls-171{fill:#6b92c2;}.cls-172{fill:#6991c1;}.cls-173{fill:#6890c1;}.cls-174{fill:#678fc0;}.cls-175{fill:#668fc0;}.cls-176{fill:#648ebf;}.cls-177{fill:#638dbf;}.cls-178{fill:#628cbe;}.cls-179{fill:#618bbe;}.cls-180{fill:#5f8abd;}.cls-181{fill:#5e89bd;}.cls-182{fill:#5d88bc;}.cls-183{fill:#5c87bc;}.cls-184{fill:#5a86bb;}.cls-185{fill:#5985bb;}.cls-186{fill:#5884ba;}.cls-187{fill:#5784ba;}.cls-188{fill:#5583b9;}.cls-189{fill:#5482b9;}.cls-190{fill:#5381b8;}.cls-191{fill:#5280b8;}.cls-192{fill:#507fb7;}.cls-193{fill:#4f7eb7;}.cls-194{fill:#4e7db6;}.cls-195{fill:#4c7cb5;}.cls-196{fill:#4b7bb5;}.cls-197{fill:#4a7ab4;}.cls-198{fill:#4979b4;}.cls-199{fill:#4778b3;}.cls-200{fill:#4677b3;}.cls-201{fill:#4576b2;}.cls-202{fill:#4375b2;}.cls-203{fill:#4274b1;}.cls-204{fill:#4173b1;}.cls-205{fill:#3f72b0;}.cls-206{fill:#3e72b0;}.cls-207{fill:#3d71af;}.cls-208{fill:#3b70ae;}.cls-209{fill:#3a6fae;}.cls-210{fill:#396ead;}.cls-211{fill:#376dad;}.cls-212{fill:#366cac;}.cls-213{fill:#356bac;}.cls-214{fill:#336aab;}.cls-215{fill:#3269ab;}.cls-216{fill:#3168aa;}.cls-217{fill:#2f67aa;}.cls-218{fill:#2e66a9;}.cls-219{fill:#2d65a8;}.cls-220{fill:#2b64a8;}.cls-221{fill:#2a63a7;}.cls-222{fill:#2962a7;}.cls-223{fill:#2761a6;}.cls-224{fill:#2660a6;}.cls-225{fill:#255fa5;}.cls-226{fill:#235ea4;}.cls-227{fill:#225da4;}.cls-228{fill:#205ca3;}.cls-229{fill:#1f5ba3;}.cls-230{fill:#1e5aa2;}.cls-231{fill:#1c59a2;}.cls-232{fill:#1b58a1;}.cls-233{fill:#1957a0;}.cls-234{fill:#1856a0;}.cls-235{fill:#17559f;}.cls-236{fill:#15549f;}.cls-237{fill:#14539e;}.cls-238{fill:#12529e;}.cls-239{fill:#11519d;}.cls-240{fill:#104f9c;}.cls-241{fill:#0e4e9c;}.cls-242{fill:#0d4d9b;}.cls-243{fill:#0b4c9b;}.cls-244{fill:#0a4b9a;}.cls-245{fill:#094a9a;}.cls-246{fill:#074999;}.cls-247{fill:#064898;}.cls-248{fill:#044798;}.cls-249{fill:#034697;}.cls-250{fill:#014597;}.cls-251{fill:#004496;}.cls-252{opacity:0.4;}.cls-253{fill:#041860;opacity:0.2;}.cls-254{fill:url(#Áåçûìÿííûé_ãðàäèåíò_5-2);}.cls-255{fill:url(#Áåçûìÿííûé_ãðàäèåíò_5-3);}.cls-256{fill:url(#Áåçûìÿííûé_ãðàäèåíò_5-4);}.cls-257{fill:url(#Áåçûìÿííûé_ãðàäèåíò_5-5);}.cls-258{fill:#dde1ed;}.cls-259{fill:url(#Áåçûìÿííûé_ãðàäèåíò_9);}.cls-260{fill:url(#Áåçûìÿííûé_ãðàäèåíò_9-2);}.cls-261{fill:url(#Áåçûìÿííûé_ãðàäèåíò_7);}.cls-262{fill:url(#Áåçûìÿííûé_ãðàäèåíò_17);}</style><linearGradient id="Áåçûìÿííûé_ãðàäèåíò_10" x1="15.85" y1="121.86" x2="213.89" y2="226.21" gradientUnits="userSpaceOnUse"><stop offset="0" stop-color="#3a9bd5"/><stop offset="0.31" stop-color="#3a9bd5"/><stop offset="0.36" stop-color="#3a9bd5"/><stop offset="0.6" stop-color="#3999d4"/><stop offset="0.69" stop-color="#3592cf"/><stop offset="0.75" stop-color="#2f86c7"/><stop offset="0.8" stop-color="#2676bc"/><stop offset="0.81" stop-color="#2573ba"/></linearGradient><linearGradient id="Áåçûìÿííûé_ãðàäèåíò_5" x1="1770.42" y1="-434.01" x2="1900.88" y2="-365.28" gradientTransform="matrix(1, -0.58, 0.87, 0.5, -1373.29, 1427.58)" gradientUnits="userSpaceOnUse"><stop offset="0" stop-color="#59bdef"/><stop offset="1" stop-color="#7bdaff"/></linearGradient><clipPath id="clip-path"><polygon class="cls-1" points="183.36 183.58 151.62 204.63 48.7 153.44 80.44 132.39 183.36 183.58"/></clipPath><linearGradient id="Áåçûìÿííûé_ãðàäèåíò_5-2" x1="2077.56" y1="-1070.39" x2="1886.8" y2="-1094.68" gradientTransform="matrix(1, -0.58, 0.87, 0.5, -907.81, 1757.4)" xlink:href="#Áåçûìÿííûé_ãðàäèåíò_5"/><linearGradient id="Áåçûìÿííûé_ãðàäèåíò_5-3" x1="158.49" y1="144.5" x2="125.22" y2="162.41" gradientTransform="matrix(1, 0, 0, 1, 0, 0)" xlink:href="#Áåçûìÿííûé_ãðàäèåíò_5"/><linearGradient id="Áåçûìÿííûé_ãðàäèåíò_5-4" x1="56.06" y1="30.67" x2="17.83" y2="43.52" gradientTransform="matrix(1, 0, 0, 1, 0, 0)" xlink:href="#Áåçûìÿííûé_ãðàäèåíò_5"/><linearGradient id="Áåçûìÿííûé_ãðàäèåíò_5-5" x1="40.28" y1="98.08" x2="191.29" y2="98.08" gradientTransform="matrix(1, 0, 0, 1, 0, 0)" xlink:href="#Áåçûìÿííûé_ãðàäèåíò_5"/><linearGradient id="Áåçûìÿííûé_ãðàäèåíò_9" x1="-4645.22" y1="-190.92" x2="-4672.56" y2="-220.56" gradientTransform="matrix(-0.85, 0.49, 0.92, 0.53, -3607.18, 2612.25)" gradientUnits="userSpaceOnUse"><stop offset="0.77" stop-color="#59bdef"/><stop offset="0.85" stop-color="#55b8eb"/><stop offset="0.93" stop-color="#49abe1"/><stop offset="1" stop-color="#3a9bd5"/></linearGradient><linearGradient id="Áåçûìÿííûé_ãðàäèåíò_9-2" x1="-2753.21" y1="-190.65" x2="-2780.54" y2="-220.28" gradientTransform="matrix(0.85, -0.49, 0.92, 0.53, 2741.41, -1064.73)" xlink:href="#Áåçûìÿííûé_ãðàäèåíò_9"/><linearGradient id="Áåçûìÿííûé_ãðàäèåíò_7" x1="-4681.06" y1="-171.97" x2="-4681.06" y2="-216.97" gradientTransform="matrix(-0.85, 0.49, 0.92, 0.53, -3607.18, 2612.25)" gradientUnits="userSpaceOnUse"><stop offset="0.77" stop-color="#3a9bd5"/><stop offset="0.84" stop-color="#3896d2"/><stop offset="0.92" stop-color="#3189c9"/><stop offset="1" stop-color="#2573ba"/></linearGradient><linearGradient id="Áåçûìÿííûé_ãðàäèåíò_17" x1="-4697" y1="-237.38" x2="-4657.24" y2="-216.3" gradientTransform="matrix(-0.85, 0.49, 0.92, 0.53, -3607.18, 2612.25)" gradientUnits="userSpaceOnUse"><stop offset="0" stop-color="#7bdaff"/><stop offset="1" stop-color="#59bdef"/></linearGradient></defs><title>Asset 1</title><g class="cls-2"><g id="Layer_2" data-name="Layer 2"><g id="Ñëîé_1" data-name="Ñëîé 1"><path class="cls-3" d="M230.91,219.83l-68.54,39.59c-3.06,1.77-7.69,2-10.34.43L1.79,173.11c-2.65-1.53-2.32-4.2.74-6l68.54-39.59c3.07-1.77,7.7-2,10.35-.43l150.24,86.74C234.31,215.39,234,218.07,230.91,219.83Z"/><path class="cls-4" d="M233.45,190.72l-14.13-2.45L81.42,108.65c-2.65-1.53-7.28-1.34-10.35.43L7.19,146,0,144.72V152H0a3,3,0,0,0,1.78,2.61L152,241.38c2.65,1.53,7.28,1.33,10.34-.43l68.54-39.59c1.7-1,2.56-2.24,2.53-3.43h0Z"/><path class="cls-5" d="M230.91,194.1l-68.54,39.59c-3.06,1.77-7.69,2-10.34.43L1.79,147.38c-2.65-1.53-2.32-4.21.74-6l68.54-39.59c3.07-1.77,7.7-2,10.35-.43l150.24,86.74C234.31,189.66,234,192.33,230.91,194.1Z"/><path class="cls-6" d="M230.91,193.17l-68.54,39.59c-3.06,1.76-7.69,2-10.34.42L1.79,146.45a3.3,3.3,0,0,1-1.74-2.12,2.91,2.91,0,0,0,1.74,3L152,234.12c2.65,1.53,7.28,1.34,10.34-.43l68.54-39.59c1.91-1.1,2.75-2.55,2.49-3.86A4.68,4.68,0,0,1,230.91,193.17Z"/><polygon class="cls-7" points="231.02 187.76 151.39 233.75 2.43 147.75 82.06 101.76 231.02 187.76"/><path class="cls-8" d="M47.08,119.76,36.5,125.87a1.74,1.74,0,0,1-1.55.06l-.11-.06c-.4-.23-.35-.63.11-.89l10.58-6.11a1.71,1.71,0,0,1,1.55-.07l.11.07C47.59,119.1,47.54,119.5,47.08,119.76Z"/><g class="cls-9"><g class="cls-10"><rect class="cls-6" x="48.7" y="132.39" width="134.66" height="72.24"/><ellipse class="cls-6" cx="116.01" cy="168.23" rx="16" ry="54.11" transform="translate(-85.72 200.87) rotate(-64.6)"/><ellipse class="cls-6" cx="116.01" cy="168.23" rx="15.93" ry="53.89" transform="translate(-85.72 200.87) rotate(-64.6)"/><ellipse class="cls-6" cx="116.01" cy="168.23" rx="15.87" ry="53.68" transform="translate(-85.72 200.87) rotate(-64.6)"/><ellipse class="cls-6" cx="116.01" cy="168.23" rx="15.81" ry="53.47" transform="translate(-85.72 200.87) rotate(-64.6)"/><ellipse class="cls-11" cx="116.01" cy="168.23" rx="15.74" ry="53.26" transform="translate(-85.72 200.87) rotate(-64.6)"/><ellipse class="cls-12" cx="116.01" cy="168.23" rx="15.68" ry="53.05" transform="translate(-85.72 200.87) rotate(-64.6)"/><ellipse class="cls-12" cx="116.01" cy="168.23" rx="15.62" ry="52.83" transform="translate(-85.72 200.87) rotate(-64.6)"/><ellipse class="cls-13" cx="116.01" cy="168.23" rx="15.56" ry="52.62" transform="translate(-85.72 200.87) rotate(-64.6)"/><ellipse class="cls-14" cx="116.01" cy="168.23" rx="15.49" ry="52.41" transform="translate(-85.72 200.87) rotate(-64.6)"/><ellipse class="cls-15" cx="116.01" cy="168.23" rx="15.43" ry="52.2" transform="translate(-85.72 200.87) rotate(-64.6)"/><ellipse class="cls-15" cx="116.01" cy="168.23" rx="15.37" ry="51.98" transform="translate(-85.72 200.87) rotate(-64.6)"/><ellipse class="cls-16" cx="116.01" cy="168.23" rx="15.31" ry="51.77" transform="translate(-85.72 200.87) rotate(-64.6)"/><path class="cls-16" d="M162.59,190.34C159,198,135.2,194.21,109.47,182s-43.65-28.28-40-35.89,27.39-3.87,53.12,8.35S166.2,182.74,162.59,190.34Z"/><ellipse class="cls-17" cx="116.01" cy="168.23" rx="15.18" ry="51.35" transform="translate(-85.72 200.87) rotate(-64.6)"/><ellipse class="cls-18" cx="116.01" cy="168.23" rx="15.12" ry="51.14" transform="translate(-85.72 200.87) rotate(-64.6)"/><ellipse class="cls-18" cx="116.01" cy="168.23" rx="15.05" ry="50.92" transform="translate(-85.72 200.87) rotate(-64.6)"/><ellipse class="cls-19" cx="116.01" cy="168.23" rx="14.99" ry="50.71" transform="translate(-85.72 200.87) rotate(-64.6)"/><ellipse class="cls-19" cx="116.01" cy="168.23" rx="14.93" ry="50.5" transform="translate(-85.72 200.87) rotate(-64.6)"/><ellipse class="cls-20" cx="116.01" cy="168.23" rx="14.87" ry="50.29" transform="translate(-85.72 200.87) rotate(-64.6)"/><ellipse class="cls-21" cx="116.01" cy="168.23" rx="14.8" ry="50.07" transform="translate(-85.72 200.87) rotate(-64.6)"/><ellipse class="cls-22" cx="116.01" cy="168.23" rx="14.74" ry="49.86" transform="translate(-85.72 200.87) rotate(-64.6)"/><ellipse class="cls-22" cx="116.01" cy="168.23" rx="14.68" ry="49.65" transform="translate(-85.72 200.87) rotate(-64.6)"/><ellipse class="cls-23" cx="116.01" cy="168.23" rx="14.62" ry="49.44" transform="translate(-85.72 200.87) rotate(-64.6)"/><ellipse class="cls-23" cx="116.01" cy="168.23" rx="14.55" ry="49.23" transform="translate(-85.72 200.87) rotate(-64.6)"/><ellipse class="cls-24" cx="116.01" cy="168.23" rx="14.49" ry="49.01" transform="translate(-85.72 200.87) rotate(-64.6)"/><ellipse class="cls-25" cx="116.01" cy="168.23" rx="14.43" ry="48.8" transform="translate(-85.72 200.87) rotate(-64.6)"/><ellipse class="cls-26" cx="116.01" cy="168.23" rx="14.36" ry="48.59" transform="translate(-85.72 200.87) rotate(-64.6)"/><ellipse class="cls-27" cx="116.01" cy="168.23" rx="14.3" ry="48.38" transform="translate(-85.72 200.87) rotate(-64.6)"/><ellipse class="cls-28" cx="116.01" cy="168.23" rx="14.24" ry="48.16" transform="translate(-85.72 200.87) rotate(-64.6)"/><ellipse class="cls-29" cx="116.01" cy="168.23" rx="14.18" ry="47.95" transform="translate(-85.72 200.87) rotate(-64.6)"/><ellipse class="cls-30" cx="116.01" cy="168.23" rx="14.11" ry="47.74" transform="translate(-85.72 200.87) rotate(-64.6)"/><ellipse class="cls-31" cx="116.01" cy="168.23" rx="14.05" ry="47.53" transform="translate(-85.72 200.87) rotate(-64.6)"/><ellipse class="cls-32" cx="116.01" cy="168.23" rx="13.99" ry="47.32" transform="translate(-85.72 200.87) rotate(-64.6)"/><ellipse class="cls-33" cx="116.01" cy="168.23" rx="13.93" ry="47.1" transform="translate(-85.72 200.87) rotate(-64.6)"/><ellipse class="cls-34" cx="116.01" cy="168.23" rx="13.86" ry="46.89" transform="translate(-85.72 200.87) rotate(-64.6)"/><ellipse class="cls-35" cx="116.01" cy="168.23" rx="13.8" ry="46.68" transform="translate(-85.72 200.87) rotate(-64.6)"/><ellipse class="cls-36" cx="116.01" cy="168.23" rx="13.74" ry="46.47" transform="translate(-85.72 200.87) rotate(-64.6)"/><ellipse class="cls-37" cx="116.01" cy="168.23" rx="13.67" ry="46.26" transform="translate(-85.72 200.87) rotate(-64.6)"/><ellipse class="cls-38" cx="116.01" cy="168.23" rx="13.61" ry="46.04" transform="translate(-85.72 200.87) rotate(-64.6)"/><ellipse class="cls-39" cx="116.01" cy="168.23" rx="13.55" ry="45.83" transform="translate(-85.72 200.87) rotate(-64.6)"/><path class="cls-40" d="M157.22,187.79c-3.2,6.73-24.24,3.43-47-7.38s-38.62-25-35.43-31.75,24.23-3.42,47,7.39S160.41,181.07,157.22,187.79Z"/><ellipse class="cls-41" cx="116.01" cy="168.23" rx="13.42" ry="45.41" transform="translate(-85.72 200.87) rotate(-64.6)"/><ellipse class="cls-41" cx="116.01" cy="168.23" rx="13.36" ry="45.19" transform="translate(-85.72 200.87) rotate(-64.6)"/><ellipse class="cls-42" cx="116.01" cy="168.23" rx="13.3" ry="44.98" transform="translate(-85.72 200.87) rotate(-64.6)"/><ellipse class="cls-43" cx="116.01" cy="168.23" rx="13.24" ry="44.77" transform="translate(-85.72 200.87) rotate(-64.6)"/><ellipse class="cls-44" cx="116.01" cy="168.23" rx="13.17" ry="44.56" transform="translate(-85.72 200.87) rotate(-64.6)"/><ellipse class="cls-45" cx="116.01" cy="168.23" rx="13.11" ry="44.35" transform="translate(-85.72 200.87) rotate(-64.6)"/><ellipse class="cls-46" cx="116.01" cy="168.23" rx="13.05" ry="44.13" transform="translate(-85.72 200.87) rotate(-64.6)"/><ellipse class="cls-47" cx="116.01" cy="168.23" rx="12.98" ry="43.92" transform="translate(-85.72 200.87) rotate(-64.6)"/><path class="cls-48" d="M155.49,187c-3.06,6.44-23.22,3.27-45-7.08s-37-24-33.94-30.42,23.22-3.28,45,7.07S158.56,180.53,155.49,187Z"/><ellipse class="cls-49" cx="116.01" cy="168.23" rx="12.86" ry="43.5" transform="translate(-85.72 200.87) rotate(-64.6)"/><ellipse class="cls-50" cx="116.01" cy="168.23" rx="12.8" ry="43.28" transform="translate(-85.72 200.87) rotate(-64.6)"/><ellipse class="cls-50" cx="116.01" cy="168.23" rx="12.73" ry="43.07" transform="translate(-85.72 200.87) rotate(-64.6)"/><ellipse class="cls-51" cx="116.01" cy="168.23" rx="12.67" ry="42.86" transform="translate(-85.72 200.87) rotate(-64.6)"/><ellipse class="cls-52" cx="116.01" cy="168.23" rx="12.61" ry="42.65" transform="translate(-85.72 200.87) rotate(-64.6)"/><ellipse class="cls-53" cx="116.01" cy="168.23" rx="12.55" ry="42.44" transform="translate(-85.72 200.87) rotate(-64.6)"/><ellipse class="cls-53" cx="116.01" cy="168.23" rx="12.48" ry="42.22" transform="translate(-85.72 200.87) rotate(-64.6)"/><ellipse class="cls-54" cx="116.01" cy="168.23" rx="12.42" ry="42.01" transform="translate(-85.72 200.87) rotate(-64.6)"/><ellipse class="cls-55" cx="116.01" cy="168.23" rx="12.36" ry="41.8" transform="translate(-85.72 200.87) rotate(-64.6)"/><ellipse class="cls-56" cx="116.01" cy="168.23" rx="12.29" ry="41.59" transform="translate(-85.72 200.87) rotate(-64.6)"/><path class="cls-57" d="M153.39,186c-2.9,6.11-22,3.11-42.63-6.69s-35-22.7-32.13-28.8,22-3.1,42.63,6.7S156.28,179.87,153.39,186Z"/><ellipse class="cls-58" cx="116.01" cy="168.23" rx="12.17" ry="41.16" transform="translate(-85.72 200.87) rotate(-64.6)"/><path class="cls-59" d="M153,185.79c-2.87,6-21.75,3.07-42.18-6.63S76.15,156.7,79,150.66s21.75-3.07,42.18,6.63S155.87,179.75,153,185.79Z"/><ellipse class="cls-60" cx="116.01" cy="168.23" rx="12.04" ry="40.74" transform="translate(-85.72 200.87) rotate(-64.6)"/><ellipse class="cls-61" cx="116.01" cy="168.23" rx="11.98" ry="40.53" transform="translate(-85.72 200.87) rotate(-64.6)"/><ellipse class="cls-62" cx="116.01" cy="168.23" rx="11.92" ry="40.31" transform="translate(-85.72 200.87) rotate(-64.6)"/><path class="cls-63" d="M152.24,185.43c-2.81,5.91-21.31,3-41.32-6.49S77,156.94,79.78,151s21.31-3,41.31,6.49S155,179.51,152.24,185.43Z"/><ellipse class="cls-64" cx="116.01" cy="168.23" rx="11.79" ry="39.89" transform="translate(-85.72 200.87) rotate(-64.6)"/><path class="cls-65" d="M151.85,185.25c-2.78,5.85-21.08,3-40.87-6.43s-33.59-21.76-30.81-27.61,21.08-3,40.87,6.42S154.63,179.39,151.85,185.25Z"/><ellipse class="cls-66" cx="116.01" cy="168.23" rx="11.67" ry="39.47" transform="translate(-85.72 200.87) rotate(-64.6)"/><ellipse class="cls-67" cx="116.01" cy="168.23" rx="11.6" ry="39.25" transform="translate(-85.72 200.87) rotate(-64.6)"/><ellipse class="cls-68" cx="116.01" cy="168.23" rx="11.54" ry="39.04" transform="translate(-85.72 200.87) rotate(-64.6)"/><ellipse class="cls-69" cx="116.01" cy="168.23" rx="11.48" ry="38.83" transform="translate(-85.72 200.87) rotate(-64.6)"/><path class="cls-70" d="M150.89,184.79c-2.7,5.7-20.51,2.9-39.78-6.25s-32.69-21.18-30-26.88,20.51-2.89,39.78,6.25S153.6,179.1,150.89,184.79Z"/><ellipse class="cls-71" cx="116.01" cy="168.23" rx="11.35" ry="38.4" transform="translate(-85.72 200.87) rotate(-64.6)"/><ellipse class="cls-72" cx="116.01" cy="168.23" rx="11.29" ry="38.19" transform="translate(-85.72 200.87) rotate(-64.6)"/><path class="cls-73" d="M150.32,184.52c-2.66,5.6-20.18,2.85-39.13-6.15S79,157.54,81.7,151.94s20.18-2.85,39.13,6.14S153,178.92,150.32,184.52Z"/><ellipse class="cls-74" cx="116.01" cy="168.23" rx="11.17" ry="37.77" transform="translate(-85.72 200.87) rotate(-64.6)"/><path class="cls-75" d="M149.94,184.34c-2.63,5.54-20,2.81-38.69-6.08s-31.8-20.6-29.17-26.14,20-2.82,38.69,6.08S152.57,178.8,149.94,184.34Z"/><path class="cls-76" d="M149.74,184.24c-2.61,5.51-19.83,2.81-38.47-6s-31.61-20.48-29-26,19.83-2.8,38.46,6S152.36,178.74,149.74,184.24Z"/><ellipse class="cls-77" cx="116.01" cy="168.23" rx="10.98" ry="37.13" transform="translate(-85.72 200.87) rotate(-64.6)"/><ellipse class="cls-78" cx="116.01" cy="168.23" rx="10.91" ry="36.92" transform="translate(-85.72 200.87) rotate(-64.6)"/><path class="cls-79" d="M149.17,184c-2.57,5.42-19.5,2.76-37.81-5.94S80.28,157.9,82.85,152.48s19.5-2.75,37.81,5.94S151.74,178.56,149.17,184Z"/><ellipse class="cls-80" cx="116.01" cy="168.23" rx="10.79" ry="36.49" transform="translate(-85.72 200.87) rotate(-64.6)"/><ellipse class="cls-81" cx="116.01" cy="168.23" rx="10.73" ry="36.28" transform="translate(-85.72 200.87) rotate(-64.6)"/><ellipse class="cls-82" cx="116.01" cy="168.23" rx="10.66" ry="36.07" transform="translate(-85.72 200.87) rotate(-64.6)"/><ellipse class="cls-83" cx="116.01" cy="168.23" rx="10.6" ry="35.86" transform="translate(-85.72 200.87) rotate(-64.6)"/><path class="cls-84" d="M148.21,183.52c-2.5,5.25-18.94,2.67-36.72-5.77S81.31,158.2,83.81,152.94s18.94-2.68,36.72,5.77S150.71,178.26,148.21,183.52Z"/><ellipse class="cls-85" cx="116.01" cy="168.23" rx="10.48" ry="35.43" transform="translate(-85.72 200.87) rotate(-64.6)"/><ellipse class="cls-86" cx="116.01" cy="168.23" rx="10.41" ry="35.22" transform="translate(-85.72 200.87) rotate(-64.6)"/><ellipse class="cls-87" cx="116.01" cy="168.23" rx="10.35" ry="35.01" transform="translate(-85.72 200.87) rotate(-64.6)"/><path class="cls-88" d="M147.44,183.15c-2.43,5.14-18.48,2.61-35.84-5.63s-29.46-19.09-27-24.22,18.48-2.61,35.84,5.63S149.88,178,147.44,183.15Z"/><ellipse class="cls-89" cx="116.01" cy="168.23" rx="10.22" ry="34.59" transform="translate(-85.72 200.87) rotate(-64.6)"/><path class="cls-90" d="M147.06,183c-2.41,5.07-18.26,2.58-35.41-5.56S82.55,158.55,85,153.48s18.26-2.57,35.41,5.57S149.47,177.9,147.06,183Z"/><ellipse class="cls-91" cx="116.01" cy="168.23" rx="10.1" ry="34.16" transform="translate(-85.72 200.87) rotate(-64.6)"/><path class="cls-92" d="M146.68,182.79c-2.38,5-18,2.55-35-5.5S83,158.67,85.34,153.67s18-2.55,35,5.49S149.05,177.78,146.68,182.79Z"/><ellipse class="cls-93" cx="116.01" cy="168.23" rx="9.97" ry="33.74" transform="translate(-85.72 200.87) rotate(-64.6)"/><ellipse class="cls-94" cx="116.01" cy="168.23" rx="9.91" ry="33.52" transform="translate(-85.72 200.87) rotate(-64.6)"/><ellipse class="cls-95" cx="116.01" cy="168.23" rx="9.85" ry="33.31" transform="translate(-85.72 200.87) rotate(-64.6)"/><ellipse class="cls-96" cx="116.01" cy="168.23" rx="9.79" ry="33.1" transform="translate(-85.72 200.87) rotate(-64.6)"/><ellipse class="cls-97" cx="116.01" cy="168.23" rx="9.72" ry="32.89" transform="translate(-85.72 200.87) rotate(-64.6)"/><path class="cls-98" d="M145.53,182.24c-2.29,4.82-17.36,2.45-33.66-5.29S84.2,159,86.49,154.21s17.36-2.45,33.66,5.29S147.82,177.42,145.53,182.24Z"/><ellipse class="cls-99" cx="116.01" cy="168.23" rx="9.6" ry="32.46" transform="translate(-85.72 200.87) rotate(-64.6)"/><ellipse class="cls-100" cx="116.01" cy="168.23" rx="9.53" ry="32.25" transform="translate(-85.72 200.87) rotate(-64.6)"/><path class="cls-101" d="M145,182c-2.24,4.73-17,2.4-33-5.19s-27.13-17.57-24.88-22.29,17-2.41,33,5.18S147.2,177.24,145,182Z"/><ellipse class="cls-102" cx="116.01" cy="168.23" rx="9.41" ry="31.83" transform="translate(-85.72 200.87) rotate(-64.6)"/><path class="cls-103" d="M144.57,181.79c-2.22,4.66-16.8,2.37-32.57-5.12s-26.76-17.34-24.55-22,16.8-2.37,32.57,5.11S146.78,177.12,144.57,181.79Z"/><ellipse class="cls-104" cx="116.01" cy="168.23" rx="9.28" ry="31.4" transform="translate(-85.72 200.87) rotate(-64.6)"/><ellipse class="cls-105" cx="116.01" cy="168.23" rx="9.22" ry="31.19" transform="translate(-85.72 200.87) rotate(-64.6)"/><ellipse class="cls-106" cx="116.01" cy="168.23" rx="9.16" ry="30.98" transform="translate(-85.72 200.87) rotate(-64.6)"/><path class="cls-107" d="M143.8,181.42c-2.15,4.54-16.34,2.31-31.69-5s-26-16.87-23.89-21.41,16.34-2.31,31.69,5S146,176.89,143.8,181.42Z"/><ellipse class="cls-108" cx="116.01" cy="168.23" rx="9.03" ry="30.55" transform="translate(-85.72 200.87) rotate(-64.6)"/><ellipse class="cls-109" cx="116.01" cy="168.23" rx="8.97" ry="30.34" transform="translate(-85.72 200.87) rotate(-64.6)"/><ellipse class="cls-110" cx="116.01" cy="168.23" rx="8.91" ry="30.13" transform="translate(-85.72 200.87) rotate(-64.6)"/><ellipse class="cls-111" cx="116.01" cy="168.23" rx="8.84" ry="29.92" transform="translate(-85.72 200.87) rotate(-64.6)"/><path class="cls-112" d="M142.84,181c-2.08,4.38-15.78,2.23-30.6-4.81S87.1,159.87,89.18,155.49s15.78-2.23,30.6,4.8S144.92,176.59,142.84,181Z"/><path class="cls-113" d="M142.65,180.88c-2.06,4.35-15.67,2.21-30.38-4.78s-25-16.17-22.9-20.52,15.67-2.21,30.38,4.77S144.72,176.53,142.65,180.88Z"/><ellipse class="cls-114" cx="116.01" cy="168.23" rx="8.66" ry="29.28" transform="translate(-85.72 200.87) rotate(-64.6)"/><ellipse class="cls-115" cx="116.01" cy="168.23" rx="8.59" ry="29.07" transform="translate(-85.72 200.87) rotate(-64.6)"/><ellipse class="cls-116" cx="116.01" cy="168.23" rx="8.53" ry="28.86" transform="translate(-85.72 200.87) rotate(-64.6)"/><ellipse class="cls-117" cx="116.01" cy="168.23" rx="8.47" ry="28.64" transform="translate(-85.72 200.87) rotate(-64.6)"/><path class="cls-118" d="M141.69,180.42c-2,4.2-15.1,2.14-29.29-4.6S88.33,160.23,90.33,156s15.1-2.13,29.28,4.6S143.68,176.23,141.69,180.42Z"/><ellipse class="cls-119" cx="116.01" cy="168.23" rx="8.34" ry="28.22" transform="translate(-85.72 200.87) rotate(-64.6)"/><path class="cls-120" d="M141.31,180.24c-2,4.13-14.88,2.1-28.85-4.53s-23.71-15.36-21.75-19.5,14.88-2.1,28.85,4.54S143.27,176.11,141.31,180.24Z"/><ellipse class="cls-121" cx="116.01" cy="168.23" rx="8.22" ry="27.8" transform="translate(-85.72 200.87) rotate(-64.6)"/><ellipse class="cls-122" cx="116.01" cy="168.23" rx="8.15" ry="27.58" transform="translate(-85.72 200.87) rotate(-64.6)"/><path class="cls-123" d="M140.74,180c-1.92,4-14.55,2.05-28.2-4.43s-23.17-15-21.26-19,14.54-2.06,28.2,4.43S142.65,175.93,140.74,180Z"/><path class="cls-124" d="M140.54,179.88c-1.9,4-14.42,2-28-4.4s-23-14.9-21.09-18.9,14.42-2,28,4.39S142.45,175.87,140.54,179.88Z"/><ellipse class="cls-125" cx="116.01" cy="168.23" rx="7.97" ry="26.95" transform="translate(-85.72 200.87) rotate(-64.6)"/><path class="cls-126" d="M140.16,179.69c-1.87,3.95-14.2,2-27.54-4.32S90,160.7,91.86,156.76s14.2-2,27.54,4.33S142,175.75,140.16,179.69Z"/><ellipse class="cls-127" cx="116.01" cy="168.23" rx="7.84" ry="26.52" transform="translate(-85.72 200.87) rotate(-64.6)"/><path class="cls-128" d="M139.78,179.51c-1.85,3.88-14,2-27.11-4.26S90.4,160.82,92.24,156.94s14-2,27.11,4.26S141.62,175.63,139.78,179.51Z"/><path class="cls-129" d="M139.59,179.42c-1.83,3.85-13.87,2-26.89-4.22S90.61,160.88,92.43,157s13.87-1.95,26.89,4.23S141.41,175.57,139.59,179.42Z"/><path class="cls-130" d="M139.39,179.33c-1.81,3.82-13.75,1.94-26.66-4.19s-21.92-14.2-20.1-18,13.75-1.94,26.66,4.19S141.21,175.51,139.39,179.33Z"/><ellipse class="cls-131" cx="116.01" cy="168.23" rx="7.59" ry="25.67" transform="translate(-85.72 200.87) rotate(-64.6)"/><path class="cls-132" d="M139,179.15c-1.78,3.75-13.53,1.91-26.23-4.12s-21.55-14-19.77-17.72,13.53-1.91,26.23,4.12S140.79,175.39,139,179.15Z"/><ellipse class="cls-133" cx="116.01" cy="168.23" rx="7.46" ry="25.25" transform="translate(-85.72 200.87) rotate(-64.6)"/><path class="cls-134" d="M138.63,179c-1.76,3.69-13.3,1.87-25.79-4.06s-21.2-13.73-19.45-17.42,13.3-1.88,25.79,4S140.38,175.27,138.63,179Z"/><path class="cls-135" d="M138.44,178.88c-1.74,3.66-13.19,1.86-25.58-4s-21-13.62-19.28-17.28,13.19-1.86,25.58,4S140.17,175.21,138.44,178.88Z"/><ellipse class="cls-136" cx="116.01" cy="168.23" rx="7.28" ry="24.61" transform="translate(-85.72 200.87) rotate(-64.6)"/><path class="cls-137" d="M138.05,178.69c-1.71,3.6-13,1.83-25.13-3.95s-20.66-13.38-19-17,13-1.83,25.13,4S139.76,175.09,138.05,178.69Z"/><ellipse class="cls-138" cx="116.01" cy="168.23" rx="7.15" ry="24.19" transform="translate(-85.72 200.87) rotate(-64.6)"/><ellipse class="cls-139" cx="116.01" cy="168.23" rx="7.09" ry="23.98" transform="translate(-85.72 200.87) rotate(-64.6)"/><ellipse class="cls-140" cx="116.01" cy="168.23" rx="7.03" ry="23.76" transform="translate(-85.72 200.87) rotate(-64.6)"/><ellipse class="cls-141" cx="116.01" cy="168.23" rx="6.96" ry="23.55" transform="translate(-85.72 200.87) rotate(-64.6)"/><path class="cls-142" d="M137.09,178.24c-1.63,3.44-12.4,1.75-24-3.78s-19.76-12.8-18.12-16.24,12.39-1.75,24,3.77S138.73,174.8,137.09,178.24Z"/><ellipse class="cls-143" cx="116.01" cy="168.23" rx="6.84" ry="23.13" transform="translate(-85.72 200.87) rotate(-64.6)"/><ellipse class="cls-144" cx="116.01" cy="168.23" rx="6.77" ry="22.92" transform="translate(-85.72 200.87) rotate(-64.6)"/><path class="cls-145" d="M136.52,178c-1.59,3.34-12.06,1.7-23.39-3.68s-19.22-12.45-17.63-15.8,12.06-1.7,23.39,3.67S138.11,174.62,136.52,178Z"/><path class="cls-146" d="M136.33,177.87c-1.58,3.32-12,1.69-23.17-3.64s-19-12.33-17.47-15.65,12-1.69,23.17,3.64S137.9,174.56,136.33,177.87Z"/><ellipse class="cls-147" cx="116.01" cy="168.23" rx="6.59" ry="22.28" transform="translate(-85.72 200.87) rotate(-64.6)"/><ellipse class="cls-148" cx="116.01" cy="168.23" rx="6.52" ry="22.07" transform="translate(-85.72 200.87) rotate(-64.6)"/><path class="cls-149" d="M135.75,177.6c-1.53,3.22-11.61,1.64-22.51-3.54s-18.5-12-17-15.21,11.61-1.64,22.51,3.54S137.28,174.38,135.75,177.6Z"/><path class="cls-150" d="M135.56,177.51c-1.52,3.19-11.5,1.62-22.29-3.5s-18.33-11.87-16.81-15.07,11.5-1.62,22.29,3.51S137.08,174.32,135.56,177.51Z"/><ellipse class="cls-151" cx="116.01" cy="168.23" rx="6.34" ry="21.43" transform="translate(-85.72 200.87) rotate(-64.6)"/><path class="cls-152" d="M135.18,177.33c-1.49,3.13-11.27,1.59-21.86-3.44s-18-11.63-16.48-14.76,11.27-1.59,21.86,3.43S136.66,174.2,135.18,177.33Z"/><ellipse class="cls-153" cx="116.01" cy="168.23" rx="6.21" ry="21.01" transform="translate(-85.72 200.87) rotate(-64.6)"/><path class="cls-154" d="M134.79,177.15c-1.45,3.06-11,1.56-21.42-3.37s-17.6-11.4-16.14-14.47,11-1.56,21.42,3.36S136.25,174.08,134.79,177.15Z"/><path class="cls-155" d="M134.6,177.06c-1.44,3-10.93,1.54-21.2-3.34S96,162.44,97.42,159.4s10.93-1.54,21.2,3.33S136,174,134.6,177.06Z"/><ellipse class="cls-156" cx="116.01" cy="168.23" rx="6.02" ry="20.37" transform="translate(-85.72 200.87) rotate(-64.6)"/><path class="cls-157" d="M134.22,176.87c-1.41,3-10.71,1.52-20.77-3.26s-17.06-11.06-15.65-14,10.71-1.51,20.77,3.26S135.63,173.9,134.22,176.87Z"/><path class="cls-158" d="M134,176.78c-1.4,2.94-10.6,1.5-20.55-3.23S96.6,162.61,98,159.67s10.6-1.49,20.55,3.23S135.42,173.84,134,176.78Z"/><path class="cls-159" d="M133.84,176.69c-1.39,2.91-10.49,1.48-20.33-3.19S96.8,162.67,98.18,159.76s10.49-1.48,20.33,3.2S135.22,173.78,133.84,176.69Z"/><path class="cls-160" d="M133.64,176.6c-1.36,2.88-10.37,1.46-20.11-3.16S97,162.73,98.38,159.86s10.37-1.47,20.1,3.15S135,173.72,133.64,176.6Z"/><ellipse class="cls-161" cx="116.01" cy="168.23" rx="5.71" ry="19.31" transform="translate(-85.72 200.87) rotate(-64.6)"/><path class="cls-162" d="M133.26,176.42c-1.34,2.81-10.14,1.43-19.67-3.09S97.42,162.85,98.76,160s10.14-1.44,19.67,3.09S134.6,173.6,133.26,176.42Z"/><path class="cls-163" d="M133.07,176.33c-1.32,2.78-10,1.41-19.45-3.06s-16-10.36-14.67-13.14,10-1.42,19.45,3.05S134.39,173.54,133.07,176.33Z"/><ellipse class="cls-164" cx="116.01" cy="168.23" rx="5.52" ry="18.67" transform="translate(-85.72 200.87) rotate(-64.6)"/><path class="cls-165" d="M132.69,176.15c-1.3,2.72-9.81,1.38-19-3S98,163,99.33,160.31s9.81-1.38,19,3S134,173.42,132.69,176.15Z"/><path class="cls-166" d="M132.49,176.05c-1.27,2.7-9.69,1.37-18.79-3s-15.45-10-14.17-12.7,9.69-1.37,18.79,2.95S133.77,173.36,132.49,176.05Z"/><path class="cls-167" d="M132.3,176c-1.26,2.66-9.58,1.36-18.58-2.92s-15.27-9.89-14-12.55,9.58-1.35,18.58,2.92S133.56,173.3,132.3,176Z"/><path class="cls-168" d="M132.11,175.87c-1.25,2.63-9.47,1.34-18.36-2.88s-15.09-9.78-13.84-12.41,9.47-1.33,18.36,2.89S133.36,173.24,132.11,175.87Z"/><path class="cls-169" d="M131.92,175.78c-1.23,2.6-9.36,1.32-18.14-2.85s-14.91-9.66-13.68-12.26,9.36-1.32,18.14,2.85S133.15,173.18,131.92,175.78Z"/><path class="cls-170" d="M131.73,175.69c-1.22,2.57-9.25,1.31-17.93-2.82s-14.73-9.54-13.51-12.1,9.25-1.31,17.93,2.81S133,173.12,131.73,175.69Z"/><path class="cls-171" d="M131.54,175.6c-1.21,2.53-9.14,1.29-17.71-2.78s-14.55-9.43-13.35-12,9.13-1.29,17.71,2.78S132.74,173.06,131.54,175.6Z"/><ellipse class="cls-172" cx="116.01" cy="168.23" rx="5.02" ry="16.97" transform="translate(-85.72 200.87) rotate(-64.6)"/><path class="cls-173" d="M131.15,175.42c-1.17,2.47-8.9,1.25-17.27-2.72s-14.19-9.19-13-11.66,8.9-1.26,17.27,2.71S132.33,173,131.15,175.42Z"/><path class="cls-174" d="M131,175.33c-1.16,2.44-8.79,1.24-17.05-2.68s-14-9.08-12.85-11.52,8.79-1.24,17,2.68S132.12,172.89,131,175.33Z"/><path class="cls-175" d="M130.77,175.24c-1.15,2.4-8.68,1.22-16.83-2.65s-13.83-9-12.69-11.37,8.68-1.23,16.83,2.64S131.91,172.83,130.77,175.24Z"/><path class="cls-176" d="M130.58,175.14c-1.13,2.38-8.57,1.21-16.62-2.61s-13.65-8.84-12.52-11.22,8.57-1.21,16.61,2.61S131.71,172.77,130.58,175.14Z"/><ellipse class="cls-177" cx="116.01" cy="168.23" rx="4.7" ry="15.91" transform="translate(-85.72 200.87) rotate(-64.6)"/><path class="cls-178" d="M130.19,175c-1.1,2.32-8.34,1.18-16.17-2.54s-13.29-8.61-12.19-10.93,8.34-1.17,16.17,2.54S131.29,172.65,130.19,175Z"/><path class="cls-179" d="M130,174.87c-1.08,2.29-8.23,1.16-16-2.51s-13.12-8.49-12-10.78,8.23-1.16,16,2.51S131.09,172.59,130,174.87Z"/><path class="cls-180" d="M129.81,174.78c-1.07,2.25-8.12,1.15-15.74-2.47s-12.93-8.38-11.86-10.63,8.12-1.15,15.74,2.47S130.88,172.53,129.81,174.78Z"/><ellipse class="cls-181" cx="116.01" cy="168.23" rx="4.45" ry="15.06" transform="translate(-85.72 200.87) rotate(-64.6)"/><path class="cls-182" d="M129.43,174.6c-1,2.19-7.89,1.11-15.3-2.41s-12.58-8.14-11.54-10.33,7.89-1.12,15.3,2.4S130.47,172.41,129.43,174.6Z"/><path class="cls-183" d="M129.24,174.51c-1,2.16-7.78,1.1-15.09-2.37s-12.39-8-11.37-10.19,7.78-1.1,15.09,2.37S130.26,172.35,129.24,174.51Z"/><path class="cls-184" d="M129,174.42c-1,2.12-7.66,1.08-14.86-2.34S102,164.17,103,162s7.66-1.08,14.86,2.33S130.05,172.29,129,174.42Z"/><path class="cls-185" d="M128.85,174.33c-1,2.09-7.55,1.06-14.64-2.31s-12-7.79-11-9.89,7.55-1.07,14.64,2.3S129.85,172.23,128.85,174.33Z"/><path class="cls-186" d="M128.66,174.23c-1,2.07-7.44,1.05-14.43-2.26s-11.85-7.68-10.87-9.75,7.44-1.05,14.43,2.27S129.64,172.17,128.66,174.23Z"/><path class="cls-187" d="M128.47,174.14c-1,2-7.33,1-14.21-2.23s-11.67-7.56-10.71-9.6,7.33-1,14.21,2.23S129.43,172.11,128.47,174.14Z"/><path class="cls-188" d="M128.28,174.05c-1,2-7.22,1-14-2.2s-11.5-7.44-10.55-9.45,7.22-1,14,2.2S129.23,172.05,128.28,174.05Z"/><path class="cls-189" d="M128.09,174c-.94,2-7.11,1-13.78-2.16s-11.31-7.33-10.38-9.31,7.11-1,13.77,2.17S129,172,128.09,174Z"/><path class="cls-190" d="M127.89,173.87c-.92,1.94-7,1-13.55-2.13s-11.14-7.21-10.21-9.15,7-1,13.55,2.12S128.81,171.93,127.89,173.87Z"/><path class="cls-191" d="M127.7,173.78c-.9,1.91-6.87,1-13.33-2.1s-11-7.09-10.05-9,6.87-1,13.33,2.09S128.61,171.87,127.7,173.78Z"/><path class="cls-192" d="M127.51,173.69c-.89,1.88-6.76.95-13.11-2.06s-10.78-7-9.89-8.86,6.76-1,13.11,2.06S128.4,171.81,127.51,173.69Z"/><path class="cls-193" d="M127.32,173.6c-.88,1.84-6.65.94-12.9-2s-10.6-6.87-9.72-8.71,6.65-.94,12.9,2S128.2,171.75,127.32,173.6Z"/><path class="cls-194" d="M127.13,173.51c-.87,1.81-6.54.92-12.68-2S104,164.76,104.89,163s6.54-.92,12.68,2S128,171.69,127.13,173.51Z"/><path class="cls-195" d="M126.94,173.42c-.85,1.78-6.43.9-12.46-2s-10.24-6.64-9.4-8.42,6.43-.91,12.46,2S127.78,171.63,126.94,173.42Z"/><path class="cls-196" d="M126.74,173.32c-.83,1.76-6.31.9-12.24-1.92s-10.06-6.52-9.22-8.27,6.31-.89,12.24,1.92S127.58,171.57,126.74,173.32Z"/><path class="cls-197" d="M126.55,173.23c-.82,1.72-6.2.88-12-1.89s-9.88-6.4-9.06-8.12,6.2-.87,12,1.89S127.37,171.51,126.55,173.23Z"/><path class="cls-198" d="M126.36,173.14c-.8,1.69-6.09.86-11.8-1.85s-9.7-6.29-8.9-8,6.09-.86,11.8,1.86S127.16,171.45,126.36,173.14Z"/><path class="cls-199" d="M126.17,173.05c-.79,1.66-6,.84-11.59-1.82s-9.52-6.17-8.73-7.83,6-.84,11.59,1.82S127,171.39,126.17,173.05Z"/><path class="cls-200" d="M126,173c-.78,1.63-5.86.83-11.37-1.79s-9.34-6-8.57-7.67,5.86-.83,11.37,1.78S126.75,171.33,126,173Z"/><path class="cls-201" d="M125.78,172.87c-.75,1.6-5.74.81-11.14-1.75s-9.16-5.94-8.41-7.53,5.75-.82,11.15,1.75S126.54,171.27,125.78,172.87Z"/><path class="cls-202" d="M125.59,172.78c-.74,1.56-5.63.79-10.93-1.72s-9-5.82-8.23-7.38,5.63-.8,10.92,1.71S126.34,171.21,125.59,172.78Z"/><path class="cls-203" d="M125.4,172.69c-.73,1.53-5.52.78-10.71-1.69s-8.8-5.7-8.07-7.23,5.52-.78,10.71,1.68S126.13,171.15,125.4,172.69Z"/><path class="cls-204" d="M125.21,172.6c-.71,1.5-5.41.76-10.49-1.65s-8.62-5.59-7.91-7.09,5.41-.76,10.49,1.65S125.92,171.09,125.21,172.6Z"/><path class="cls-205" d="M125,172.51c-.7,1.47-5.3.74-10.27-1.62S106.3,165.42,107,164s5.3-.75,10.27,1.61S125.72,171,125,172.51Z"/><ellipse class="cls-206" cx="116.01" cy="168.23" rx="2.89" ry="9.76" transform="translate(-85.72 200.87) rotate(-64.6)"/><path class="cls-207" d="M124.63,172.32c-.66,1.41-5.07.72-9.83-1.54s-8.08-5.24-7.42-6.65,5.08-.71,9.84,1.55S125.3,170.91,124.63,172.32Z"/><path class="cls-208" d="M124.44,172.23c-.65,1.38-5,.7-9.61-1.51s-7.91-5.12-7.25-6.5,5-.7,9.61,1.51S125.1,170.86,124.44,172.23Z"/><path class="cls-209" d="M124.25,172.14c-.64,1.35-4.85.69-9.4-1.48s-7.72-5-7.08-6.35,4.84-.68,9.4,1.48S124.89,170.8,124.25,172.14Z"/><path class="cls-210" d="M124.06,172.05c-.62,1.31-4.73.67-9.18-1.44s-7.54-4.89-6.92-6.2,4.73-.67,9.18,1.44S124.68,170.74,124.06,172.05Z"/><path class="cls-211" d="M123.87,172c-.61,1.28-4.62.65-9-1.41s-7.37-4.77-6.76-6.05,4.62-.66,9,1.4S124.48,170.68,123.87,172Z"/><path class="cls-212" d="M123.68,171.87c-.6,1.25-4.51.63-8.75-1.38s-7.18-4.65-6.59-5.9,4.51-.64,8.75,1.37S124.27,170.62,123.68,171.87Z"/><path class="cls-213" d="M123.48,171.78c-.57,1.22-4.39.62-8.52-1.34s-7-4.54-6.43-5.76,4.4-.62,8.53,1.34S124.06,170.56,123.48,171.78Z"/><path class="cls-214" d="M123.29,171.69c-.56,1.19-4.28.6-8.3-1.31s-6.83-4.42-6.26-5.61,4.28-.61,8.3,1.3S123.86,170.5,123.29,171.69Z"/><path class="cls-215" d="M123.1,171.59c-.55,1.16-4.17.59-8.09-1.27s-6.64-4.3-6.09-5.46,4.17-.59,8.09,1.27S123.65,170.44,123.1,171.59Z"/><path class="cls-216" d="M122.91,171.5c-.54,1.13-4.06.58-7.87-1.23s-6.47-4.19-5.93-5.32,4.06-.57,7.87,1.24S123.44,170.38,122.91,171.5Z"/><path class="cls-217" d="M122.72,171.41c-.52,1.1-4,.56-7.65-1.2s-6.29-4.07-5.77-5.17,4-.55,7.65,1.2S123.24,170.32,122.72,171.41Z"/><ellipse class="cls-218" cx="116.01" cy="168.23" rx="2.13" ry="7.21" transform="translate(-85.72 200.87) rotate(-64.6)"/><path class="cls-219" d="M122.33,171.23c-.49,1-3.71.53-7.21-1.13s-5.93-3.84-5.44-4.88,3.72-.52,7.22,1.14S122.83,170.2,122.33,171.23Z"/><path class="cls-220" d="M122.14,171.14c-.47,1-3.6.51-7-1.1s-5.75-3.72-5.27-4.72,3.6-.51,7,1.09S122.62,170.14,122.14,171.14Z"/><path class="cls-221" d="M122,171.05c-.46,1-3.49.49-6.77-1.07s-5.57-3.6-5.11-4.57,3.49-.5,6.77,1.06S122.41,170.08,122,171.05Z"/><path class="cls-222" d="M121.76,171c-.45.94-3.38.48-6.56-1s-5.39-3.49-4.94-4.43,3.38-.48,6.56,1S122.21,170,121.76,171Z"/><path class="cls-223" d="M121.57,170.87c-.43.9-3.27.46-6.34-1s-5.21-3.37-4.78-4.28,3.27-.46,6.34,1S122,170,121.57,170.87Z"/><path class="cls-224" d="M121.38,170.78c-.42.87-3.16.44-6.12-1s-5-3.25-4.62-4.13,3.16-.45,6.12,1S121.79,169.9,121.38,170.78Z"/><path class="cls-225" d="M121.18,170.68c-.4.85-3,.43-5.9-.92s-4.85-3.14-4.45-4,3-.43,5.91.93S121.59,169.84,121.18,170.68Z"/><path class="cls-226" d="M121,170.59c-.38.82-2.93.42-5.68-.89s-4.67-3-4.28-3.84,2.93-.41,5.68.89S121.38,169.78,121,170.59Z"/><path class="cls-227" d="M120.8,170.5c-.37.79-2.82.4-5.46-.86s-4.49-2.91-4.12-3.69,2.82-.4,5.46.86S121.17,169.72,120.8,170.5Z"/><path class="cls-228" d="M120.61,170.41c-.36.75-2.71.38-5.25-.82s-4.31-2.8-4-3.55,2.7-.38,5.25.83S121,169.66,120.61,170.41Z"/><path class="cls-229" d="M120.42,170.32c-.34.72-2.59.37-5-.79s-4.13-2.68-3.79-3.4,2.59-.36,5,.79S120.76,169.6,120.42,170.32Z"/><path class="cls-230" d="M120.23,170.23c-.33.69-2.48.35-4.81-.76s-4-2.56-3.63-3.24,2.48-.35,4.81.75S120.55,169.54,120.23,170.23Z"/><ellipse class="cls-231" cx="116.01" cy="168.23" rx="1.32" ry="4.46" transform="translate(-85.72 200.87) rotate(-64.6)"/><path class="cls-232" d="M119.84,170.05c-.29.62-2.25.32-4.37-.69s-3.59-2.33-3.29-3,2.25-.32,4.37.68S120.14,169.42,119.84,170.05Z"/><path class="cls-233" d="M119.65,170c-.28.59-2.14.3-4.15-.66s-3.41-2.21-3.13-2.8,2.14-.3,4.15.65S119.93,169.36,119.65,170Z"/><path class="cls-234" d="M119.46,169.87c-.27.56-2,.28-3.93-.62s-3.24-2.1-3-2.66,2-.29,3.93.62S119.73,169.3,119.46,169.87Z"/><path class="cls-235" d="M119.27,169.77c-.25.54-1.92.28-3.72-.58s-3-2-2.8-2.51,1.92-.27,3.72.58S119.52,169.24,119.27,169.77Z"/><path class="cls-236" d="M119.08,169.68c-.24.5-1.81.26-3.5-.55s-2.87-1.86-2.64-2.36,1.81-.25,3.5.55S119.31,169.18,119.08,169.68Z"/><path class="cls-237" d="M118.88,169.59c-.22.47-1.69.24-3.27-.51s-2.7-1.75-2.48-2.22,1.7-.24,3.28.52S119.11,169.12,118.88,169.59Z"/><path class="cls-238" d="M118.69,169.5c-.2.44-1.57.22-3.06-.48s-2.51-1.63-2.3-2.07,1.57-.22,3.06.48S118.9,169.06,118.69,169.5Z"/><path class="cls-239" d="M118.5,169.41c-.19.41-1.46.21-2.84-.45s-2.34-1.51-2.14-1.92,1.46-.2,2.84.45S118.69,169,118.5,169.41Z"/><path class="cls-240" d="M118.31,169.32c-.18.38-1.35.19-2.62-.41s-2.16-1.4-2-1.77,1.35-.2,2.62.41S118.49,168.94,118.31,169.32Z"/><path class="cls-241" d="M118.12,169.23c-.17.34-1.24.17-2.41-.38s-2-1.28-1.81-1.62,1.24-.18,2.41.37S118.28,168.88,118.12,169.23Z"/><path class="cls-242" d="M117.93,169.14c-.15.31-1.13.16-2.19-.35s-1.8-1.16-1.65-1.47,1.13-.16,2.19.34S118.08,168.82,117.93,169.14Z"/><path class="cls-243" d="M117.73,169.05c-.13.28-1,.14-2-.31s-1.62-1.05-1.49-1.33,1-.14,2,.31S117.87,168.77,117.73,169.05Z"/><path class="cls-244" d="M117.54,169c-.12.25-.9.12-1.75-.28s-1.43-.93-1.31-1.18.9-.13,1.74.27S117.66,168.71,117.54,169Z"/><path class="cls-245" d="M117.35,168.86c-.1.22-.79.12-1.53-.24s-1.26-.81-1.15-1,.79-.11,1.53.24S117.46,168.65,117.35,168.86Z"/><path class="cls-246" d="M117.16,168.77c-.09.19-.68.1-1.31-.2s-1.08-.7-1-.89.68-.09,1.31.21S117.25,168.59,117.16,168.77Z"/><path class="cls-247" d="M117,168.68c-.08.16-.57.08-1.09-.17s-.9-.58-.83-.74.56-.08,1.09.17S117,168.53,117,168.68Z"/><path class="cls-248" d="M116.78,168.59c-.06.13-.45.07-.88-.14s-.72-.46-.66-.59.45-.06.88.14S116.84,168.47,116.78,168.59Z"/><path class="cls-249" d="M116.58,168.5c0,.09-.33.05-.65-.1s-.54-.35-.5-.45.34,0,.66.11S116.63,168.41,116.58,168.5Z"/><path class="cls-250" d="M116.39,168.41c0,.06-.22,0-.43-.07s-.36-.23-.33-.29.22,0,.43.06S116.42,168.35,116.39,168.41Z"/><path class="cls-251" d="M116.2,168.32s-.11,0-.22,0-.18-.11-.16-.14.11,0,.22,0S116.22,168.29,116.2,168.32Z"/></g></g><path class="cls-252" d="M222.74,79.4,114.89,141.67a8.15,8.15,0,0,1-7.32.3l-66-38.12c-1.87-1.09-1.64-3,.53-4.23L149.91,37.36a8.15,8.15,0,0,1,7.32-.31l66,38.13C225.14,76.26,224.9,78.15,222.74,79.4Z"/><path class="cls-253" d="M211.43,80.67l-94.35,54.47a7.12,7.12,0,0,1-6.4.27L52.91,102.05c-1.64-.94-1.43-2.6.46-3.69l94.35-54.48a7.11,7.11,0,0,1,6.4-.26L211.89,77C213.53,77.92,213.33,79.57,211.43,80.67Z"/><path class="cls-6" d="M110.75,143.08a6.88,6.88,0,0,1-3.37-.78l-66-38.12A2.54,2.54,0,0,1,39.9,102a3.39,3.39,0,0,1,2-2.72L149.72,37c2.27-1.31,5.73-1.45,7.7-.31l66,38.13A2.55,2.55,0,0,1,224.91,77a3.37,3.37,0,0,1-2,2.72L115.08,142A8.91,8.91,0,0,1,110.75,143.08ZM154.05,36.7a8.11,8.11,0,0,0-3.94,1L42.26,100a2.68,2.68,0,0,0-1.6,2.06,1.83,1.83,0,0,0,1.07,1.51l66,38.12a7.71,7.71,0,0,0,6.93-.3L222.55,79.07a2.7,2.7,0,0,0,1.6-2.06,1.81,1.81,0,0,0-1.08-1.5L157,37.38A6.2,6.2,0,0,0,154.05,36.7Z"/><path class="cls-6" d="M224.53,61.21l-1.2.94-.07,0L157.23,24c-1.87-1.09-5.15-.95-7.32.3L42.07,86.55a5.38,5.38,0,0,0-.68.47l-1.11-.82v2.7h0a2.18,2.18,0,0,0,1.26,1.88l66,38.12a8.15,8.15,0,0,0,7.32-.3L222.74,66.33a3,3,0,0,0,1.78-2.39h0Z"/><path class="cls-254" d="M222.74,63.59,114.89,125.86a8.12,8.12,0,0,1-7.32.3L41.54,88c-1.87-1.08-1.64-3,.53-4.23L149.91,21.55c2.17-1.25,5.45-1.39,7.32-.3l66,38.12C225.14,60.45,224.9,62.34,222.74,63.59Z"/><path class="cls-6" d="M137.6,51.34,128.33,46l2.27-1.31a7.48,7.48,0,0,1,1.23-.58,5.72,5.72,0,0,1,1.24-.28,4.07,4.07,0,0,1,1.29.1,4.94,4.94,0,0,1,1.32.55c1.14.67,1.33,1.3.56,1.9a4.15,4.15,0,0,1,1.95-.29,5,5,0,0,1,2,.67c.88.51,1.33,1,1.34,1.54s-.4,1-1.25,1.52Zm-3.8-4.14.52-.31c.5-.28.73-.54.71-.77s-.29-.49-.79-.78a3,3,0,0,0-.73-.32,1.56,1.56,0,0,0-.68,0,2.86,2.86,0,0,0-.65.19,5.86,5.86,0,0,0-.74.38l-.24.14Zm4.3,2.48.62-.36c.51-.29.73-.56.7-.81s-.34-.52-.88-.84a3.45,3.45,0,0,0-1.54-.51,2.73,2.73,0,0,0-1.48.42l-.53.3Z"/><path class="cls-6" d="M143.47,48l-7.39-6.45,1.76-1L149,44.76l-1.57.91-2.53-1-1.61.93L145.07,47Zm-1.1-3.13,1.24-.71-4.43-1.85Z"/><path class="cls-6" d="M149.91,44.24l-9.28-5.36,1.17-.67,7.52,1.72-5.25-3,1.4-.81,9.27,5.36-1.1.64-7.82-1.87,5.52,3.19Z"/><path class="cls-6" d="M156.13,40.65l-9.28-5.36,1.69-1,4,2.32-2.2-3.38,1.61-.93,2.38,3.42,7.08,1.83-1.68,1-6-1.59.27.54,3.76,2.17Z"/><polygon class="cls-6" points="127.56 102.98 106.89 114.92 104.5 113.54 125.17 101.6 127.56 102.98"/><polygon class="cls-6" points="152.97 88.31 132.3 100.25 129.9 98.87 150.58 86.93 152.97 88.31"/><polygon class="cls-6" points="178.38 73.64 157.71 85.58 155.31 84.2 175.99 72.26 178.38 73.64"/><polygon class="cls-6" points="203.79 58.97 183.12 70.91 180.72 69.53 201.39 57.59 203.79 58.97"/><path class="cls-6" d="M220.46,141.72l-33.17-19.31c-6.57-3.8-12.77-4.4-17.45-1.7s-7.26,8.37-7.26,16v2.43c.23.16.48.32.73.47v-2.9c0-7.31,2.45-12.76,6.89-15.32s10.39-2,16.72,1.69l33.18,19.32a.37.37,0,0,0,.36-.64Z"/><path class="cls-6" d="M117,118.71V44c0-15-10.55-33.22-23.51-40.71C87.16-.42,81.17-1,76.65,1.61s-7,8.08-7,15.41v5.22l.73.73V17c0-7,2.37-12.3,6.65-14.78S87,.35,93.14,3.88C105.9,11.24,116.28,29.22,116.28,44v74.76c0,12.41,7.29,27.09,17.19,35.92v-1C124,144.91,117,130.73,117,118.71Z"/><path class="cls-6" d="M133.54,154.32s-8.44-8.61-11.73-15.69-5-13.66-5-19.51-.11-56.18-.11-56.18.36-20.86-.52-24.15S113.18,17.92,96,5.3s-25.81,1-25.71,8.11,0,11.66,0,11.66,9.43,7.63,13,18.54,3.9,9,4,19.85.11,65.85.11,65.85-.79,9.66,1.61,17.14,6.73,15.76,11.86,21.19,12.7,11.84,19.7,11.21,11.7-3.22,13-14.29Z"/><polygon class="cls-6" points="76.65 1.61 47.64 18.33 70.26 25.07 76.65 1.61"/><path class="cls-255" d="M162.58,139.1v3.36c-1.62-1.17-9.2-6.36-16.41-6.1-8.12.29-10.85,7.72-10.85,7.72s-1.92,5.54-1.78,8.14c0,.45.05,1,.07,1.55l-.14-.12v1l.17.14c.06,2.5.08,5.26.08,5.26a44.79,44.79,0,0,1-.63,8.2c-1.26,5.86-6.22,9.18-6.6,9.7l29.77-17.14.08,0,.12-.08.15-.08,0,0c4.31-2.66,6.68-8,6.68-15.13v-5.87C163.06,139.42,162.81,139.26,162.58,139.1Z"/><path class="cls-6" d="M139.38,138.34l30.46-17.63a15.15,15.15,0,0,1,11.47-.43c6.28,2.3,39.19,22.05,39.19,22.05l-29.4,16.94S156.94,138.1,152.93,137C144.7,134.86,139.38,138.34,139.38,138.34Z"/><path class="cls-256" d="M69.63,24.52h0a29.36,29.36,0,0,0-15-7.33C45.4,15.78,41.57,26.6,41.57,26.6a59.76,59.76,0,0,0-1,8.95c0,3.33.28,15.42.28,15.42L70.16,34.06h0a.36.36,0,0,0,.2-.32V25.16C70.12,24.91,69.88,24.77,69.63,24.52Z"/><path class="cls-257" d="M120.78,179.26A21.42,21.42,0,0,1,110.25,176c-12.86-7.43-23.33-25.56-23.33-40.42V60.86c0-14.73-10.38-32.71-23.14-40.07-6.11-3.53-11.84-4.11-16.12-1.64S41,26.88,41,33.93V50.65a.37.37,0,0,1-.37.36.36.36,0,0,1-.36-.36V33.93c0-7.33,2.49-12.8,7-15.41s10.51-2,16.86,1.63c13,7.49,23.5,25.75,23.5,40.71v74.76c0,14.63,10.3,32.47,23,39.78,6.06,3.5,11.75,4.08,16,1.62s6.6-7.66,6.6-14.67v-8.77c0-7.59,2.58-13.25,7.26-16s10.88-2.1,17.45,1.7l33.18,19.31a.37.37,0,0,1,.13.5.37.37,0,0,1-.5.14L157.57,140c-6.34-3.66-12.28-4.26-16.72-1.69s-6.9,8-6.9,15.32v8.77c0,7.28-2.47,12.72-7,15.31A12.25,12.25,0,0,1,120.78,179.26Z"/><polygon class="cls-258" points="94.81 77.28 94.81 74.64 97.89 72.86 97.89 75.5 94.81 77.28"/><polygon class="cls-258" points="103.5 67.33 103.5 64.69 109.36 61.31 109.36 63.95 103.5 67.33"/><polygon class="cls-258" points="95.11 66.78 95.11 64.14 109.36 55.91 109.36 58.55 95.11 66.78"/><polygon class="cls-258" points="100.06 74.25 100.06 71.61 111.96 64.74 111.96 67.38 100.06 74.25"/><polygon class="cls-258" points="95.11 72.17 95.11 69.54 100.97 66.15 100.97 68.79 95.11 72.17"/><polygon class="cls-258" points="98.56 102.96 98.56 105.6 94.95 107.68 94.95 105.04 98.56 102.96"/><polygon class="cls-258" points="105.13 99.17 105.13 101.81 101.52 103.89 101.52 101.25 105.13 99.17"/><polygon class="cls-258" points="109.07 91.96 109.07 94.6 95.12 102.65 95.12 100.01 109.07 91.96"/><polygon class="cls-258" points="102.11 83.61 102.11 80.97 109.07 76.95 109.07 79.59 102.11 83.61"/><polygon class="cls-258" points="94.95 87.74 94.95 85.1 98.56 83.02 98.56 85.66 94.95 87.74"/><polygon class="cls-258" points="94.95 92.68 94.95 90.04 101.82 86.07 101.82 88.71 94.95 92.68"/><polygon class="cls-258" points="104.6 87.11 104.6 84.47 109.07 81.89 109.07 84.53 104.6 87.11"/><polygon class="cls-258" points="102.11 114.34 102.11 111.7 109.07 107.68 109.07 110.32 102.11 114.34"/><polygon class="cls-258" points="94.95 118.47 94.95 115.83 98.56 113.75 98.56 116.39 94.95 118.47"/><polygon class="cls-258" points="94.95 123.41 94.95 120.77 101.82 116.8 101.82 119.44 94.95 123.41"/><polygon class="cls-258" points="104.6 117.84 104.6 115.2 109.07 112.62 109.07 115.26 104.6 117.84"/><polygon class="cls-258" points="177.69 142.5 175.41 141.18 178.49 139.4 180.77 140.72 177.69 142.5"/><polygon class="cls-258" points="182.11 135.01 179.82 133.69 185.69 130.31 187.97 131.63 182.11 135.01"/><polygon class="cls-258" points="169.05 137.16 166.76 135.84 181.02 127.61 183.3 128.93 169.05 137.16"/><polygon class="cls-258" points="182.95 139.47 180.66 138.15 192.56 131.28 194.84 132.6 182.95 139.47"/><polygon class="cls-258" points="173.72 139.86 171.43 138.54 177.3 135.15 179.58 136.47 173.72 139.86"/><polygon class="cls-6" points="21.83 148.5 20.49 149.27 17.33 147.44 18.66 146.67 21.83 148.5"/><polygon class="cls-6" points="24.29 147.08 22.95 147.85 19.79 146.02 21.13 145.25 24.29 147.08"/><polygon class="cls-6" points="26.75 145.66 25.41 146.43 22.25 144.6 23.59 143.83 26.75 145.66"/><polygon class="cls-6" points="29.21 144.24 27.87 145.01 24.71 143.18 26.05 142.41 29.21 144.24"/><path class="cls-6" d="M202.84,189.86,179.3,176.28a4.59,4.59,0,0,0-2-.55h-.69a2.9,2.9,0,0,0-.41.06l-.18,0-.4.11-.16.05a2.71,2.71,0,0,0-.49.22l-17.55,10.17h0l-16.75,9.7-1.63.16,0,1.47v.19a1.79,1.79,0,0,0,1,1.16l23.55,13.58a4.59,4.59,0,0,0,2,.55h.68l.42,0,.18,0,.4-.11.15,0a3.17,3.17,0,0,0,.49-.23h0L203,192.37a1.41,1.41,0,0,0,.81-1.18h0v-.05h0v-1.38Z"/><path class="cls-259" d="M139.85,195.08l17.56-10.17,27.29,15.74-16.8,10.61a4.76,4.76,0,0,1-4.33-.09L140,197.59C138.77,196.87,138.7,195.75,139.85,195.08Z"/><path class="cls-260" d="M175,174.74l-17.55,10.17,27.12,15.64L203,190.92c1.15-.67,1.07-1.79-.17-2.5L179.3,174.83A4.82,4.82,0,0,0,175,174.74Z"/><path class="cls-261" d="M203.82,189.58a1.33,1.33,0,0,1-.8,1.34L167.9,211.26a4.25,4.25,0,0,1-2.32.47L167.91,191Z"/><path class="cls-262" d="M139.05,196.43a1.34,1.34,0,0,1,.8-1.35L175,174.74a4.3,4.3,0,0,1,2.33-.46L175,195Z"/><path class="cls-6" d="M165.83,202.86h-.2l-.43,0a4.64,4.64,0,0,1-1.82-.57l-23.55-13.58a2.34,2.34,0,0,1-1-1.08h0l-.07-.41v-.06a1.31,1.31,0,0,1,0-.28c0-.06,0-.1,0-.15a1.52,1.52,0,0,1,.12-.32,1,1,0,0,1,.06-.14,2.26,2.26,0,0,1,.23-.29l.1-.11a2.61,2.61,0,0,1,.46-.34l35.11-20.34a3.43,3.43,0,0,1,.55-.25l.13,0a4.44,4.44,0,0,1,.48-.13l.14,0,.5-.07h.15a4.49,4.49,0,0,1,.52,0l.43,0a4.87,4.87,0,0,1,1.82.57L203,178.83a2.44,2.44,0,0,1,1,1.08h0l.07.4v.06a1.36,1.36,0,0,1,0,.28.62.62,0,0,1,0,.15,2.09,2.09,0,0,1-.12.33.54.54,0,0,1-.07.13,1.7,1.7,0,0,1-.23.3l-.1.11a2.61,2.61,0,0,1-.45.33l-35.12,20.34a3.1,3.1,0,0,1-.55.26l-.12,0a4.44,4.44,0,0,1-.48.13l-.14,0-.51.06h-.46Zm.78-.82.25.35-.08-.37.36-.1.27.32-.13-.36a2.8,2.8,0,0,0,.43-.19l35.12-20.35a2.49,2.49,0,0,0,.31-.23l.34.19-.28-.26a1,1,0,0,0,.14-.17,1.63,1.63,0,0,0,.09-.23c0-.12,0-.17,0-.2v-.05a1.43,1.43,0,0,0-.77-.89l-23.55-13.59a4.31,4.31,0,0,0-1.85-.5h-.63a2.45,2.45,0,0,0-.38,0l-.24-.35.07.38a3.58,3.58,0,0,0-.35.09l-.28-.31.13.35a2.71,2.71,0,0,0-.42.2L140,186.17a1.44,1.44,0,0,0-.32.23l-.19.23a1.34,1.34,0,0,0-.09.23.84.84,0,0,0,0,.21v0a1.41,1.41,0,0,0,.77.9l23.55,13.58a4.27,4.27,0,0,0,1.84.5h.64Z"/><path class="cls-252" d="M203.48,181.3a1.92,1.92,0,0,0,.19-.23.49.49,0,0,0,0-.11.78.78,0,0,0,.09-.24.41.41,0,0,0,0-.11,1,1,0,0,0,0-.24s0,0,0,0h0a1.77,1.77,0,0,0-1-1.16L179.3,165.58a4.59,4.59,0,0,0-2-.55h-.69a2.9,2.9,0,0,0-.41.06l-.18,0-.4.11-.16.05a2.71,2.71,0,0,0-.49.22l-11.7,6.78-5.85,3.39h0l-17.56,10.17a2.47,2.47,0,0,0-.39.29l-.08.09a2,2,0,0,0-.18.23l0,.1a1.17,1.17,0,0,0-.09.24.37.37,0,0,1,0,.11,1,1,0,0,0,0,.25v0h0a1.79,1.79,0,0,0,1,1.16l23.55,13.58a4.59,4.59,0,0,0,2,.55h.68l.42-.05.18,0,.4-.11.15,0a3.15,3.15,0,0,0,.49-.22h0L203,181.67a2,2,0,0,0,.38-.28A.65.65,0,0,0,203.48,181.3Z"/></g></g></g></svg>