<svg xmlns="http://www.w3.org/2000/svg" xmlns:xlink="http://www.w3.org/1999/xlink" viewBox="0 0 235.36 234.24"><defs><style>.cls-1,.cls-16{fill:#041860;}.cls-1{opacity:0.6;}.cls-14,.cls-2,.cls-23{fill:#fff;}.cls-3{fill:url(#Áåçûìÿííûé_ãðàäèåíò_5);}.cls-4{fill:url(#Áåçûìÿííûé_ãðàäèåíò_14);}.cls-5{fill:url(#Áåçûìÿííûé_ãðàäèåíò_11);}.cls-6{fill:#a9ebff;}.cls-7{fill:url(#Áåçûìÿííûé_ãðàäèåíò_14-2);}.cls-8{fill:url(#Áåçûìÿííûé_ãðàäèåíò_14-3);}.cls-9{fill:url(#Áåçûìÿííûé_ãðàäèåíò_14-4);}.cls-10{fill:#13247a;opacity:0.5;}.cls-11{fill:url(#Áåçûìÿííûé_ãðàäèåíò_325);}.cls-12{fill:url(#Áåçûìÿííûé_ãðàäèåíò_5-2);}.cls-13{fill:#0f65b2;}.cls-14{opacity:0.4;}.cls-15{fill:#0063ad;}.cls-16,.cls-23{opacity:0.2;}.cls-17{fill:#f4a856;}.cls-18{fill:#fccc6b;}.cls-19{fill:url(#Áåçûìÿííûé_ãðàäèåíò_74);}.cls-20{fill:url(#Áåçûìÿííûé_ãðàäèåíò_74-2);}.cls-21{fill:#fce586;}.cls-22{fill:url(#Áåçûìÿííûé_ãðàäèåíò_17);}.cls-24{fill:url(#Áåçûìÿííûé_ãðàäèåíò_74-3);}.cls-25{fill:url(#Áåçûìÿííûé_ãðàäèåíò_74-4);}.cls-26{fill:url(#Áåçûìÿííûé_ãðàäèåíò_74-5);}.cls-27{fill:url(#Áåçûìÿííûé_ãðàäèåíò_74-6);}.cls-28{fill:url(#Áåçûìÿííûé_ãðàäèåíò_74-7);}.cls-29{fill:url(#Áåçûìÿííûé_ãðàäèåíò_74-8);}.cls-30{fill:url(#Áåçûìÿííûé_ãðàäèåíò_74-9);}.cls-31{fill:url(#Áåçûìÿííûé_ãðàäèåíò_74-10);}.cls-32{fill:url(#Áåçûìÿííûé_ãðàäèåíò_74-11);}.cls-33{fill:url(#Áåçûìÿííûé_ãðàäèåíò_74-12);}.cls-34{fill:url(#Áåçûìÿííûé_ãðàäèåíò_74-13);}.cls-35{fill:url(#Áåçûìÿííûé_ãðàäèåíò_74-14);}.cls-36{fill:url(#Áåçûìÿííûé_ãðàäèåíò_74-15);}.cls-37{fill:url(#Áåçûìÿííûé_ãðàäèåíò_74-16);}.cls-38{fill:url(#Áåçûìÿííûé_ãðàäèåíò_74-17);}.cls-39{fill:url(#Áåçûìÿííûé_ãðàäèåíò_74-18);}.cls-40{fill:url(#Áåçûìÿííûé_ãðàäèåíò_74-19);}.cls-41{fill:url(#Áåçûìÿííûé_ãðàäèåíò_74-20);}.cls-42{fill:url(#Áåçûìÿííûé_ãðàäèåíò_74-21);}.cls-43{fill:url(#Áåçûìÿííûé_ãðàäèåíò_74-22);}.cls-44{fill:url(#Áåçûìÿííûé_ãðàäèåíò_345);}.cls-45{fill:url(#Áåçûìÿííûé_ãðàäèåíò_123);}.cls-46{fill:url(#Áåçûìÿííûé_ãðàäèåíò_17-2);}</style><linearGradient id="Áåçûìÿííûé_ãðàäèåíò_5" x1="43.79" y1="92.21" x2="15.98" y2="70.72" gradientUnits="userSpaceOnUse"><stop offset="0" stop-color="#59bdef"/><stop offset="1" stop-color="#7bdaff"/></linearGradient><linearGradient id="Áåçûìÿííûé_ãðàäèåíò_14" x1="43.9" y1="102.46" x2="59.46" y2="102.46" gradientUnits="userSpaceOnUse"><stop offset="0" stop-color="#2573ba"/><stop offset="1" stop-color="#0063ad"/></linearGradient><linearGradient id="Áåçûìÿííûé_ãðàäèåíò_11" x1="24.32" y1="101.3" x2="43.9" y2="101.3" gradientUnits="userSpaceOnUse"><stop offset="0" stop-color="#3a9bd5"/><stop offset="1" stop-color="#2573ba"/></linearGradient><linearGradient id="Áåçûìÿííûé_ãðàäèåíò_14-2" x1="27.88" y1="90.5" x2="36.37" y2="90.5" xlink:href="#Áåçûìÿííûé_ãðàäèåíò_14"/><linearGradient id="Áåçûìÿííûé_ãðàäèåíò_14-3" x1="33.27" y1="93.61" x2="41.75" y2="93.61" xlink:href="#Áåçûìÿííûé_ãðàäèåíò_14"/><linearGradient id="Áåçûìÿííûé_ãðàäèåíò_14-4" x1="38.66" y1="96.72" x2="47.14" y2="96.72" xlink:href="#Áåçûìÿííûé_ãðàäèåíò_14"/><linearGradient id="Áåçûìÿííûé_ãðàäèåíò_325" x1="113.53" y1="103.75" x2="314.01" y2="103.75" gradientUnits="userSpaceOnUse"><stop offset="0" stop-color="#3a9bd5"/><stop offset="0.52" stop-color="#3088c8"/><stop offset="1" stop-color="#297bbf"/></linearGradient><linearGradient id="Áåçûìÿííûé_ãðàäèåíò_5-2" x1="-19.92" y1="625.83" x2="99.34" y2="688.67" gradientTransform="matrix(0.87, 0.5, 0, 1.15, 114.39, -673.86)" xlink:href="#Áåçûìÿííûé_ãðàäèåíò_5"/><radialGradient id="Áåçûìÿííûé_ãðàäèåíò_74" cx="1668.45" cy="-657.94" r="19.33" gradientTransform="translate(-425.87 1820.45) rotate(-51.52)" gradientUnits="userSpaceOnUse"><stop offset="0" stop-color="#fce586"/><stop offset="0.23" stop-color="#fcdb7b"/><stop offset="0.62" stop-color="#fcd06f"/><stop offset="1" stop-color="#fccc6b"/></radialGradient><radialGradient id="Áåçûìÿííûé_ãðàäèåíò_74-2" cx="1677.82" cy="-640.64" r="45.98" gradientTransform="translate(-1298.16 1224.96) rotate(-17.33)" xlink:href="#Áåçûìÿííûé_ãðàäèåíò_74"/><linearGradient id="Áåçûìÿííûé_ãðàäèåíò_17" x1="69.38" y1="68.96" x2="152.31" y2="68.96" gradientUnits="userSpaceOnUse"><stop offset="0" stop-color="#7bdaff"/><stop offset="1" stop-color="#59bdef"/></linearGradient><radialGradient id="Áåçûìÿííûé_ãðàäèåíò_74-3" cx="676.01" cy="-765.56" r="19.33" gradientTransform="translate(-323.34 1114.53) rotate(-17.07)" xlink:href="#Áåçûìÿííûé_ãðàäèåíò_74"/><radialGradient id="Áåçûìÿííûé_ãðàäèåíò_74-4" cx="685.39" cy="-748.26" r="45.98" gradientTransform="translate(-323.34 1114.53) rotate(-17.07)" xlink:href="#Áåçûìÿííûé_ãðàäèåíò_74"/><radialGradient id="Áåçûìÿííûé_ãðàäèåíò_74-5" cx="679.21" cy="-768.04" r="19.33" gradientTransform="translate(-323.34 1114.53) rotate(-17.07)" xlink:href="#Áåçûìÿííûé_ãðàäèåíò_74"/><radialGradient id="Áåçûìÿííûé_ãðàäèåíò_74-6" cx="688.58" cy="-750.74" r="45.98" gradientTransform="translate(-323.34 1114.53) rotate(-17.07)" xlink:href="#Áåçûìÿííûé_ãðàäèåíò_74"/><radialGradient id="Áåçûìÿííûé_ãðàäèåíò_74-7" cx="691.42" cy="-747.05" r="19.33" gradientTransform="translate(-788.56 -243.44) rotate(72.67)" xlink:href="#Áåçûìÿííûé_ãðàäèåíò_74"/><radialGradient id="Áåçûìÿííûé_ãðàäèåíò_74-8" cx="700.79" cy="-729.75" r="45.98" gradientTransform="translate(-788.56 -243.44) rotate(72.67)" xlink:href="#Áåçûìÿííûé_ãðàäèåíò_74"/><radialGradient id="Áåçûìÿííûé_ãðàäèåíò_74-9" cx="664.17" cy="-750.51" r="19.33" gradientTransform="translate(-810.81 -211.7) rotate(72.67)" xlink:href="#Áåçûìÿííûé_ãðàäèåíò_74"/><radialGradient id="Áåçûìÿííûé_ãðàäèåíò_74-10" cx="673.54" cy="-733.21" r="45.98" gradientTransform="translate(-323.34 1114.53) rotate(-17.07)" xlink:href="#Áåçûìÿííûé_ãðàäèåíò_74"/><radialGradient id="Áåçûìÿííûé_ãðàäèåíò_74-11" cx="677.87" cy="-751.51" r="19.33" gradientTransform="matrix(0.3, 0.95, -0.95, 0.3, -803.04, -229.46)" xlink:href="#Áåçûìÿííûé_ãðàäèåíò_74"/><radialGradient id="Áåçûìÿííûé_ãðàäèåíò_74-12" cx="687.24" cy="-734.21" r="45.98" gradientTransform="translate(-323.34 1114.53) rotate(-17.07)" xlink:href="#Áåçûìÿííûé_ãðàäèåíò_74"/><radialGradient id="Áåçûìÿííûé_ãðàäèåíò_74-13" cx="682.01" cy="-753.07" r="19.33" gradientTransform="translate(-323.34 1114.53) rotate(-17.07)" xlink:href="#Áåçûìÿííûé_ãðàäèåíò_74"/><radialGradient id="Áåçûìÿííûé_ãðàäèåíò_74-14" cx="691.38" cy="-735.77" r="45.98" gradientTransform="translate(-323.34 1114.53) rotate(-17.07)" xlink:href="#Áåçûìÿííûé_ãðàäèåíò_74"/><radialGradient id="Áåçûìÿííûé_ãðàäèåíò_74-15" cx="685.31" cy="-757.5" r="19.33" gradientTransform="translate(-805.62 -242.68) rotate(72.67)" xlink:href="#Áåçûìÿííûé_ãðàäèåíò_74"/><radialGradient id="Áåçûìÿííûé_ãðàäèåíò_74-16" cx="694.68" cy="-740.2" r="45.98" gradientTransform="translate(-323.34 1114.53) rotate(-17.07)" xlink:href="#Áåçûìÿííûé_ãðàäèåíò_74"/><radialGradient id="Áåçûìÿííûé_ãðàäèåíò_74-17" cx="365.73" cy="-677.33" r="19.33" gradientTransform="translate(-182 895.13) rotate(-5.26)" xlink:href="#Áåçûìÿííûé_ãðàäèåíò_74"/><radialGradient id="Áåçûìÿííûé_ãðàäèåíò_74-18" cx="375.1" cy="-660.03" r="45.98" gradientTransform="translate(-182 895.13) rotate(-5.26)" xlink:href="#Áåçûìÿííûé_ãðàäèåíò_74"/><radialGradient id="Áåçûìÿííûé_ãðàäèåíò_74-19" cx="-81.81" cy="-493.19" r="19.33" gradientTransform="translate(-334.31 349.41) rotate(72.67)" xlink:href="#Áåçûìÿííûé_ãðàäèåíò_74"/><radialGradient id="Áåçûìÿííûé_ãðàäèåíò_74-20" cx="-72.43" cy="-475.89" r="45.98" gradientTransform="matrix(0.98, 0.22, -0.22, 0.98, 76.87, 623.74)" xlink:href="#Áåçûìÿííûé_ãðàäèåíò_74"/><radialGradient id="Áåçûìÿííûé_ãðàäèåíò_74-21" cx="1524.74" cy="-668.92" r="19.33" gradientTransform="translate(-465.18 1736.89) rotate(-46.62)" xlink:href="#Áåçûìÿííûé_ãðàäèåíò_74"/><radialGradient id="Áåçûìÿííûé_ãðàäèåíò_74-22" cx="1534.12" cy="-651.62" r="45.98" gradientTransform="translate(-465.18 1736.89) rotate(-46.62)" xlink:href="#Áåçûìÿííûé_ãðàäèåíò_74"/><linearGradient id="Áåçûìÿííûé_ãðàäèåíò_345" x1="-810.66" y1="266.03" x2="-716.75" y2="298.67" gradientTransform="matrix(0.87, 0.5, 0, 1.15, 853.25, 230.41)" gradientUnits="userSpaceOnUse"><stop offset="0" stop-color="#2573ba"/><stop offset="0.91" stop-color="#0364ae"/><stop offset="1" stop-color="#0063ad"/></linearGradient><linearGradient id="Áåçûìÿííûé_ãðàäèåíò_123" x1="-995.2" y1="98.64" x2="-955.25" y2="98.64" gradientTransform="matrix(-1, 0, 0, 1, -834.55, 0)" gradientUnits="userSpaceOnUse"><stop offset="0" stop-color="#0063ad"/><stop offset="1" stop-color="#2573ba"/></linearGradient><linearGradient id="Áåçûìÿííûé_ãðàäèåíò_17-2" x1="-846.19" y1="277.16" x2="-770.29" y2="277.16" gradientTransform="matrix(0.87, 0.5, 0, 1.15, 853.25, 230.41)" xlink:href="#Áåçûìÿííûé_ãðàäèåíò_17"/></defs><title>reward</title><g id="Layer_2" data-name="Layer 2"><g id="Ñëîé_1" data-name="Ñëîé 1"><polygon class="cls-1" points="43.9 127.03 24.32 115.72 39.88 106.74 59.46 118.04 43.9 127.03"/><path class="cls-2" d="M44.67,131.28,17,115.28l22.16-12.79,27.72,16Zm-26.38-16,26.38,15.23,20.82-12L39.11,103.26Z"/><polygon class="cls-3" points="43.9 100.88 24.32 89.58 39.88 80.59 59.46 91.9 43.9 100.88"/><polygon class="cls-4" points="59.46 104.03 59.46 91.9 43.9 100.88 43.9 113.01 59.46 104.03"/><polygon class="cls-5" points="24.32 89.58 24.32 101.71 43.9 113.01 43.9 100.88 24.32 89.58"/><polygon class="cls-2" points="36.36 86.74 27.88 91.64 27.88 94.26 30.4 95.71 30.4 93.09 38.88 88.19 36.36 86.74"/><polygon class="cls-2" points="41.75 89.85 33.27 94.75 33.27 97.37 35.78 98.82 35.78 96.2 44.26 91.3 41.75 89.85"/><polygon class="cls-2" points="47.14 92.96 38.66 97.86 38.66 100.48 41.18 101.93 41.18 99.31 49.65 94.42 47.14 92.96"/><polygon class="cls-6" points="36.36 86.74 36.36 87.8 37.98 88.72 38.88 88.19 36.36 86.74"/><polygon class="cls-6" points="28.8 93.72 27.88 94.26 30.4 95.71 30.4 94.62 28.8 93.72"/><polygon class="cls-7" points="36.36 86.74 27.88 91.64 27.88 94.26 28.8 93.72 28.8 92.17 36.37 87.8 36.36 86.74"/><polygon class="cls-6" points="41.75 89.85 41.75 90.91 43.36 91.82 44.26 91.3 41.75 89.85"/><polygon class="cls-6" points="34.18 96.83 33.27 97.37 35.78 98.82 35.78 97.73 34.18 96.83"/><polygon class="cls-8" points="41.75 89.85 33.27 94.75 33.27 97.37 34.18 96.83 34.18 95.28 41.75 90.91 41.75 89.85"/><polygon class="cls-6" points="47.14 92.96 47.14 94.02 48.75 94.93 49.65 94.42 47.14 92.96"/><polygon class="cls-6" points="39.57 99.94 38.66 100.48 41.18 101.93 41.18 100.84 39.57 99.94"/><polygon class="cls-9" points="47.14 92.96 38.66 97.86 38.66 100.48 39.57 99.94 39.57 98.39 47.14 94.02 47.14 92.96"/><path class="cls-2" d="M145.58,234.24c-23,0-45.93-5.05-63.42-15.15-17-9.81-26.36-22.88-26.36-36.8s9.36-27,26.36-36.81c35-20.19,91.86-20.19,126.83,0,17,9.82,26.37,22.89,26.37,36.81S226,209.28,209,219.1h0C191.51,229.19,168.54,234.23,145.58,234.24Zm0-103.24c-22.85,0-45.69,5-63.08,15.06-16.79,9.69-26,22.56-26,36.23s9.24,26.53,26,36.22c34.78,20.09,91.38,20.09,126.16,0h0c16.79-9.7,26-22.56,26-36.23s-9.24-26.54-26-36.23C191.27,136,168.42,131,145.58,131Z"/><ellipse class="cls-10" cx="145.58" cy="182.29" rx="64.13" ry="37.02"/><path class="cls-11" d="M186.42,38.46,120.76.52A2.82,2.82,0,0,0,118,.26l-4.45,2.6,2.91,1.76V158.45c0,3.18,1.93,6.88,4.32,8.26l64.89,37.5-.92,3.29,4.49-2.61h0c.93-.52,1.52-1.75,1.52-3.51V46.72C190.74,43.53,188.8,39.83,186.42,38.46Z"/><path class="cls-12" d="M181.86,207.3,116.2,169.36c-2.38-1.38-4.32-5.07-4.32-8.26V6.44c0-3.19,1.94-4.65,4.32-3.27l65.66,37.94c2.39,1.38,4.32,5.07,4.32,8.26V204C186.18,207.22,184.25,208.68,181.86,207.3Z"/><polygon class="cls-13" points="186.18 204.14 111.88 161.21 111.88 6.33 186.18 49.26 186.18 204.14"/><path class="cls-14" d="M174.31,207.11,108,168.8a8,8,0,0,1-4-7V16.18a2.65,2.65,0,0,1,4-2.29L174.26,52.2a8.05,8.05,0,0,1,4,7V204.82A2.64,2.64,0,0,1,174.31,207.11Z"/><path class="cls-2" d="M175.64,207.77a3,3,0,0,1-1.47-.4l-66.32-38.32a8.34,8.34,0,0,1-4.16-7.21V16.18a2.9,2.9,0,0,1,1.47-2.54,2.85,2.85,0,0,1,2.93,0L174.41,52a8.36,8.36,0,0,1,4.16,7.22V204.82a2.91,2.91,0,0,1-1.47,2.55A3,3,0,0,1,175.64,207.77Zm-69-194a2.38,2.38,0,0,0-1.18.32,2.34,2.34,0,0,0-1.18,2V161.84a7.8,7.8,0,0,0,3.88,6.71l66.31,38.31a2.36,2.36,0,0,0,3.53-2V59.17a7.79,7.79,0,0,0-3.87-6.71L107.8,14.14A2.37,2.37,0,0,0,106.63,13.82Z"/><path class="cls-15" d="M153.94,28.63,144.12,23a1.45,1.45,0,0,1-.6-1.15h0c0-.44.27-.65.6-.46L153.94,27a1.45,1.45,0,0,1,.6,1.15h0C154.54,28.62,154.27,28.82,153.94,28.63Z"/><path class="cls-16" d="M158,116.54c1.35.78,2.44-.05,2.44-1.84V60.91A5.83,5.83,0,0,0,158,56.26l-53.78-31a8.81,8.81,0,0,0-.21,1.94V85.37Z"/><path class="cls-17" d="M117.56,96.61v1.33a8.89,8.89,0,0,0-4.34-.65c-6.09.45-13.17,5.26-15.83,10.76a8.68,8.68,0,0,0-1,4.17l-1.24-.4,1.33,2h0c1.11,1.71,3.35,2.66,6.45,2.44,6.09-.45,13.17-5.26,15.83-10.76,1.33-2.74,1.3-5.14.18-6.8h0Z"/><path class="cls-18" d="M117.38,103.4c-2.66,5.5-9.75,10.31-15.83,10.76s-8.87-3.65-6.21-9.14,9.75-10.31,15.83-10.76S120,97.91,117.38,103.4Z"/><path class="cls-19" d="M117.38,103.4c-2.66,5.5-9.75,10.31-15.83,10.76s-8.87-3.65-6.21-9.14,9.75-10.31,15.83-10.76S120,97.91,117.38,103.4Z"/><path class="cls-17" d="M110.18,109.68a16.64,16.64,0,0,1-7.85,3c-2.52.18-4.46-.54-5.46-2s-1-3.55.13-5.82c2.25-4.64,8.25-8.72,13.39-9.09,2.52-.19,4.46.53,5.46,2s1,3.56-.13,5.82A16.51,16.51,0,0,1,110.18,109.68Zm-7.51-10.75a16.28,16.28,0,0,0-5.46,6c-1.06,2.19-1.11,4.18-.15,5.59s2.82,2.1,5.25,1.92c5.07-.37,11-4.39,13.2-9,1.06-2.19,1.12-4.17.15-5.59s-2.82-2.09-5.25-1.92A16.36,16.36,0,0,0,102.67,98.93Z"/><ellipse class="cls-20" cx="106.36" cy="104.21" rx="11.36" ry="6.56" transform="translate(-40.18 77.76) rotate(-34.18)"/><path class="cls-17" d="M97.41,105.34c2.23-4.61,8.19-8.66,13.3-9,2.41-.18,4.21.5,5.19,1.75-.89-1.54-2.81-2.4-5.5-2.2-5.11.37-11.06,4.42-13.29,9-1.18,2.43-1.09,4.53,0,5.92C96.33,109.44,96.36,107.52,97.41,105.34Z"/><path class="cls-21" d="M117.09,103c-2.66,5.49-9.74,10.31-15.83,10.75-2.91.22-5.07-.61-6.23-2.13,1.07,1.79,3.34,2.79,6.52,2.56,6.08-.45,13.17-5.26,15.83-10.76,1.39-2.86,1.29-5.34,0-7C118.39,98,118.36,100.35,117.09,103Z"/><path class="cls-17" d="M115.53,109.9a17.08,17.08,0,0,0,3.24-4.45c1.33-2.74,1.3-5.14.18-6.8l-1.39-2-.07-.08-.09-.13,0,0c-1.15-1.54-3.31-2.39-6.25-2.18a20.28,20.28,0,0,0-10.31,4.29l11,11.35Z"/><path class="cls-2" d="M151,60.7,73,15.63a1.55,1.55,0,0,0-1.59-.12h0l-1.16.68.53.07a3.13,3.13,0,0,0-.22,1.22V71.26A5.83,5.83,0,0,0,73,75.91L151,121a2.27,2.27,0,0,0,.43.19v.61l1.17-.68h0a2.12,2.12,0,0,0,.84-2V65.35A5.85,5.85,0,0,0,151,60.7Z"/><path class="cls-22" d="M149.88,121.64,71.82,76.57a5.83,5.83,0,0,1-2.44-4.65V18.13c0-1.79,1.09-2.61,2.44-1.84l78.06,45.07A5.85,5.85,0,0,1,152.31,66V119.8C152.31,121.59,151.22,122.41,149.88,121.64Z"/><path class="cls-2" d="M126.61,64.15V56.48l1.63.94a5.6,5.6,0,0,1,.8.55,3.89,3.89,0,0,1,.61.67,2.71,2.71,0,0,1,.4.84,3.75,3.75,0,0,1,.14,1c0,1-.33,1.29-1,1a3.12,3.12,0,0,1,.88,1.11,3.55,3.55,0,0,1,.29,1.48c0,.73-.15,1.19-.47,1.38s-.78.12-1.39-.23Zm1.21-3.84.38.21c.35.21.6.26.73.16s.2-.35.2-.77a1.86,1.86,0,0,0-.07-.56,1.08,1.08,0,0,0-.22-.44,2.12,2.12,0,0,0-.34-.33c-.13-.1-.3-.2-.51-.33l-.17-.09Zm0,3.56.44.25q.56.31.75.15c.14-.12.21-.4.21-.85a2.41,2.41,0,0,0-.23-1.14,2,2,0,0,0-.79-.77l-.38-.22Z"/><path class="cls-2" d="M130.82,66.58l1.35-6.89,1.26.72,1.35,8.46-1.13-.65-.27-1.94-1.15-.66L132,67.24Zm1.54-1.8.89.51-.45-3.41Z"/><path class="cls-2" d="M135.43,69.25V61.57l.84.48,1.62,5.29V63l1,.58v7.68l-.8-.46-1.64-5.52v4.57Z"/><path class="cls-2" d="M139.89,71.82V64.14l1.21.7v3.34l1.31-2.58,1.15.67L142.29,69l1.41,5-1.21-.7-1.15-4.27-.24.36v3.11Z"/><polygon class="cls-2" points="90.94 76.45 76.12 67.89 76.12 65.92 90.94 74.47 90.94 76.45"/><polygon class="cls-2" points="109.15 86.97 94.33 78.41 94.33 76.43 109.15 84.99 109.15 86.97"/><polygon class="cls-2" points="127.36 97.48 112.55 88.93 112.55 86.95 127.36 95.5 127.36 97.48"/><polygon class="cls-2" points="145.58 108 130.76 99.44 130.76 97.46 145.58 106.02 145.58 108"/><path class="cls-23" d="M149.88,61.36,71.82,16.29c-1.35-.77-2.44.05-2.44,1.84V71.92a5,5,0,0,0,.12,1c4.15-3,21-12.29,53.3,5.51,11.74,6.48,21.56,5.62,29.51,1.38V66A5.85,5.85,0,0,0,149.88,61.36Z"/><path class="cls-23" d="M101.74,58.63a75.91,75.91,0,0,0,27.73-9.05L71.82,16.29c-1.35-.77-2.44.05-2.44,1.84V69.6C75.14,65.07,85,60.79,101.74,58.63Z"/><path class="cls-17" d="M119.46,188.78l-.74,1.11a8.91,8.91,0,0,0-3.21-3c-5.28-3.07-13.85-3.11-19.14-.08a8.8,8.8,0,0,0-3.19,2.88l-.79-1V191h0c-.06,2,1.25,4.09,3.93,5.66,5.27,3.08,13.84,3.11,19.14.09,2.65-1.52,4-3.51,4-5.51h0Z"/><path class="cls-18" d="M115.47,194.29c-5.3,3-13.87,3-19.14-.09s-5.25-8,0-11,13.87-3,19.14.09S120.77,191.26,115.47,194.29Z"/><path class="cls-24" d="M115.47,194.29c-5.3,3-13.87,3-19.14-.09s-5.25-8,0-11,13.87-3,19.14.09S120.77,191.26,115.47,194.29Z"/><path class="cls-17" d="M106,195.39a16.53,16.53,0,0,1-8.18-2c-2.17-1.27-3.37-2.95-3.36-4.75s1.22-3.47,3.41-4.72c4.47-2.56,11.73-2.53,16.18.07,2.18,1.27,3.37,3,3.36,4.75s-1.21,3.48-3.4,4.73A16.57,16.57,0,0,1,106,195.39Zm-.12-13.11a16.24,16.24,0,0,0-7.9,1.87c-2.11,1.21-3.28,2.81-3.29,4.52s1.15,3.33,3.25,4.56a17.65,17.65,0,0,0,15.95.07c2.12-1.21,3.29-2.82,3.3-4.53s-1.15-3.32-3.25-4.55A16.4,16.4,0,0,0,105.87,182.28Z"/><path class="cls-25" d="M113.94,193.4a17.77,17.77,0,0,1-16.07-.07c-4.42-2.59-4.4-6.74,0-9.28s11.65-2.51,16.07.07S118.39,190.86,113.94,193.4Z"/><path class="cls-17" d="M97.91,184.59a17.77,17.77,0,0,1,16.07.07c2.09,1.22,3.19,2.8,3.3,4.39.13-1.77-1-3.57-3.3-4.93-4.42-2.58-11.62-2.61-16.07-.07-2.34,1.34-3.45,3.12-3.33,4.89C94.7,187.36,95.81,185.79,97.91,184.59Z"/><path class="cls-21" d="M115.48,193.78c-5.3,3-13.87,3-19.14-.09-2.53-1.47-3.83-3.37-3.93-5.29-.13,2.09,1.17,4.2,3.92,5.8,5.27,3.08,13.84,3.12,19.14.09,2.77-1.58,4.09-3.68,4-5.76C119.34,190.44,118,192.33,115.48,193.78Z"/><path class="cls-17" d="M121.79,185.47l-.75,1.1a8.73,8.73,0,0,0-3.21-3c-5.27-3.08-13.84-3.12-19.14-.09a8.89,8.89,0,0,0-3.19,2.88l-.78-1v2.36h0c-.06,2,1.25,4.09,3.94,5.65,5.27,3.08,13.84,3.12,19.14.09,2.64-1.51,4-3.51,4-5.51h0Z"/><path class="cls-18" d="M117.8,191c-5.3,3-13.87,3-19.14-.08s-5.25-8,0-11,13.86-3,19.14.08S123.1,188,117.8,191Z"/><path class="cls-26" d="M117.8,191c-5.3,3-13.87,3-19.14-.08s-5.25-8,0-11,13.86-3,19.14.08S123.1,188,117.8,191Z"/><path class="cls-17" d="M108.31,192.08a16.6,16.6,0,0,1-8.17-2c-2.18-1.27-3.37-3-3.37-4.76s1.22-3.47,3.41-4.72c4.47-2.55,11.73-2.52,16.18.07,2.18,1.28,3.38,3,3.37,4.76s-1.22,3.47-3.41,4.72A16.44,16.44,0,0,1,108.31,192.08ZM108.19,179a16.27,16.27,0,0,0-7.9,1.87C98.18,182,97,183.65,97,185.36s1.15,3.32,3.25,4.55c4.39,2.56,11.55,2.59,16,.07,2.11-1.21,3.28-2.81,3.29-4.52s-1.15-3.33-3.25-4.56A16.4,16.4,0,0,0,108.19,179Z"/><path class="cls-27" d="M116.26,190.08c-4.44,2.54-11.64,2.51-16.06-.07s-4.41-6.74,0-9.28a17.77,17.77,0,0,1,16.07.07C120.73,183.39,120.71,187.54,116.26,190.08Z"/><path class="cls-17" d="M100.23,181.28c4.45-2.55,11.65-2.51,16.07.07,2.1,1.22,3.19,2.79,3.3,4.38.13-1.77-1-3.57-3.29-4.93a17.77,17.77,0,0,0-16.07-.07c-2.35,1.34-3.46,3.13-3.34,4.9C97,184,98.13,182.48,100.23,181.28Z"/><path class="cls-21" d="M117.8,190.46c-5.3,3-13.87,3-19.14-.09-2.52-1.47-3.83-3.37-3.93-5.28-.13,2.08,1.18,4.2,3.93,5.8,5.27,3.07,13.84,3.11,19.14.08,2.76-1.57,4.08-3.68,4-5.76C121.66,187.12,120.33,189,117.8,190.46Z"/><path class="cls-17" d="M139.62,202l-.75,1.11a8.67,8.67,0,0,0-3.21-3c-5.27-3.08-13.84-3.11-19.14-.09a8.93,8.93,0,0,0-3.18,2.88l-.79-1v2.36h0c-.06,2,1.24,4.09,3.93,5.66,5.27,3.07,13.84,3.11,19.14.08,2.65-1.51,4-3.51,4-5.51h0Z"/><ellipse class="cls-18" cx="126.09" cy="201.89" rx="7.81" ry="13.53" transform="matrix(0, -1, 1, 0, -76.37, 327.07)"/><ellipse class="cls-28" cx="126.09" cy="201.89" rx="7.81" ry="13.53" transform="matrix(0, -1, 1, 0, -76.37, 327.07)"/><path class="cls-17" d="M126.15,208.56a16.64,16.64,0,0,1-8.18-2c-2.17-1.27-3.37-3-3.36-4.75s1.22-3.48,3.41-4.73c4.47-2.55,11.73-2.52,16.18.08,2.18,1.27,3.37,2.95,3.36,4.75s-1.21,3.47-3.4,4.72A16.46,16.46,0,0,1,126.15,208.56ZM126,195.44a16.35,16.35,0,0,0-7.9,1.87c-2.12,1.21-3.28,2.82-3.29,4.53s1.14,3.32,3.25,4.55a17.65,17.65,0,0,0,15.95.07c2.12-1.21,3.29-2.81,3.29-4.52s-1.14-3.33-3.25-4.56A16.36,16.36,0,0,0,126,195.44Z"/><ellipse class="cls-29" cx="126.09" cy="201.89" rx="6.56" ry="11.36" transform="matrix(0, -1, 1, 0, -76.36, 327.07)"/><path class="cls-17" d="M118.07,197.76c4.45-2.55,11.64-2.51,16.07.07,2.09,1.22,3.19,2.79,3.3,4.38.13-1.77-1-3.56-3.3-4.93-4.42-2.58-11.62-2.61-16.07-.07-2.34,1.34-3.45,3.13-3.34,4.9C114.85,200.52,116,199,118.07,197.76Z"/><path class="cls-21" d="M135.63,206.94c-5.29,3-13.86,3-19.14-.09-2.52-1.47-3.83-3.37-3.93-5.28-.12,2.08,1.18,4.2,3.93,5.8,5.27,3.08,13.84,3.11,19.14.09,2.76-1.58,4.09-3.68,4-5.77C139.49,203.6,138.17,205.49,135.63,206.94Z"/><path class="cls-17" d="M112.56,206.64l-.75,1.11a8.75,8.75,0,0,0-3.21-3c-5.27-3.07-13.84-3.11-19.14-.08a8.8,8.8,0,0,0-3.19,2.88l-.78-1v2.37h0c-.06,2,1.25,4.09,3.94,5.66,5.27,3.07,13.84,3.11,19.14.09,2.65-1.52,4-3.51,4-5.51h0Z"/><ellipse class="cls-18" cx="99.02" cy="206.58" rx="7.81" ry="13.53" transform="matrix(0, -1, 1, 0, -108, 304.67)"/><ellipse class="cls-30" cx="99.02" cy="206.58" rx="7.81" ry="13.53" transform="matrix(0, -1, 1, 0, -108, 304.67)"/><path class="cls-17" d="M99.08,213.25a16.6,16.6,0,0,1-8.17-2c-2.18-1.27-3.37-2.95-3.37-4.75s1.22-3.47,3.41-4.72c4.47-2.56,11.73-2.53,16.18.07,2.18,1.27,3.38,3,3.37,4.75s-1.22,3.48-3.41,4.73A16.54,16.54,0,0,1,99.08,213.25ZM99,200.14a16.27,16.27,0,0,0-7.9,1.87c-2.11,1.2-3.28,2.81-3.29,4.52s1.15,3.33,3.25,4.56c4.39,2.55,11.55,2.59,16,.07,2.11-1.21,3.28-2.82,3.29-4.53s-1.15-3.32-3.25-4.55A16.4,16.4,0,0,0,99,200.14Z"/><path class="cls-31" d="M107,211.26c-4.44,2.54-11.64,2.51-16.06-.08s-4.41-6.73,0-9.27a17.77,17.77,0,0,1,16.07.07C111.5,204.56,111.48,208.71,107,211.26Z"/><path class="cls-17" d="M91,202.45c4.45-2.54,11.65-2.51,16.07.07,2.1,1.22,3.19,2.8,3.3,4.38.13-1.76-1-3.56-3.29-4.92A17.77,17.77,0,0,0,91,201.91c-2.35,1.34-3.46,3.12-3.34,4.89C87.79,205.22,88.9,203.65,91,202.45Z"/><path class="cls-21" d="M108.57,211.63c-5.3,3-13.87,3-19.14-.08-2.52-1.47-3.83-3.37-3.93-5.29-.13,2.09,1.18,4.2,3.93,5.8,5.27,3.08,13.84,3.12,19.14.09,2.76-1.58,4.08-3.68,4-5.77C112.43,208.3,111.1,210.19,108.57,211.63Z"/><path class="cls-17" d="M125.36,201.67l-.75,1.1a8.65,8.65,0,0,0-3.21-3c-5.27-3.08-13.84-3.12-19.14-.09a8.93,8.93,0,0,0-3.18,2.88l-.79-1v2.37h0c-.06,2,1.24,4.09,3.93,5.65,5.27,3.08,13.84,3.12,19.14.09,2.65-1.52,4-3.51,4-5.51h0Z"/><ellipse class="cls-18" cx="111.83" cy="201.6" rx="7.81" ry="13.53" transform="translate(-90.28 312.53) rotate(-89.74)"/><ellipse class="cls-32" cx="111.83" cy="201.6" rx="7.81" ry="13.53" transform="translate(-90.28 312.53) rotate(-89.74)"/><path class="cls-17" d="M111.89,208.28a16.61,16.61,0,0,1-8.18-2c-2.17-1.27-3.37-3-3.36-4.76s1.22-3.47,3.41-4.72c4.47-2.55,11.73-2.52,16.18.07,2.18,1.27,3.37,3,3.36,4.76s-1.22,3.47-3.4,4.72A16.58,16.58,0,0,1,111.89,208.28Zm-.12-13.12a16.24,16.24,0,0,0-7.9,1.87c-2.12,1.21-3.28,2.81-3.29,4.52s1.14,3.33,3.25,4.56a17.65,17.65,0,0,0,16,.07c2.12-1.21,3.29-2.81,3.29-4.52s-1.14-3.33-3.25-4.56A16.36,16.36,0,0,0,111.77,195.16Z"/><path class="cls-33" d="M119.84,206.28a17.77,17.77,0,0,1-16.07-.07c-4.42-2.58-4.41-6.74,0-9.28a17.77,17.77,0,0,1,16.07.07C124.31,199.58,124.29,203.74,119.84,206.28Z"/><path class="cls-17" d="M103.81,197.47c4.45-2.54,11.64-2.51,16.07.08,2.09,1.22,3.19,2.79,3.3,4.38.13-1.77-1-3.57-3.3-4.93a17.77,17.77,0,0,0-16.07-.07c-2.34,1.34-3.45,3.13-3.34,4.9C100.59,200.24,101.71,198.68,103.81,197.47Z"/><path class="cls-21" d="M121.37,206.66c-5.3,3-13.86,3-19.14-.09-2.52-1.47-3.83-3.37-3.93-5.28-.12,2.08,1.18,4.19,3.93,5.8,5.27,3.07,13.84,3.11,19.14.08,2.76-1.58,4.09-3.68,4-5.76C125.23,203.32,123.91,205.21,121.37,206.66Z"/><path class="cls-17" d="M128.86,199l-.75,1.11a8.75,8.75,0,0,0-3.21-3c-5.27-3.07-13.84-3.11-19.14-.08a8.83,8.83,0,0,0-3.18,2.87l-.79-1v2.36h0c-.06,2,1.24,4.09,3.93,5.66,5.27,3.07,13.84,3.11,19.14.08,2.65-1.51,4-3.5,4-5.5h0Z"/><path class="cls-18" d="M124.87,204.47c-5.3,3-13.87,3-19.14-.09s-5.25-8,0-11,13.87-3,19.14.09S130.17,201.44,124.87,204.47Z"/><path class="cls-34" d="M124.87,204.47c-5.3,3-13.87,3-19.14-.09s-5.25-8,0-11,13.87-3,19.14.09S130.17,201.44,124.87,204.47Z"/><path class="cls-17" d="M115.39,205.57a16.64,16.64,0,0,1-8.18-2c-2.17-1.27-3.37-3-3.36-4.75s1.22-3.47,3.41-4.72c4.47-2.56,11.73-2.53,16.18.07,2.18,1.27,3.37,3,3.36,4.75s-1.21,3.47-3.4,4.72A16.46,16.46,0,0,1,115.39,205.57Zm-.12-13.11a16.24,16.24,0,0,0-7.9,1.87c-2.12,1.2-3.28,2.81-3.29,4.52s1.14,3.33,3.25,4.55c4.39,2.56,11.54,2.6,16,.07,2.12-1.2,3.29-2.81,3.29-4.52s-1.14-3.33-3.25-4.55A16.26,16.26,0,0,0,115.27,192.46Z"/><path class="cls-35" d="M123.34,203.57c-4.45,2.55-11.64,2.51-16.07-.07s-4.41-6.73,0-9.27,11.65-2.51,16.07.07S127.79,201,123.34,203.57Z"/><path class="cls-17" d="M107.31,194.77a17.77,17.77,0,0,1,16.07.07c2.09,1.22,3.19,2.8,3.3,4.38.13-1.76-1-3.56-3.3-4.92-4.42-2.58-11.62-2.62-16.07-.07-2.34,1.34-3.45,3.12-3.34,4.89C104.09,197.53,105.21,196,107.31,194.77Z"/><path class="cls-21" d="M124.87,204c-5.29,3-13.86,3-19.14-.08-2.52-1.47-3.83-3.37-3.93-5.29-.12,2.09,1.18,4.2,3.93,5.8,5.27,3.08,13.84,3.12,19.14.09,2.76-1.58,4.09-3.68,4-5.77C128.73,200.62,127.41,202.5,124.87,204Z"/><path class="cls-17" d="M130.71,193.76l-.74,1.11a8.75,8.75,0,0,0-3.21-3c-5.27-3.08-13.84-3.11-19.14-.09a8.89,8.89,0,0,0-3.19,2.88l-.78-1V196h0c-.06,2,1.25,4.09,3.93,5.66,5.28,3.07,13.85,3.11,19.15.08,2.64-1.51,4-3.51,4-5.51h0Z"/><ellipse class="cls-18" cx="117.18" cy="193.7" rx="7.81" ry="13.53" transform="translate(-77.04 310.01) rotate(-89.74)"/><ellipse class="cls-36" cx="117.18" cy="193.7" rx="7.81" ry="13.53" transform="translate(-77.04 310.01) rotate(-89.74)"/><path class="cls-17" d="M117.24,200.37a16.6,16.6,0,0,1-8.17-2c-2.18-1.27-3.37-3-3.37-4.75s1.22-3.48,3.41-4.73c4.47-2.55,11.73-2.52,16.18.08,2.18,1.27,3.38,2.95,3.37,4.75s-1.22,3.47-3.41,4.72A16.44,16.44,0,0,1,117.24,200.37Zm-.12-13.12a16.38,16.38,0,0,0-7.9,1.87c-2.11,1.21-3.28,2.82-3.29,4.53s1.15,3.32,3.25,4.55c4.39,2.56,11.55,2.59,16,.07,2.11-1.21,3.28-2.81,3.29-4.52s-1.15-3.33-3.25-4.56A16.4,16.4,0,0,0,117.12,187.25Z"/><path class="cls-37" d="M125.19,198.37c-4.44,2.54-11.64,2.51-16.06-.07s-4.41-6.74,0-9.28a17.77,17.77,0,0,1,16.07.07C129.66,191.68,129.64,195.83,125.19,198.37Z"/><path class="cls-17" d="M109.16,189.57c4.45-2.55,11.65-2.51,16.07.07,2.1,1.22,3.19,2.79,3.3,4.38.13-1.77-1-3.56-3.29-4.93a17.77,17.77,0,0,0-16.07-.07c-2.35,1.34-3.46,3.13-3.34,4.9C106,192.33,107.06,190.77,109.16,189.57Z"/><path class="cls-21" d="M126.73,198.75c-5.3,3-13.87,3-19.14-.09-2.52-1.47-3.83-3.37-3.93-5.28-.13,2.08,1.18,4.2,3.93,5.8,5.27,3.08,13.84,3.11,19.14.09,2.76-1.58,4.08-3.68,4-5.77C130.59,195.41,129.26,197.3,126.73,198.75Z"/><path class="cls-17" d="M140.07,195.91l-1,.93a8.78,8.78,0,0,0-2.53-3.58c-4.53-4.09-12.91-5.88-18.72-4a8.89,8.89,0,0,0-3.71,2.16l-.55-1.17-.5,2.31h0c-.48,2,.38,4.26,2.69,6.34,4.53,4.09,12.91,5.89,18.72,4,2.9-.94,4.61-2.62,5-4.58h0Z"/><path class="cls-18" d="M135,200.49c-5.8,1.87-14.18.08-18.71-4s-3.5-8.92,2.31-10.8,14.18-.09,18.71,4S140.84,198.61,135,200.49Z"/><path class="cls-38" d="M135,200.49c-5.8,1.87-14.18.08-18.71-4s-3.5-8.92,2.31-10.8,14.18-.09,18.71,4S140.84,198.61,135,200.49Z"/><path class="cls-17" d="M125.52,199.62a16.47,16.47,0,0,1-7.59-3.6c-1.87-1.69-2.7-3.58-2.32-5.34s1.9-3.15,4.3-3.92c4.9-1.59,12-.07,15.82,3.38,1.88,1.69,2.7,3.59,2.32,5.34s-1.9,3.15-4.3,3.93A16.49,16.49,0,0,1,125.52,199.62Zm2.57-12.86A16.37,16.37,0,0,0,120,187c-2.32.75-3.79,2.09-4.15,3.76s.44,3.49,2.25,5.12c3.77,3.41,10.77,4.9,15.6,3.34,2.32-.75,3.79-2.09,4.15-3.76s-.44-3.49-2.25-5.12A16.34,16.34,0,0,0,128.09,186.76Z"/><path class="cls-39" d="M133.72,199.3A17.8,17.8,0,0,1,118,195.94c-3.8-3.44-2.93-7.5,1.94-9.07a17.77,17.77,0,0,1,15.72,3.35C139.46,193.66,138.59,197.72,133.72,199.3Z"/><path class="cls-17" d="M119.83,187.4c4.87-1.58,11.91-.08,15.71,3.36,1.8,1.62,2.56,3.38,2.33,5,.5-1.7-.21-3.69-2.21-5.5a17.77,17.77,0,0,0-15.72-3.35c-2.57.83-4,2.35-4.27,4.1C116.12,189.45,117.52,188.14,119.83,187.4Z"/><path class="cls-21" d="M135.14,200c-5.8,1.88-14.18.09-18.71-4-2.17-2-3.06-4.08-2.77-6-.55,2,.29,4.35,2.66,6.48,4.53,4.09,12.91,5.88,18.71,4,3-1,4.76-2.77,5.08-4.83C139.6,197.5,137.92,199.08,135.14,200Z"/><path class="cls-17" d="M119.43,139l-1.19.6a8.72,8.72,0,0,0-1.33-4.18c-3.07-5.28-10.51-9.53-16.61-9.5a8.89,8.89,0,0,0-4.19.93l-.18-1.28-1.17,2h0c-1.05,1.74-.92,4.17.64,6.86,3.08,5.27,10.52,9.53,16.62,9.5,3,0,5.19-1.09,6.18-2.83h0Z"/><ellipse class="cls-18" cx="107.68" cy="132.23" rx="7.81" ry="13.53" transform="translate(-60.56 160.09) rotate(-60.25)"/><ellipse class="cls-40" cx="107.68" cy="132.23" rx="7.81" ry="13.53" transform="translate(-60.56 160.09) rotate(-60.25)"/><path class="cls-17" d="M104.45,138.07a16.56,16.56,0,0,1-6.14-5.74c-1.27-2.18-1.48-4.23-.59-5.79s2.77-2.43,5.29-2.44c5.15,0,11.45,3.58,14,8,1.27,2.17,1.48,4.23.59,5.79s-2.77,2.42-5.29,2.43A16.49,16.49,0,0,1,104.45,138.07Zm6.35-11.47a16.27,16.27,0,0,0-7.79-2.27c-2.44,0-4.24.84-5.09,2.32s-.64,3.46.58,5.57a17.67,17.67,0,0,0,13.85,7.91c2.44,0,4.25-.83,5.1-2.31s.64-3.46-.59-5.57A16.33,16.33,0,0,0,110.8,126.6Z"/><path class="cls-41" d="M112.36,140.25c-5.13,0-11.37-3.55-14-8s-.51-8,4.61-8.05,11.37,3.55,13.95,8S117.48,140.23,112.36,140.25Z"/><path class="cls-17" d="M102.74,124.69c5.12,0,11.37,3.55,14,8,1.22,2.09,1.4,4,.71,5.43,1-1.47.92-3.57-.44-5.91-2.58-4.42-8.83-8-13.95-8-2.7,0-4.55,1-5.32,2.62C98.58,125.51,100.32,124.7,102.74,124.69Z"/><path class="cls-21" d="M113.5,141.33c-6.1,0-13.54-4.22-16.61-9.5-1.47-2.52-1.68-4.82-.82-6.53-1.14,1.75-1,4.23.56,7,3.08,5.27,10.52,9.53,16.62,9.5,3.18,0,5.37-1.19,6.3-3.06C118.51,140.33,116.42,141.32,113.5,141.33Z"/><path class="cls-17" d="M116.82,162.63l-.1,1.33a8.88,8.88,0,0,0-4.27-1c-6.1-.07-13.58,4.12-16.69,9.37a8.83,8.83,0,0,0-1.36,4.07l-1.19-.51,1.16,2.06h0c.95,1.81,3.1,3,6.21,3,6.1.07,13.58-4.12,16.69-9.37,1.56-2.62,1.74-5,.76-6.75h0Z"/><path class="cls-18" d="M116.06,169.39c-3.11,5.24-10.59,9.43-16.69,9.36s-8.52-4.39-5.41-9.64,10.6-9.44,16.7-9.36S119.18,164.14,116.06,169.39Z"/><path class="cls-42" d="M116.06,169.39c-3.11,5.24-10.59,9.43-16.69,9.36s-8.52-4.39-5.41-9.64,10.6-9.44,16.7-9.36S119.18,164.14,116.06,169.39Z"/><path class="cls-17" d="M108.35,175a16.58,16.58,0,0,1-8.08,2.32c-2.52,0-4.39-.91-5.27-2.48s-.65-3.62.64-5.79c2.63-4.42,9-8,14.11-7.91,2.52,0,4.4.91,5.27,2.47s.66,3.63-.63,5.79A16.47,16.47,0,0,1,108.35,175Zm-6.57-11.35a16.28,16.28,0,0,0-5.94,5.52c-1.25,2.09-1.47,4.07-.64,5.56s2.64,2.33,5.08,2.36c5.08.06,11.32-3.44,13.91-7.81,1.25-2.09,1.47-4.06.63-5.55s-2.63-2.33-5.07-2.36A16.28,16.28,0,0,0,101.78,163.67Z"/><path class="cls-43" d="M114.29,169.36c-2.62,4.41-8.89,7.93-14,7.86s-7.16-3.68-4.54-8.09,8.89-7.92,14-7.86S116.91,165,114.29,169.36Z"/><path class="cls-17" d="M96,169.61c2.62-4.41,8.89-7.93,14-7.86,2.42,0,4.15.85,5,2.18-.76-1.6-2.6-2.62-5.3-2.66-5.12-.06-11.4,3.46-14,7.86-1.38,2.32-1.47,4.43-.49,5.91C94.57,173.6,94.77,171.69,96,169.61Z"/><path class="cls-21" d="M115.81,168.94c-3.12,5.24-10.59,9.43-16.69,9.36-2.92,0-5-1.05-6-2.66.92,1.87,3.1,3.07,6.28,3.11,6.1.07,13.58-4.12,16.69-9.36,1.63-2.74,1.75-5.22.62-7C117.52,164.13,117.3,166.43,115.81,168.94Z"/><path class="cls-2" d="M36.69,162.69a2.62,2.62,0,0,1-1.33-.35l-35-20.23a.63.63,0,0,1-.32-.55A.65.65,0,0,1,.32,141l31-17.89.31.54-31,17.89,35,20.26a2.06,2.06,0,0,0,2,0l20.9-12a2.66,2.66,0,0,1,2.67,0l8.56,5-.32.53-8.55-5a2.06,2.06,0,0,0-2,0l-20.9,12A2.62,2.62,0,0,1,36.69,162.69Z"/><path class="cls-44" d="M193.27,132.87l-32.61-35L128,95.2s-5.25,44.22,32.62,91.12C198.52,183.14,193.27,132.87,193.27,132.87Z"/><polygon class="cls-45" points="128.04 95.2 120.7 99.44 153.32 102.08 160.66 97.84 128.04 95.2"/><path class="cls-46" d="M185.94,137.11l-32.62-35-13.42-1.36-19.2-1.28s-5.25,44.22,32.62,91.12C191.18,187.38,185.94,137.11,185.94,137.11Z"/><path class="cls-2" d="M185.94,137.11l-32.62-35L120.7,99.44l.92-.53,33,2.67,32.62,35s4.38,42-23.82,51.65C190.17,177.77,185.94,137.11,185.94,137.11Z"/><path class="cls-23" d="M182,137.65l-29.33-31.49-12.06-1.22-17.27-1.15s-4.71,39.75,29.33,81.92C186.69,182.85,182,137.65,182,137.65Z"/></g></g></svg>