<svg xmlns="http://www.w3.org/2000/svg" xmlns:xlink="http://www.w3.org/1999/xlink" width="603.648" height="576.524" viewBox="0 0 603.648 576.524">
  <defs>
    <linearGradient id="linear-gradient" x1="-0.358" y1="-0.396" x2="-0.863" y2="2.919" gradientUnits="objectBoundingBox">
      <stop offset="0" stop-color="#ff9085"/>
      <stop offset="1" stop-color="#fb6fbb"/>
    </linearGradient>
    <linearGradient id="linear-gradient-2" x1="7.943" y1="-2.469" x2="7.39" y2="0.777" gradientUnits="objectBoundingBox">
      <stop offset="0" stop-color="#aa80f9"/>
      <stop offset="1" stop-color="#6165d7"/>
    </linearGradient>
    <linearGradient id="linear-gradient-3" x1="-10.067" y1="0.377" x2="-9.099" y2="0.377" gradientUnits="objectBoundingBox">
      <stop offset="0" stop-color="#444b8c"/>
      <stop offset="1" stop-color="#26264f"/>
    </linearGradient>
    <linearGradient id="linear-gradient-4" x1="-16.721" y1="-0.187" x2="-17.572" y2="0.894" gradientUnits="objectBoundingBox">
      <stop offset="0" stop-color="#ffc444"/>
      <stop offset="1" stop-color="#f36f56"/>
    </linearGradient>
    <linearGradient id="linear-gradient-5" x1="-3.633" y1="1.033" x2="-3.009" y2="0.112" xlink:href="#linear-gradient-2"/>
    <linearGradient id="linear-gradient-6" x1="-7.496" y1="0.5" x2="-6.496" y2="0.5" xlink:href="#linear-gradient-3"/>
    <linearGradient id="linear-gradient-7" x1="-22.223" y1="1.151" x2="-21.079" y2="-0.562" xlink:href="#linear-gradient-4"/>
    <linearGradient id="linear-gradient-8" x1="-4.721" y1="1.033" x2="-3.949" y2="0.113" xlink:href="#linear-gradient-2"/>
    <linearGradient id="linear-gradient-9" x1="-4.749" y1="0.613" x2="-3.272" y2="0.054" xlink:href="#linear-gradient-2"/>
    <linearGradient id="linear-gradient-10" x1="-5.835" y1="-0.163" x2="-5.244" y2="0.897" gradientUnits="objectBoundingBox">
      <stop offset="0" stop-color="#311944"/>
      <stop offset="1" stop-color="#893976"/>
    </linearGradient>
    <linearGradient id="linear-gradient-11" x1="-3.152" y1="-0.15" x2="-2.499" y2="1.079" xlink:href="#linear-gradient-10"/>
    <linearGradient id="linear-gradient-12" x1="-8.016" y1="0.645" x2="-5.622" y2="0.084" xlink:href="#linear-gradient-2"/>
    <linearGradient id="linear-gradient-13" x1="-2.912" y1="-0.257" x2="-2.347" y2="0.939" xlink:href="#linear-gradient-10"/>
    <linearGradient id="linear-gradient-14" x1="-25.407" y1="1.317" x2="-25.316" y2="-0.325" xlink:href="#linear-gradient-4"/>
    <linearGradient id="linear-gradient-15" x1="-4.535" y1="0.46" x2="-3.841" y2="1.246" xlink:href="#linear-gradient-3"/>
    <linearGradient id="linear-gradient-16" x1="-20.378" y1="2.932" x2="-20.414" y2="6.094" xlink:href="#linear-gradient-4"/>
    <linearGradient id="linear-gradient-17" x1="-71.897" y1="29.976" x2="-71.71" y2="34.108" xlink:href="#linear-gradient-4"/>
    <linearGradient id="linear-gradient-18" x1="-3.628" y1="-1.04" x2="-2.95" y2="0.885" xlink:href="#linear-gradient-10"/>
    <linearGradient id="linear-gradient-19" x1="-0.883" y1="-0.866" x2="-0.422" y2="0.307" xlink:href="#linear-gradient-10"/>
    <linearGradient id="linear-gradient-20" x1="-12.161" y1="1.377" x2="-12.105" y2="-0.408" xlink:href="#linear-gradient-4"/>
    <linearGradient id="linear-gradient-21" x1="-11.192" y1="1.374" x2="-11.149" y2="-0.411" xlink:href="#linear-gradient-4"/>
    <linearGradient id="linear-gradient-22" x1="1.354" y1="0.493" x2="2.385" y2="0.493" xlink:href="#linear-gradient-3"/>
    <linearGradient id="linear-gradient-23" x1="-2.067" y1="-1.492" x2="-1.664" y2="-0.235" xlink:href="#linear-gradient-2"/>
    <linearGradient id="linear-gradient-24" x1="-16.536" y1="-17.782" x2="-13.258" y2="-4.919" xlink:href="#linear-gradient-2"/>
    <linearGradient id="linear-gradient-25" x1="-16.289" y1="-24.641" x2="-13.415" y2="-8.379" xlink:href="#linear-gradient-2"/>
    <linearGradient id="linear-gradient-26" x1="-12.437" y1="-18.317" x2="-9.553" y2="-1.892" xlink:href="#linear-gradient-2"/>
    <linearGradient id="linear-gradient-27" x1="-17.685" y1="-16.923" x2="-14.427" y2="-4.117" xlink:href="#linear-gradient-2"/>
    <linearGradient id="linear-gradient-28" x1="-8.985" y1="-4.779" x2="-8.675" y2="-3.958" xlink:href="#linear-gradient-2"/>
    <linearGradient id="linear-gradient-29" x1="-2.413" y1="-1.735" x2="-1.436" y2="-1.735" xlink:href="#linear-gradient-2"/>
    <linearGradient id="linear-gradient-30" x1="-5.012" y1="-1.651" x2="-6.217" y2="-1.746" xlink:href="#linear-gradient-10"/>
    <linearGradient id="linear-gradient-31" x1="-6.045" y1="-1.725" x2="-4.355" y2="-1.671" gradientUnits="objectBoundingBox">
      <stop offset="0" stop-color="#e38ddd"/>
      <stop offset="1" stop-color="#9571f6"/>
    </linearGradient>
    <linearGradient id="linear-gradient-32" x1="-41.802" y1="-20.537" x2="-38.348" y2="-18.495" gradientUnits="objectBoundingBox">
      <stop offset="0" stop-color="#f57e53"/>
      <stop offset="0" stop-color="#f68252"/>
      <stop offset="0.04" stop-color="#f99a4d"/>
      <stop offset="0.08" stop-color="#fcad49"/>
      <stop offset="0.13" stop-color="#feba46"/>
      <stop offset="0.2" stop-color="#ffc244"/>
      <stop offset="0.32" stop-color="#ffc444"/>
      <stop offset="0.45" stop-color="#fdb946"/>
      <stop offset="0.69" stop-color="#f99c4c"/>
      <stop offset="1" stop-color="#f36f56"/>
    </linearGradient>
    <linearGradient id="linear-gradient-33" x1="-46.288" y1="-21.968" x2="-45.423" y2="-21.968" xlink:href="#linear-gradient"/>
    <linearGradient id="linear-gradient-34" x1="-130.04" y1="-24.651" x2="-127.671" y2="-24.651" xlink:href="#linear-gradient"/>
    <linearGradient id="linear-gradient-35" x1="-130.854" y1="-24.471" x2="-128.48" y2="-24.471" xlink:href="#linear-gradient"/>
    <linearGradient id="linear-gradient-36" x1="-131.642" y1="-24.292" x2="-129.264" y2="-24.292" xlink:href="#linear-gradient"/>
    <linearGradient id="linear-gradient-37" x1="-63.624" y1="-35.844" x2="-62.944" y2="-35.844" xlink:href="#linear-gradient"/>
    <linearGradient id="linear-gradient-38" x1="-10.104" y1="-2.052" x2="-7.525" y2="-1.989" gradientUnits="objectBoundingBox">
      <stop offset="0" stop-color="#fb6fbb"/>
      <stop offset="1" stop-color="#ff9085"/>
    </linearGradient>
    <linearGradient id="linear-gradient-39" x1="-50.456" y1="-11.224" x2="-48.667" y2="-11.224" xlink:href="#linear-gradient-38"/>
    <linearGradient id="linear-gradient-40" x1="-40.469" y1="-7.41" x2="-38.54" y2="-7.41" xlink:href="#linear-gradient-38"/>
    <linearGradient id="linear-gradient-41" x1="-34.634" y1="-18.181" x2="-33.593" y2="-18.181" xlink:href="#linear-gradient"/>
    <linearGradient id="linear-gradient-42" x1="0.329" y1="0.554" x2="-0.255" y2="0.738" gradientUnits="objectBoundingBox">
      <stop offset="0" stop-color="#fcb148"/>
      <stop offset="0.05" stop-color="#fdba46"/>
      <stop offset="0.14" stop-color="#ffc244"/>
      <stop offset="0.32" stop-color="#ffc444"/>
      <stop offset="0.48" stop-color="#fdb946"/>
      <stop offset="0.78" stop-color="#f99c4d"/>
      <stop offset="0.87" stop-color="#f8924f"/>
      <stop offset="1" stop-color="#f8924f"/>
    </linearGradient>
    <linearGradient id="linear-gradient-43" x1="0.727" y1="0.007" x2="0.207" y2="1.135" gradientUnits="objectBoundingBox">
      <stop offset="0" stop-color="#ffdb44"/>
      <stop offset="1" stop-color="#feef06"/>
    </linearGradient>
    <linearGradient id="linear-gradient-44" x1="0.636" y1="1.231" x2="0.531" y2="0.666" xlink:href="#linear-gradient-42"/>
    <linearGradient id="linear-gradient-45" x1="0.409" y1="0.31" x2="0.858" y2="1.247" xlink:href="#linear-gradient-42"/>
    <linearGradient id="linear-gradient-46" x1="0.253" y1="0.019" x2="0.711" y2="1.039" xlink:href="#linear-gradient-43"/>
    <linearGradient id="linear-gradient-47" x1="0.464" y1="0.369" x2="1.215" y2="1.306" xlink:href="#linear-gradient-42"/>
    <linearGradient id="linear-gradient-50" x1="0.636" y1="1.231" x2="0.531" y2="0.666" xlink:href="#linear-gradient-42"/>
    <linearGradient id="linear-gradient-52" x1="0.253" y1="0.019" x2="0.711" y2="1.039" xlink:href="#linear-gradient-43"/>
    <linearGradient id="linear-gradient-53" x1="0.464" y1="0.369" x2="1.215" y2="1.306" xlink:href="#linear-gradient-42"/>
    <linearGradient id="linear-gradient-54" x1="0.641" y1="-0.993" x2="0.376" y2="1.775" gradientUnits="objectBoundingBox">
      <stop offset="0" stop-color="#ab316d"/>
      <stop offset="1" stop-color="#792d3d"/>
    </linearGradient>
    <linearGradient id="linear-gradient-55" x1="3.311" y1="-0.817" x2="-0.513" y2="0.923" xlink:href="#linear-gradient-54"/>
    <linearGradient id="linear-gradient-56" x1="4.112" y1="-0.532" x2="-0.545" y2="0.957" xlink:href="#linear-gradient-54"/>
    <linearGradient id="linear-gradient-57" x1="3.69" y1="-0.716" x2="-0.502" y2="0.882" xlink:href="#linear-gradient-4"/>
  </defs>
  <g id="sec2img" transform="translate(0.001 -0.009)">
    <g id="Illustration" transform="translate(-0.001 0.009)">
      <path id="Path_639" data-name="Path 639" d="M706.942,1088.8C557.188,1066.126,435.5,924.54,457.6,767.172c18.862-134.21,136.53-238.656,277.635-248.519q15.324-1.078,30.984-.634a308.34,308.34,0,0,1,200.385,81.4c51.485,47.416,84.942,110.838,91.023,177.375C1073.85,953.832,893.2,1117.011,706.942,1088.8Z" transform="translate(-454.999 -517.889)" fill="#f4f7fa"/>
      <path id="Path_640" data-name="Path 640" d="M601.421,2362.277c-35.02-4.5-79.421-16.32-97.254-49.656-4.243-7.929-8.5-23.336,2.21-29.137,9.788-5.3,22.445.3,29.719,7.2,5.349,5.075,9.523,16.4,15.522,19.98,8.8,5.241,13.53-9.055,13.345-14.961-.414-13.2-16.646-18.6-27.432-21.464-17.907-4.755-38.756-8.839-37.633-29.011s20.8-32.283,35.932-23.457c12.47,7.276,10.715,22.8,19.235,32.123,7.569,8.276,10.2-5.157,9.7-11.741-1.1-14.3-13.675-24.65-22.93-34.237-10.454-10.846-22.014-32.647-10.859-46.977,6.418-8.247,22.721-10.178,32.358-8.788,47.169,6.81,15.891,67.853,24.467,74.662s16.691-5.111,16.669-23.238,2.753-31.5,21.671-25.7,22.518,53.151.916,71.359,1.356,38.049,7.155,25.008c4.187-9.417,7.867-34.076,19.968-36.78,20.16-4.5,19.862,36.67,14.058,46.25-8.132,13.432-26.517,16.348-36.794,27.936-2.984,3.365-9.721,11.7-7.115,16.624,3.65,6.862,13.832-.479,17.573-3.665,8.408-7.151,20.049-31.452,31.907-15.307C688.441,2329.223,663.976,2358.758,601.421,2362.277Z" transform="translate(-490.016 -1799.499)" fill="url(#linear-gradient)"/>
      <g id="Group_20" data-name="Group 20" transform="translate(74.576 398.974)" opacity="0.8">
        <path id="Path_641" data-name="Path 641" d="M832.7,2529.355a1.778,1.778,0,0,0,1.509-1.768c.013-.713.987-72.641-30.361-158.026a1.554,1.554,0,0,0-1.94-.97,1.475,1.475,0,0,0-.9,1.909c31.155,84.846,30.182,156.329,30.182,157.038a1.753,1.753,0,0,0,1.485,1.806Z" transform="translate(-800.92 -2368.517)" fill="#fff"/>
      </g>
      <path id="Path_642" data-name="Path 642" d="M707.24,2636.689c1.175-7.36,15.249-9.46,20.912-10.532,3.29-.621,7.977-1.259,9.66-4.659,1.776-3.568-.923-6.328-4.383-6.959-6.2-1.132-12.86,2.8-18.618,4.594-6.185,1.923-12.6,2.829-18.735.172-4.89-2.117-9.9-7.149-10.961-12.444-2.945-14.66,11.739-13.815,21.307-11.756,4.644,1,13.772,1.753,14.591-4.808.862-6.98-8.011-10.5-13.5-10.71-7.17-.272-14.229,1.294-21.343,1.819-6.414.465-14.013-.233-15.788-7.612-1.373-5.7,1.837-12.257,6.468-15.639,10.717-7.821,24.84,5.515,36.281,5.487,4.044,0,10.721-2.977,11.84-7.33,1.136-4.426-4.611-7.405-7.761-9.02-9.339-4.782-52.239-10.907-36.866-29.43,3.868-4.661,11.34-8.58,17.372-8.746,11.379-.31,24.165,7.412,32.931,14.076a120.084,120.084,0,0,1,33.688,40.353c17.312,34.154,8.925,57.054,8.925,57.054-5.019,8.276-12.786,16.885-21.343,21.546-10.055,5.483-25.629,7.889-36.566,3.628C711.836,2644.4,706.513,2641.24,707.24,2636.689Z" transform="translate(-623.699 -2079.824)" fill="url(#linear-gradient-2)"/>
      <path id="Path_643" data-name="Path 643" d="M2056.4,1769.284l-14.533.981a113.315,113.315,0,0,0-6.578-18.724l12.056-8.091a7.153,7.153,0,0,0,1.891-9.982l-14.065-20.7a7.289,7.289,0,0,0-10.051-2.011l-12.219,8.156a116.606,116.606,0,0,0-15.074-13.022l6.444-13.231a7.274,7.274,0,0,0-3.4-9.678l-22.637-11.142a7.245,7.245,0,0,0-9.734,3.234l-6.487,13.271a116.433,116.433,0,0,0-19.634-3.88l-1.13-14.875a7.438,7.438,0,0,0-7.858-6.8l-25.308,1.494a7.172,7.172,0,0,0-6.8,7.688l1.132,14.93a114.888,114.888,0,0,0-19.032,6.252l-8.539-12.435a7.526,7.526,0,0,0-10.288-2.059l-21.182,13.916a7.181,7.181,0,0,0-1.96,10.133l8.565,12.448a114.693,114.693,0,0,0-13.291,14.975l-13.7-6.618a7.471,7.471,0,0,0-9.962,3.314l-11.211,22.684a7.3,7.3,0,0,0,3.486,9.812l13.6,6.53a111.974,111.974,0,0,0-3.831,19.733l-15.061,1.016a7.342,7.342,0,0,0-6.914,7.824l1.919,25.278a7.462,7.462,0,0,0,8.022,6.793l14.938-1.05a113.355,113.355,0,0,0,6.7,19.116l-12.288,8.192a7.246,7.246,0,0,0-1.971,10.187l14.522,20.912a7.546,7.546,0,0,0,10.348,1.915l12.194-8.192a116.636,116.636,0,0,0,15.559,13.2l-6.373,13.036a7.242,7.242,0,0,0,3.467,9.749l23.068,10.861a7.459,7.459,0,0,0,9.87-3.45l6.289-12.914a116.283,116.283,0,0,0,20.108,3.665l1.078,14.276a7.293,7.293,0,0,0,7.884,6.683l25.271-1.994a7.317,7.317,0,0,0,6.75-7.811l-1.078-14.229a115.006,115.006,0,0,0,19.149-6.668l8.067,11.724a7.3,7.3,0,0,0,10.12,1.869l20.725-14.13a7.216,7.216,0,0,0,1.9-10.044l-8.091-11.795a114.522,114.522,0,0,0,13.06-15.177l12.936,6.207a7.231,7.231,0,0,0,9.643-3.37l10.792-22.4a7.211,7.211,0,0,0-3.376-9.617L2041.354,1829a111.977,111.977,0,0,0,3.6-19.534l14.414-1.014a7.151,7.151,0,0,0,6.638-7.679l-1.882-24.777A7.268,7.268,0,0,0,2056.4,1769.284ZM1925.4,1724.761c40.731-2.587,76.044,27.91,79.095,68.1s-27.291,75.215-67.99,78.244c-40.944,3.044-76.818-27.4-79.9-68.046S1884.417,1727.365,1925.4,1724.761Z" transform="translate(-1504.608 -1415.952)" fill="#d8dee8" opacity="0.7"/>
      <path id="Path_644" data-name="Path 644" d="M2274.688,924.116l-7.99.539a62.462,62.462,0,0,0-3.617-10.294l6.629-4.448a3.933,3.933,0,0,0,1.037-5.487l-7.731-11.377a4.01,4.01,0,0,0-5.525-1.106l-6.718,4.484a64.127,64.127,0,0,0-8.287-7.16l3.542-7.272a4,4,0,0,0-1.868-5.321l-12.448-6.125a3.979,3.979,0,0,0-5.351,1.779l-3.568,7.3A63.983,63.983,0,0,0,2212,877.488l-.621-8.182a4.1,4.1,0,0,0-4.312-3.74l-13.914.819a3.945,3.945,0,0,0-3.745,4.228l.623,8.207a63.068,63.068,0,0,0-10.463,3.449l-4.693-6.843a4.139,4.139,0,0,0-5.657-1.132l-11.642,7.647a3.95,3.95,0,0,0-1.078,5.567l4.708,6.843a63.024,63.024,0,0,0-7.306,8.233l-7.545-3.639a4.108,4.108,0,0,0-5.477,1.822l-6.164,12.472a4.016,4.016,0,0,0,1.917,5.39l7.479,3.59a61.612,61.612,0,0,0-2.106,10.848l-8.28.558a4.036,4.036,0,0,0-3.8,4.312l1.054,13.9a4.1,4.1,0,0,0,4.411,3.736l8.214-.58a62.1,62.1,0,0,0,3.685,10.512l-6.748,4.5a3.98,3.98,0,0,0-1.078,5.605l7.977,11.5a4.139,4.139,0,0,0,5.694,1.052l6.7-4.5a64.234,64.234,0,0,0,8.552,7.261l-3.5,7.166a3.983,3.983,0,0,0,1.905,5.359l12.68,5.972a4.1,4.1,0,0,0,5.437-1.9l3.449-7.1a63.744,63.744,0,0,0,11.055,2.016l.6,7.85a4.01,4.01,0,0,0,4.336,3.665l13.892-1.1a4.021,4.021,0,0,0,3.711-4.295l-.593-7.824a63.314,63.314,0,0,0,10.527-3.665l4.435,6.446a4.015,4.015,0,0,0,5.564,1.028l11.394-7.761a3.968,3.968,0,0,0,1.046-5.521l-4.449-6.485a62.845,62.845,0,0,0,7.181-8.345l7.114,3.413a3.975,3.975,0,0,0,5.3-1.852l5.933-12.317a3.967,3.967,0,0,0-1.857-5.288l-7.114-3.449a61.511,61.511,0,0,0,1.979-10.739l7.908-.552a3.931,3.931,0,0,0,3.65-4.221l-1.035-13.621A3.992,3.992,0,0,0,2274.688,924.116Zm-72.024-24.478a40.894,40.894,0,0,1,43.482,37.441,40.218,40.218,0,0,1-37.376,43.014c-22.512,1.675-42.234-15.07-43.928-37.409A40.206,40.206,0,0,1,2202.663,899.638Z" transform="translate(-1768.822 -790.606)" fill="#d8dee8" opacity="0.7"/>
      <path id="Path_645" data-name="Path 645" d="M2786.938,3050.449c4.368,3.532,4.616,6.037,4.474,7.261-.226,1.971-1.712,2.736-5.267,6.457-4.81,5.031-4.074,5.7-6.524,7.524-5.405,4.016-13.049,3.751-13.509,2.385-.325-.96,3.133-1.74,7.067-6.3a24.77,24.77,0,0,0,5.187-9.591,23.157,23.157,0,0,0,.782-5.474Z" transform="translate(-2267.847 -2504.459)" fill="url(#linear-gradient-3)"/>
      <path id="Path_646" data-name="Path 646" d="M2794.929,2980.712l8.6,14.988c2.072.918,4.053.455,5.89-2.219l-3.357-18.221Z" transform="translate(-2290.468 -2445.479)" fill="url(#linear-gradient-4)"/>
      <path id="Path_647" data-name="Path 647" d="M2654.807,2096.9a180.5,180.5,0,0,0-24.724,78.369,177.805,177.805,0,0,0,10.329,74.57c7.216,19.4,19.761,39.782,27.05,49.495,4.915-2.057,7.808-5.28,12.72-7.33-.737-2.673-3.019-11.506-4.452-16.768-1.11-4.075-3.161-11.618-3.584-13.229-3.529-13.5-.741-23.624-1.724-40.315-1.132-19.468-5.593-17.206-4.922-28.889,1-17.45,10.889-21.524,22.243-46.783,7.761-17.29,15.931-35.449,8.431-45.377C2686.746,2088.133,2658.015,2095.99,2654.807,2096.9Z" transform="translate(-2160.773 -1753.92)" fill="url(#linear-gradient-5)"/>
      <path id="Path_648" data-name="Path 648" d="M2917.339,3110.672c2.621,1.667,4.2,5.627,3.007,8.121-1.173,2.451-4.163,1.677-11.426,3.911-7.783,2.391-9.323,4.807-15.059,4.8-2.317,0-6.519-.4-6.871-1.96-.245-1.095,1.537-2.186,7.41-6.131,8.339-5.605,8.25-5.759,10.113-6.619C2909.181,3110.646,2913.881,3108.48,2917.339,3110.672Z" transform="translate(-2362.664 -2550.981)" fill="url(#linear-gradient-6)"/>
      <path id="Path_649" data-name="Path 649" d="M2970.11,3059l3.193,14.591c.446.647,5,2.214,8.181,0L2980.31,3059Z" transform="translate(-2427.881 -2511.166)" fill="url(#linear-gradient-7)"/>
      <path id="Path_650" data-name="Path 650" d="M2744.76,2100.613c-9.443-12.5-38.174-4.641-41.393-3.73a182.289,182.289,0,0,0-11.857,23.89c10.182-2,14.6-.183,16.66,2.231,7.994,9.374-17.031,30.07-11.887,61.477,2.014,12.289,7.265,17.81,6.3,32.813-.714,11.163-4.183,16.816-6.58,24.989a65.87,65.87,0,0,0-2.6,18.221,228.8,228.8,0,0,0,22.613,38.806c4.916-2.057,7.808-5.28,12.72-7.33-.738-2.674-3.019-11.506-4.452-16.769-1.111-4.074-3.161-11.618-3.584-13.228-3.529-13.5-.742-23.624-1.724-40.315-1.132-19.468-5.593-17.206-4.922-28.889,1-17.449,10.889-21.524,22.242-46.783C2744.1,2128.7,2752.26,2110.541,2744.76,2100.613Z" transform="translate(-2209.345 -1753.901)" opacity="0.3" fill="url(#linear-gradient-8)"/>
      <path id="Path_651" data-name="Path 651" d="M2849.818,2101.683a732.1,732.1,0,0,0,23.462,203.032,13.01,13.01,0,0,0,8.7,1.479,12.762,12.762,0,0,0,6.037-2.982,118.242,118.242,0,0,1-.9-23.762c1.078-17.2,5.137-20.709,6.875-38.512a147.49,147.49,0,0,0-.862-34.279c-2.4-18.2-5.651-18.577-5.715-29.477-.1-16.788,7.576-22.8,11.8-38.791,2.816-10.669,4.312-26.6-2.771-48.44Z" transform="translate(-2333.343 -1751.032)" fill="url(#linear-gradient-9)"/>
      <path id="Path_652" data-name="Path 652" d="M2620.332,1541.89a79.513,79.513,0,0,0-21.024,16.975c-17.042,19.515-27.581,51.629-16.629,62.135,7.453,7.149,25.127,4.982,31.216-3.5,4.477-6.241,1.254-13.9-.293-24.792C2611.939,1580.985,2612.008,1563.986,2620.332,1541.89Z" transform="translate(-2120.467 -1321.127)" fill="url(#linear-gradient-10)"/>
      <path id="Path_653" data-name="Path 653" d="M2807.971,1652.1c-6.31-83.176-26.429-117.224-24.672-127.331-2.531-1.822-12.534-4.715-35.2-1.725a37.624,37.624,0,0,0-12.23,7.481,36.617,36.617,0,0,0-2.82,2.995c15.921,3.005,32.14,12.073,37.978,24.915,10.113,24.56-8.669,52.008,0,73.679,4.555,11.39,11.843,21.483,20.541,30.92C2801.517,1660.552,2808.333,1656.9,2807.971,1652.1Z" transform="translate(-2241.929 -1305.335)" fill="url(#linear-gradient-11)"/>
      <path id="Path_654" data-name="Path 654" d="M2968.955,2090l-13.649,3.434a73.151,73.151,0,0,1,1.919,34.466c-3.794,19.286-13.6,23.516-15.042,40.908-1.294,15.646,6.09,18.836,9.626,39.7,3.624,21.385-1.86,31.444-3.019,49.329-.785,12.241.489,28.255,7.936,47.747a13.012,13.012,0,0,0,3.794-2.326,118.281,118.281,0,0,1-.9-23.762c1.078-17.2,5.137-20.709,6.875-38.512a147.5,147.5,0,0,0-.862-34.279c-2.4-18.2-5.651-18.577-5.716-29.477-.1-16.788,7.575-22.8,11.795-38.791C2974.541,2127.76,2976.032,2111.832,2968.955,2090Z" transform="translate(-2405.857 -1751.071)" opacity="0.3" fill="url(#linear-gradient-12)"/>
      <path id="Path_655" data-name="Path 655" d="M2692.96,1530.524a44.214,44.214,0,0,0-9.547,13.549c-5.3,12.144.407,22.57,2.12,42.4,1.877,21.757-.779,57.993-6.9,70.984a3.1,3.1,0,0,0-.263,1.69c1.654,12.547,87.96,9.7,86.69-7.046-6.31-83.176-26.429-117.224-24.672-127.331-2.531-1.822-12.534-4.715-35.2-1.725A37.6,37.6,0,0,0,2692.96,1530.524Z" transform="translate(-2199.019 -1305.335)" fill="url(#linear-gradient-13)"/>
      <path id="Path_656" data-name="Path 656" d="M2830.072,1430.84s5.573,17.493,7.377,19.6-7.244,7.608-14.181,5.126c-6.37-2.279,0-11.989,0-11.989Z" transform="translate(-2310.476 -1234.018)" fill="url(#linear-gradient-14)"/>
      <path id="Path_657" data-name="Path 657" d="M2779.765,1355.074a10.963,10.963,0,0,1,1.229-12.5c2.675-2.889,6.528-3.018,8.839-3.1,6.683-.233,14.818,3.206,17.232,9.535,1.431,3.751-2.9,10.956-3.592,12.258-.783,1.473-2.025,1.9-3.224,2.962-1.666,1.477-4.275,3.827-8.542,7.761a27.191,27.191,0,0,0-1.142-4.6,24.217,24.217,0,0,0-2.719-5.534C2784.73,1357.365,2781.835,1358.332,2779.765,1355.074Z" transform="translate(-2277.466 -1162.338)" fill="url(#linear-gradient-15)"/>
      <path id="Path_658" data-name="Path 658" d="M2796.471,1412.7s-4.928,6.791-13.552,5.528c-7.719-1.132-7.453-18.627-2.2-21.921,1.753-1.1,5.107-1.343,7.74-.371,1.554.573,2.039,1.279,4.6,2.156,2.358.819,3.061.608,3.74,1.278.847.839,1.363,2.771-.567,7.736,1.6-1.38,3.425-1.811,4.637-1.115a2.645,2.645,0,0,1,.951,1.089C2802.745,1409.169,2800.724,1411.562,2796.471,1412.7Z" transform="translate(-2276.347 -1206.165)" fill="url(#linear-gradient-16)"/>
      <path id="Path_659" data-name="Path 659" d="M2787.4,1462.284a9.451,9.451,0,0,0,4.515,1.078c.142,0,.293.058.306.132.045.28-1.912,1.363-3.587.744-1.188-.431-2.039-1.668-1.854-1.94C2786.857,1462.17,2787.131,1462.215,2787.4,1462.284Z" transform="translate(-2284.054 -1258.631)" fill="url(#linear-gradient-17)"/>
      <path id="Path_660" data-name="Path 660" d="M2793.723,1778.793c-9.419,3.307-21.917,12.6-22.755,24.5-1.294,18.286,25.946,28.32,22.317,41.132-.99,3.493-4.118,6.645-24.5,14.013-8.251,2.977-15.915,5.4-22.872,7.414,24.945,3.676,73.1-1.067,72.148-13.61a482.758,482.758,0,0,0-11.316-75.316A35.009,35.009,0,0,0,2793.723,1778.793Z" transform="translate(-2252.017 -1505.466)" opacity="0.3" fill="url(#linear-gradient-18)"/>
      <path id="Path_661" data-name="Path 661" d="M2830.15,1623.934c15.319,15.552,37.191,20.453,54,12.672,23.353-10.806,26.964-41.443,21.52-60.617-9.092-32.01-48.706-50.678-61.186-42.152-9.027,6.168-8.94,30.027,1.815,41.971,9.669,10.736,24.519,8.024,28.559,18.972,3.018,8.192-2.82,16.445-3.322,17.133-6.5,8.9-20.673,11.92-34.063,5.808Z" transform="translate(-2318.095 -1313.194)" fill="url(#linear-gradient-19)"/>
      <path id="Path_662" data-name="Path 662" d="M2687.9,1810.852c1.248-4.005,5.3-6.06,8.49-6.5,3.12-.431,8.264.274,10.312,4.355,1.914,3.816.407,9.154-4,12.049-.619-1.537-1.724-3.559-3.684-4.174-3.6-1.128-6.713,3.559-9.372,2.335C2687.532,1817.936,2686.982,1813.795,2687.9,1810.852Z" transform="translate(-2206.177 -1526.916)" fill="url(#linear-gradient-20)"/>
      <path id="Path_663" data-name="Path 663" d="M2723.778,1856.105l11.788,2.048a3.27,3.27,0,0,0,3.758-3.9l-4.29-19.944a3.268,3.268,0,0,0-3.018-2.587l-14.115-.757a3.27,3.27,0,0,0-3.255,4.359l6.614,18.648a3.267,3.267,0,0,0,2.518,2.134Z" transform="translate(-2227.345 -1547.876)" fill="#fff"/>
      <path id="Path_664" data-name="Path 664" d="M2774.165,1904.012c-.968-6.944-3.9-8.762-4.958-9.27-1.776-.862-2.654-.194-8.854-.293-5.541-.089-6.853-.647-7.546.293-1.328,1.794,1.4,6.511,4.491,9.27a17.973,17.973,0,0,0,11.917,4.215Z" transform="translate(-2257.156 -1597.486)" fill="url(#linear-gradient-21)"/>
      <path id="Path_665" data-name="Path 665" d="M1005.393,554.2l51.015,513.076c.761,7.641-4.5,14.322-11.708,14.848l-248.573,20.819c-15.151.53-23.329-7.632-24.146-15.716L716.706,544.142c-.83-8.158,6.739-15.378,22.046-15.068L990.7,539.7C998.023,539.969,1004.624,546.5,1005.393,554.2Z" transform="translate(-660.237 -526.656)" fill="url(#linear-gradient-22)"/>
      <path id="Path_666" data-name="Path 666" d="M1053.344,553.492l51.224,515.719c.763,7.679-4.527,14.395-11.756,14.925l-257.7,18.892a15.337,15.337,0,0,1-16.15-13.7L763.449,543.35A12.671,12.671,0,0,1,776.816,529l261.782,9.909C1045.947,539.181,1052.574,545.746,1053.344,553.492Z" transform="translate(-696.89 -526.597)" fill="#26264f"/>
      <path id="Path_667" data-name="Path 667" d="M1092.862,696.83l47.513,478c.714,7.175-4.23,13.438-10.995,13.918L887,1205.976a14.3,14.3,0,0,1-15.018-12.793L820.738,688.892a11.862,11.862,0,0,1,12.411-13.438l245.937,7.828C1085.946,683.5,1092.142,689.6,1092.862,696.83Z" transform="translate(-741.833 -641.48)" fill="#d8dee8"/>
      <path id="Path_668" data-name="Path 668" d="M1443.083,609.162a4.2,4.2,0,0,1-4.353,4.831,5.82,5.82,0,0,1-5.366-5.174,4.2,4.2,0,0,1,4.361-4.831A5.822,5.822,0,0,1,1443.083,609.162Z" transform="translate(-1222.419 -585.424)" fill="#fff"/>
      <g id="Group_21" data-name="Group 21" transform="translate(66.482 2.385)" opacity="0.3">
        <path id="Path_669" data-name="Path 669" d="M893.7,802.038c-25.612-75.671,18.972-113.8-6.28-183.9-13.744-38.127-41.229-66.544-71.476-87.691l-39.125-1.49a12.668,12.668,0,0,0-13.367,14.35l55.52,545.973a15.337,15.337,0,0,0,16.15,13.7l222.487-16.309c-.7-57.008-15.182-97.58-31.288-126.423C982.053,881.017,920.216,880.4,893.7,802.038Z" transform="translate(-763.372 -528.951)" fill="#f4f7fa"/>
      </g>
      <path id="Path_670" data-name="Path 670" d="M1369.452,953.86l115.109,95.355c-98.985,44.512-87.466,180.564-186.451,225.074L1183,1178.936C1281.988,1134.424,1270.467,998.37,1369.452,953.86Z" transform="translate(-1026.052 -859.87)" fill="url(#linear-gradient-23)"/>
      <path id="Path_671" data-name="Path 671" d="M1535.753,1093.328c-83.972,47.315-80.807,166.814-164.779,214.131L1273,1226.3c83.972-47.317,80.807-166.816,164.776-214.131Z" transform="translate(-1096.649 -905.609)" fill="#fff"/>
      <path id="Path_672" data-name="Path 672" d="M1219.818,1923.423c.431.358.811.7,1.2,1.078l.1.1c4.467,4.3,6.563,9.732,6.037,14.929a16.574,16.574,0,0,1-7.576,12.09,23.634,23.634,0,0,1-2.186,1.318,31.123,31.123,0,0,1-9.818,3.186L1183,1935.757a131.969,131.969,0,0,0,28.083-17.077A25.344,25.344,0,0,1,1219.818,1923.423Z" transform="translate(-1026.051 -1616.686)" fill="url(#linear-gradient-24)"/>
      <path id="Path_673" data-name="Path 673" d="M1647.371,2302.112a22.813,22.813,0,0,1,5.989,7.66,131.969,131.969,0,0,1-27.955,16.973l-25.155-20.838a32.579,32.579,0,0,1,7.33-5.252q1.158-.62,2.371-1.173c11.948-5.482,26.6-5.48,36.368,1.8.039.025.076.056.114.086C1646.74,2301.6,1647.071,2301.865,1647.371,2302.112Z" transform="translate(-1353.347 -1912.324)" fill="url(#linear-gradient-25)"/>
      <path id="Path_674" data-name="Path 674" d="M1945.617,953.86l24.577,20.364a32.551,32.551,0,0,1-7.33,5.252q-1.158.624-2.361,1.175c-11.827,5.422-26.261,5.508-36.031-1.548-.457-.326-.83-.61-1.261-.966a20,20,0,0,1-5.692-7.2A132.044,132.044,0,0,1,1945.617,953.86Z" transform="translate(-1602.218 -859.87)" fill="url(#linear-gradient-26)"/>
      <path id="Path_675" data-name="Path 675" d="M2393.765,1299.5l25.156,20.839a131.941,131.941,0,0,0-27.954,16.974,29.343,29.343,0,0,1-9.292-5c-.3-.25-.62-.524-.905-.789-.034-.032-.071-.062-.1-.095a18.866,18.866,0,0,1-6.5-14.058c.084-4.967,2.544-9.846,7.632-13.336a23.683,23.683,0,0,1,2.171-1.334A31.058,31.058,0,0,1,2393.765,1299.5Z" transform="translate(-1960.411 -1130.994)" fill="url(#linear-gradient-27)"/>
      <path id="Path_676" data-name="Path 676" d="M1760.8,1480.4c18.375,15.22,23.8,44.948,13.215,67.3s-35.085,27.289-53.625,11.933c-18.375-15.223-23.8-44.948-13.215-67.3S1742.264,1465.043,1760.8,1480.4Z" transform="translate(-1433.013 -1265.93)" fill="url(#linear-gradient-28)"/>
      <path id="Path_677" data-name="Path 677" d="M1801.244,1585.255c-3.234.759-6.58,2.956-10.446,7.459l-8.17-6.769.319-.561a27.286,27.286,0,0,1,3.555-4.846,22.962,22.962,0,0,1,2.344-2.191,2.266,2.266,0,0,0,.021-3.234l-3.361-3.385a1.624,1.624,0,0,0-2.371-.058c-1.1,1.112-2.193,2.372-3.191,3.585a50.026,50.026,0,0,0-3.784,5.318l-2.856-2.371a1.585,1.585,0,0,0-2.484.345,2.262,2.262,0,0,0,.541,2.863l2.917,2.416c-2.33,4.812-3.307,9.316-2.861,13.388a14.923,14.923,0,0,0,5.528,10.174q4.7,3.881,9.524,2.732t9.943-7.33l9.076,7.563a36.41,36.41,0,0,1-4.021,5.694,33.059,33.059,0,0,1-3.066,3.1,2.441,2.441,0,0,0,0,3.428l4.357,4.312a1.614,1.614,0,0,0,2.4-.021,41.514,41.514,0,0,0,3.115-3.84,56.875,56.875,0,0,0,3.831-6.179c.147-.274.293-.547.431-.821l3.109,2.574a1.469,1.469,0,0,0,2.4-.4l.015-.033a2.427,2.427,0,0,0-.625-2.9l-3.152-2.611a29.611,29.611,0,0,0,2.451-10.191,20.9,20.9,0,0,0-.2-4.075,16.293,16.293,0,0,0-5.9-10.512C1807.6,1585.36,1804.464,1584.511,1801.244,1585.255Zm-2.408,14.6a8.071,8.071,0,0,1,3.725-2.49,3.927,3.927,0,0,1,3.357,1.009,5.911,5.911,0,0,1,2.143,3.693,7.8,7.8,0,0,1-.888,4.7Zm-13.8-1.94a3.351,3.351,0,0,1-3.018-.832,5.08,5.08,0,0,1-1.83-3.314,9.262,9.262,0,0,1,.686-4.452l7.5,6.215a6.849,6.849,0,0,1-3.348,2.378Z" transform="translate(-1486.916 -1344.106)" fill="#fff"/>
      <path id="Path_678" data-name="Path 678" d="M1493.044,1384.942l.373.31c-98.985,44.512-87.466,180.564-186.451,225.074l-112.675-93.339a144.05,144.05,0,0,1,17.726-.817,134.922,134.922,0,0,1,24.005,2.572,162.859,162.859,0,0,1,31.937,9.993c57.849,24.549,74.473,3.881,84.511-31.027,2.753-9.255,5.131-19.442,8.013-29.8,1.27-4.553,2.689-9.143,4.269-13.7a168.16,168.16,0,0,1,11.336-25.9c14.733-27.953,40.6-46.871,72.582-46.026a90.022,90.022,0,0,1,17.825,2.072,46.4,46.4,0,0,0,4.922.778C1477.634,1385.806,1484.871,1385.543,1493.044,1384.942Z" transform="translate(-1034.907 -1195.907)" opacity="0.2" fill="url(#linear-gradient-29)"/>
      <path id="Path_679" data-name="Path 679" d="M1336.262,1300.776c3.434,1.36,5.215,5,3.954,8.085L1260.694,1504.4c-1.361,3.325-6.127,5.715-9.669,4.243l-129.545-53.865c-3.469-1.442-4.907-6.468-3.479-9.721l80.2-192.462c1.319-3.018,5.148-4.4,8.509-3.07Z" transform="translate(-974.636 -1091.394)" fill="url(#linear-gradient-30)"/>
      <path id="Path_680" data-name="Path 680" d="M1339.611,1281.685c3.46,1.369,5.249,5.036,3.975,8.149L1262.6,1487.861a6.787,6.787,0,0,1-8.975,3.393l-130.353-54.175a6.549,6.549,0,0,1-3.732-8.589l81.051-195.26c1.33-3.048,5.185-4.446,8.57-3.1Z" transform="translate(-975.868 -1076.175)" fill="url(#linear-gradient-31)"/>
      <g id="Group_22" data-name="Group 22" transform="translate(238.501 210.281)" opacity="0.7">
        <path id="Path_681" data-name="Path 681" d="M1588.682,2076.6l-13.722,32.138a3.128,3.128,0,0,1-3.8,1.707l-8.091-2.716a2.574,2.574,0,0,1-1.565-3.508l13.821-32.123a3.1,3.1,0,0,1,3.768-1.673l8.022,2.706a2.555,2.555,0,0,1,1.563,3.469Z" transform="translate(-1561.28 -1945.88)" fill="#f4f7fa"/>
        <path id="Path_682" data-name="Path 682" d="M1673.867,1880.724l-13.47,31.549a3.08,3.08,0,0,1-3.749,1.664l-8.013-2.695a2.544,2.544,0,0,1-1.559-3.45l13.569-31.532a3.052,3.052,0,0,1,3.721-1.63l7.945,2.693a2.523,2.523,0,0,1,1.557,3.4Z" transform="translate(-1628.41 -1792.296)" fill="#f4f7fa"/>
        <path id="Path_683" data-name="Path 683" d="M1757.466,1688.3l-13.23,30.978a3.033,3.033,0,0,1-3.706,1.621l-7.934-2.688a2.514,2.514,0,0,1-1.552-3.406l13.323-30.96a3,3,0,0,1,3.665-1.587l7.867,2.678a2.494,2.494,0,0,1,1.567,3.365Z" transform="translate(-1694.28 -1641.396)" fill="#f4f7fa"/>
        <path id="Path_684" data-name="Path 684" d="M1839.568,1499.4l-12.989,30.422a2.984,2.984,0,0,1-3.665,1.58l-7.858-2.675a2.482,2.482,0,0,1-1.546-3.355l13.082-30.4a2.962,2.962,0,0,1,3.633-1.548l7.791,2.665a2.464,2.464,0,0,1,1.552,3.309Z" transform="translate(-1758.973 -1493.272)" fill="#f4f7fa"/>
      </g>
      <path id="Path_685" data-name="Path 685" d="M1385.579,2057.717l-6.468,15.242a5.759,5.759,0,0,1-7.545,2.813l-16.169-6.684a5.572,5.572,0,0,1-3.219-7.248l6.53-15.177a5.749,5.749,0,0,1,7.5-2.785l16.107,6.62A5.573,5.573,0,0,1,1385.579,2057.717Z" transform="translate(-1158.431 -1714.53)" fill="url(#linear-gradient-32)"/>
      <path id="Path_686" data-name="Path 686" d="M1391.033,2065.23l-5.56,13.088a5.289,5.289,0,0,1-6.957,2.587l-13.881-5.737a5.134,5.134,0,0,1-2.973-6.683l5.605-13.043a5.3,5.3,0,0,1,6.929-2.572l13.836,5.689A5.142,5.142,0,0,1,1391.033,2065.23Zm-28.673,3.542a4.422,4.422,0,0,0,2.559,5.76l13.88,5.735a4.562,4.562,0,0,0,5.991-2.233l5.562-13.088a4.413,4.413,0,0,0-2.587-5.739l-13.839-5.691a4.564,4.564,0,0,0-5.97,2.216Z" transform="translate(-1165.894 -1721.609)" fill="url(#linear-gradient-33)"/>
      <path id="Path_687" data-name="Path 687" d="M1385.46,2080.867l9.283-21.667Z" transform="translate(-1184.864 -1726.911)" fill="#f4f7fa"/>
      <path id="Path_688" data-name="Path 688" d="M938.833,1540.952l-9.283,21.667-.69-.284,9.283-21.665Z" transform="translate(-728.609 -1208.521)" fill="url(#linear-gradient-34)"/>
      <path id="Path_689" data-name="Path 689" d="M1409.66,2090.812l9.27-21.682Z" transform="translate(-1203.846 -1734.701)" fill="#f4f7fa"/>
      <path id="Path_690" data-name="Path 690" d="M963.016,1550.875l-9.264,21.682-.692-.284,9.268-21.682Z" transform="translate(-747.591 -1216.303)" fill="url(#linear-gradient-35)"/>
      <path id="Path_691" data-name="Path 691" d="M1433.89,2100.759l9.251-21.7Z" transform="translate(-1222.853 -1742.49)" fill="#f4f7fa"/>
      <path id="Path_692" data-name="Path 692" d="M987.221,1560.8l-9.249,21.7-.692-.285,9.253-21.7Z" transform="translate(-766.59 -1224.092)" fill="url(#linear-gradient-36)"/>
      <path id="Path_693" data-name="Path 693" d="M1403.05,2088.85l-2.587,6.067a3.2,3.2,0,0,1-4.2,1.565l-12.116-5a3.106,3.106,0,0,1-1.8-4.034l2.587-6.05a3.2,3.2,0,0,1,4.187-1.557l12.1,4.98A3.1,3.1,0,0,1,1403.05,2088.85Z" transform="translate(-1182.246 -1742.9)" fill="#fec045"/>
      <path id="Path_694" data-name="Path 694" d="M1402.038,2087.7l-2.587,6.067a3.566,3.566,0,0,1-4.681,1.744l-12.116-5a3.453,3.453,0,0,1-2-4.5l2.6-6.05a3.56,3.56,0,0,1,4.67-1.735l12.094,4.98A3.457,3.457,0,0,1,1402.038,2087.7Zm-20.7-1.4a2.742,2.742,0,0,0,1.589,3.57l12.116,5a2.83,2.83,0,0,0,3.715-1.384l2.587-6.066a2.745,2.745,0,0,0-1.6-3.566l-12.094-4.98a2.831,2.831,0,0,0-3.708,1.378Z" transform="translate(-1180.889 -1741.611)" fill="url(#linear-gradient-37)"/>
      <path id="Path_695" data-name="Path 695" d="M1554.658,1568.05c-4.723,17.184-8.906,27.649-17.868,37.685-12.31,13.783-27.645,20.065-37.23,23.027l52.554,21.841a6.786,6.786,0,0,0,8.975-3.393l80.995-198.026c1.274-3.113-.515-6.78-3.975-8.149l-20.886-8.274c-31.849,21.708-43.87,43.851-48.876,60.449C1562.294,1513.265,1565.875,1527.24,1554.658,1568.05Z" transform="translate(-1274.365 -1235.525)" opacity="0.15" fill="url(#linear-gradient-38)"/>
      <g id="Group_23" data-name="Group 23" transform="translate(265.903 251.282)" opacity="0.42">
        <path id="Path_696" data-name="Path 696" d="M1717.5,2082.689l-18.291,44.327a1.724,1.724,0,0,1-2.277.862l-7.436-3.074a1.724,1.724,0,0,1-1-2.209l18.351-44.263a1.714,1.714,0,0,1,2.253-.841l7.386,3.018A1.705,1.705,0,0,1,1717.5,2082.689Z" transform="translate(-1688.382 -1992.431)" fill="url(#linear-gradient-39)"/>
        <path id="Path_697" data-name="Path 697" d="M1859.427,1688.686l-24.34,58.966a1.735,1.735,0,0,1-2.272.862l-7.438-3.019a1.705,1.705,0,0,1-1.007-2.192l24.426-58.87a1.721,1.721,0,0,1,2.246-.843l7.373,2.958A1.66,1.66,0,0,1,1859.427,1688.686Z" transform="translate(-1794.969 -1683.455)" fill="url(#linear-gradient-40)"/>
      </g>
      <path id="Path_698" data-name="Path 698" d="M1548.839,1373.509a17.369,17.369,0,0,1,9.246,23.083c-3.816,9.055-14.028,13.466-22.833,9.934a17.362,17.362,0,0,1-9.32-22.779C1529.609,1374.568,1539.875,1369.946,1548.839,1373.509Z" transform="translate(-1294.014 -1188.103)" opacity="0.26" fill="url(#linear-gradient-41)"/>
      <g id="Group_24" data-name="Group 24" transform="translate(210.887 307.936)" opacity="0.53">
        <path id="Path_699" data-name="Path 699" d="M1462.075,2012.39a2.851,2.851,0,0,1-1.539,3.691,2.775,2.775,0,0,1-3.665-1.509,2.845,2.845,0,0,1,1.569-3.665A2.774,2.774,0,0,1,1462.075,2012.39Z" transform="translate(-1451.614 -1996.794)" fill="#f4f7fa"/>
        <path id="Path_700" data-name="Path 700" d="M1457.269,1957.857a1.02,1.02,0,0,1-.554.567,1.06,1.06,0,0,1-1.38-.563,16.092,16.092,0,0,0-20.7-8.449,1.058,1.058,0,0,1-1.377-.563,1.033,1.033,0,0,1,.608-1.339,18.241,18.241,0,0,1,23.374,9.544A1.046,1.046,0,0,1,1457.269,1957.857Z" transform="translate(-1433.193 -1946.241)" fill="#f4f7fa"/>
        <path id="Path_701" data-name="Path 701" d="M1459.059,1974.321a1.033,1.033,0,0,1-.562.573,1.063,1.063,0,0,1-1.388-.567,11.792,11.792,0,0,0-15.266-6.239,1.061,1.061,0,0,1-1.386-.565,1.051,1.051,0,0,1,.608-1.358,13.933,13.933,0,0,1,17.984,7.347A1.053,1.053,0,0,1,1459.059,1974.321Z" transform="translate(-1438.835 -1961.082)" fill="#f4f7fa"/>
        <path id="Path_702" data-name="Path 702" d="M1460.584,1991.045a1.065,1.065,0,0,1-1.971,0,7.5,7.5,0,0,0-9.775-3.995,1.052,1.052,0,1,1-.789-1.94,9.685,9.685,0,0,1,7.343,0,9.485,9.485,0,0,1,5.185,5.125A1.076,1.076,0,0,1,1460.584,1991.045Z" transform="translate(-1444.258 -1976.163)" fill="#f4f7fa"/>
      </g>
      <path id="Path_703" data-name="Path 703" d="M1190.425,1672.72c0,35.376-27.662,63.2-63.017,62.118-36.792-1.13-67.738-32.905-67.738-70.929s30.946-65.631,67.738-61.8C1162.762,1605.788,1190.425,1637.346,1190.425,1672.72Z" transform="translate(-929.31 -1368.085)" fill="url(#linear-gradient-42)"/>
      <path id="Path_704" data-name="Path 704" d="M1234.742,1658.588c0,35.374-27.662,63.2-63.015,62.118-36.794-1.132-67.738-32.907-67.738-70.929s30.943-65.629,67.738-61.8C1207.08,1591.654,1234.742,1623.212,1234.742,1658.588Z" transform="translate(-964.075 -1357.001)" fill="url(#linear-gradient-43)"/>
      <path id="Path_705" data-name="Path 705" d="M1243.592,1669.5c0,33.817-26.468,60.365-60.24,59.286-35.085-1.136-64.543-31.461-64.543-67.695s29.458-62.585,64.543-58.991C1217.125,1605.552,1243.592,1635.679,1243.592,1669.5Z" transform="translate(-975.7 -1368.097)" fill="url(#linear-gradient-44)"/>
      <path id="Path_706" data-name="Path 706" d="M1249.888,1677.267c0,32.7-25.61,58.351-58.252,57.256-33.867-1.139-62.266-30.428-62.266-65.382s28.4-60.414,62.266-56.987C1224.278,1615.462,1249.888,1644.564,1249.888,1677.267Z" transform="translate(-983.983 -1376.001)" fill="url(#linear-gradient-45)"/>
      <path id="Path_707" data-name="Path 707" d="M1307.905,1664.826h0a3.559,3.559,0,0,1,3.141,3.492v6.017a88.483,88.483,0,0,1,10.437,1.811q3.853.906,7.653,2.156a3.521,3.521,0,0,1,2.4,3.614l-.74,7.546a2.831,2.831,0,0,1-4.04,2.35,43.611,43.611,0,0,0-5.135-1.914,46.635,46.635,0,0,0-9.684-1.809l-.888-.073v17.247q13.582,3.8,20.017,10.236a21.6,21.6,0,0,1,6.414,15.977q0,10.361-7.093,16.6-7.138,6.291-20.061,7.063v6.647a3.019,3.019,0,0,1-3.146,3.07h-.058a3.34,3.34,0,0,1-3.156-3.333v-6.554l-1.4-.065a92.042,92.042,0,0,1-11.614-1.231,76.115,76.115,0,0,1-8.031-1.848,3.463,3.463,0,0,1-2.52-3.579l.862-9.7a3.069,3.069,0,0,1,4.291-2.531,63.061,63.061,0,0,0,7.063,2.318,61.7,61.7,0,0,0,11.292,1.887l.056-19.188c-8.7-2.156-15.21-5.342-19.489-9.563s-6.455-9.671-6.455-16.272q0-10.249,7-15.807,6.957-5.524,19.731-5.508v-6.155a2.841,2.841,0,0,1,3.156-2.9Zm-3.156,23.016a10.629,10.629,0,0,0-6.286,2.216,6.461,6.461,0,0,0-2.255,5.174,6.946,6.946,0,0,0,2.087,5.144,14.763,14.763,0,0,0,6.455,3.292Zm5.573,34.734v17.588q4.385,0,6.728-2.091a7.514,7.514,0,0,0,2.341-5.92,8.092,8.092,0,0,0-2.175-5.789,16,16,0,0,0-6.892-3.788Z" transform="translate(-1100.587 -1417.546)" fill="url(#linear-gradient-46)"/>
      <path id="Path_708" data-name="Path 708" d="M1181.094,1686.438c1.968-19.437,19.834-27.666,17.5-45.547-1.436-11.021-9.79-20.308-19.108-27.561-28.263,2.964-50.118,26.366-50.118,56.976,0,34.953,28.4,64.245,62.266,65.381a58.811,58.811,0,0,0,9.622-.47C1187.808,1721.833,1179.4,1703.14,1181.094,1686.438Z" transform="translate(-983.984 -1377.166)" opacity="0.3" fill="url(#linear-gradient-47)"/>
      <path id="Path_709" data-name="Path 709" d="M1189.394,1102.952c0,23.824-18.631,42.568-42.443,41.837-24.78-.761-45.621-22.162-45.621-47.774s20.841-44.2,45.621-41.622C1170.762,1057.873,1189.394,1079.128,1189.394,1102.952Z" transform="translate(-961.989 -939.327)" fill="url(#linear-gradient-42)"/>
      <path id="Path_710" data-name="Path 710" d="M1219.234,1093.422c0,23.827-18.629,42.568-42.441,41.837-24.793-.761-45.623-22.162-45.623-47.774s20.841-44.2,45.623-41.621C1200.6,1048.343,1219.234,1069.6,1219.234,1093.422Z" transform="translate(-985.396 -931.852)" fill="url(#linear-gradient-43)"/>
      <path id="Path_711" data-name="Path 711" d="M1225.213,1100.765c0,22.775-17.827,40.662-40.574,39.927-23.631-.766-43.469-21.19-43.469-45.593s19.834-42.154,43.469-39.733C1207.384,1057.7,1225.213,1077.988,1225.213,1100.765Z" transform="translate(-993.24 -939.319)" fill="url(#linear-gradient-50)"/>
      <path id="Path_712" data-name="Path 712" d="M1229.434,1106.027c0,22.025-17.247,39.3-39.237,38.562-22.809-.765-41.936-20.494-41.936-44.036s19.127-40.688,41.936-38.375C1212.184,1064.4,1229.434,1084,1229.434,1106.027Z" transform="translate(-998.801 -944.673)" fill="url(#linear-gradient-45)"/>
      <path id="Path_713" data-name="Path 713" d="M1268.523,1097.63h0a2.4,2.4,0,0,1,2.117,2.354v4.055a59.423,59.423,0,0,1,7.028,1.218q2.587.613,5.154,1.453a2.371,2.371,0,0,1,1.617,2.431l-.5,5.086a1.908,1.908,0,0,1-2.723,1.582,29.15,29.15,0,0,0-3.449-1.294,31.32,31.32,0,0,0-6.522-1.218l-.6-.05v11.616c6.1,1.708,10.585,4,13.483,6.9a14.557,14.557,0,0,1,4.312,10.762,14.176,14.176,0,0,1-4.775,11.187q-4.809,4.24-13.511,4.758v4.476a2.035,2.035,0,0,1-2.119,2.067H1268a2.251,2.251,0,0,1-2.128-2.244v-4.415l-.942-.043a62.059,62.059,0,0,1-7.828-.834,50.935,50.935,0,0,1-5.409-1.244,2.335,2.335,0,0,1-1.7-2.41l.586-6.537a2.067,2.067,0,0,1,2.891-1.705,42.526,42.526,0,0,0,4.756,1.561,41.807,41.807,0,0,0,7.606,1.272l.037-12.92q-8.788-2.173-13.125-6.44a14.744,14.744,0,0,1-4.348-10.96q0-6.9,4.715-10.646c3.122-2.479,7.561-3.712,13.287-3.71v-4.146a1.917,1.917,0,0,1,2.121-1.962Zm-2.124,15.5a7.16,7.16,0,0,0-4.232,1.492,4.329,4.329,0,0,0-1.509,3.486,4.682,4.682,0,0,0,1.406,3.465,9.939,9.939,0,0,0,4.346,2.219Zm3.755,23.393v11.858a6.567,6.567,0,0,0,4.527-1.41,5.082,5.082,0,0,0,1.576-3.986,5.45,5.45,0,0,0-1.466-3.9A10.845,10.845,0,0,0,1270.155,1136.526Z" transform="translate(-1077.352 -972.636)" fill="url(#linear-gradient-52)"/>
      <path id="Path_714" data-name="Path 714" d="M1183.107,1112.19c1.326-13.093,13.366-18.635,11.786-30.678-.968-7.423-6.593-13.679-12.868-18.562-19.037,2-33.755,17.758-33.755,38.375,0,23.542,19.127,43.269,41.936,44.034a39.714,39.714,0,0,0,6.481-.317C1187.628,1136.028,1181.966,1123.438,1183.107,1112.19Z" transform="translate(-998.809 -945.441)" opacity="0.3" fill="url(#linear-gradient-53)"/>
      <path id="Path_715" data-name="Path 715" d="M1280.7,2053.682l14.2,165.8a14.251,14.251,0,0,1-3.665,11.171,14.061,14.061,0,0,1-9.115,4.458l-209.187,17.618c-8.863.746-16.454-5.558-17.083-14.013l-13.151-176.4c-.619-8.3,5.967-15.522,14.778-15.815l207.89-6.763A15.253,15.253,0,0,1,1280.7,2053.682Z" transform="translate(-915.97 -1711.645)" fill="url(#linear-gradient-54)"/>
      <path id="Path_716" data-name="Path 716" d="M1291.477,2255.032a14.279,14.279,0,0,1-9.208,4.457l-209.261,17.618c-8.863.746-16.525-5.555-17.154-14l-13.151-176.4c-.619-8.3,5.967-15.522,14.778-15.816l2.421-.08c.877,4.553,2.055,9.665,3.18,14.572.155.681.315,1.419.47,2.072,1.3,5.662,2.423,10.318,2.622,10.918,6.524,19.532,15.738,41.978,35.229,52.9,29.772,16.7,67.468,13.7,98.776,22.842,20.619,6.021,41.785,14.16,58.189,27.781,11.987,9.954,22.1,22.225,28.026,36.583A99.839,99.839,0,0,1,1291.477,2255.032Z" transform="translate(-915.97 -1736.018)" opacity="0.2" fill="url(#linear-gradient-55)"/>
      <g id="Group_25" data-name="Group 25" transform="translate(136.705 338.771)" opacity="0.7">
        <path id="Path_717" data-name="Path 717" d="M1301.821,2266.753h-.011l-7.205.444a1.552,1.552,0,0,1-1.613-1.429,1.381,1.381,0,0,1,1.354-1.492l7.192-.477h0a11.886,11.886,0,0,0,3.583-.862,1.446,1.446,0,0,1,1.873.862,1.589,1.589,0,0,1-.925,1.977A13.6,13.6,0,0,1,1301.821,2266.753Zm-18.5,1.225-11.342.927a1.492,1.492,0,1,1-.246-2.975l11.342-.921a1.489,1.489,0,1,1,.246,2.969Zm-22.751,1.862-11.478.938a1.509,1.509,0,1,1-.246-2.992l11.478-.931a1.5,1.5,0,1,1,.246,2.985Zm-23.025,1.884-11.614.951a1.514,1.514,0,0,1-.244-3.019l11.614-.94a1.509,1.509,0,1,1,.243,3Zm-23.3,1.906-11.763.964a1.52,1.52,0,0,1-.241-3.031l11.756-.953a1.514,1.514,0,0,1,.241,3.019Zm-23.583,1.94-11.894.964a1.531,1.531,0,1,1-.239-3.049l11.9-.963a1.525,1.525,0,0,1,.239,3.04Zm-23.87,1.954-12.045.985a1.559,1.559,0,0,1-1.712-1.4,1.576,1.576,0,0,1,1.475-1.665l12.043-.977a1.535,1.535,0,1,1,.239,3.06Zm-24.163,1.977-12.193,1a1.574,1.574,0,0,1-1.725-1.412,1.6,1.6,0,0,1,1.5-1.675l12.191-.987a1.54,1.54,0,1,1,.231,3.067Zm-24.458,1.643a1.77,1.77,0,0,1-.33,0,20.364,20.364,0,0,1-11.812-5.491,1.509,1.509,0,0,1,.026-2.2,1.7,1.7,0,0,1,2.313,0,17.065,17.065,0,0,0,9.893,4.607,1.548,1.548,0,0,1,1.4,1.725,1.622,1.622,0,0,1-1.494,1.354ZM1314.422,2259a1.481,1.481,0,0,1-1.354-2.287,15.092,15.092,0,0,0,2.451-9.674,1.456,1.456,0,0,1,1.339-1.58,1.488,1.488,0,0,1,1.589,1.356,17.99,17.99,0,0,1-2.919,11.532,1.454,1.454,0,0,1-1.106.644Zm-212.3,6.625a1.6,1.6,0,0,1-1.772-1.339c-.026-.229-.073-.431-.091-.66l-.832-11.125a1.491,1.491,0,0,1,1.378-1.679,1.465,1.465,0,0,1,1.61,1.42l.834,11.113c.015.194.2.365.216.559a1.494,1.494,0,0,1-1.371,1.7c-.017-.006.047,0,.028,0Zm214.678-22.833c-.808.061-1.244-.543-1.313-1.354l-.946-11.116c-.067-.811.257-1.509,1.065-1.574s1.244.548,1.313,1.356l.944,11.107c.069.8-.255,1.509-1.063,1.572Zm-216.642-.615a1.472,1.472,0,0,1-1.613-1.423l-.879-11.737a1.5,1.5,0,1,1,2.988-.237l.88,11.726a1.487,1.487,0,0,1-1.375,1.662Zm214.754-21.6c-.808.056-1.244-.552-1.313-1.36l-.944-11.094c-.067-.808.256-1.509,1.065-1.561s1.244.556,1.313,1.362l.942,11.086c.069.8-.254,1.491-1.063,1.559Zm-216.513-1.85a1.484,1.484,0,0,1-1.61-1.434l-.878-11.71a1.459,1.459,0,0,1,1.377-1.649,1.487,1.487,0,0,1,1.608,1.435l.878,11.7a1.469,1.469,0,0,1-1.375,1.649Zm214.629-20.32c-.808.052-1.246-.56-1.313-1.369l-.942-11.07c-.069-.807.257-1.509,1.065-1.548s1.242.567,1.311,1.371l.942,11.062c.069.8-.257,1.494-1.063,1.546Zm-216.384-3.081a1.493,1.493,0,0,1-1.61-1.44l-.875-11.687a1.45,1.45,0,0,1,1.378-1.634,1.493,1.493,0,0,1,1.606,1.444l.878,11.672a1.455,1.455,0,0,1-1.375,1.636Zm214.51-19.042c-.808.047-1.244-.569-1.313-1.375l-.938-11.047c-.069-.806.256-1.492,1.063-1.535s1.242.573,1.311,1.377l.94,11.038c.06.8-.265,1.485-1.076,1.533Zm-216.255-4.312a1.509,1.509,0,0,1-1.606-1.448l-.875-11.66a1.437,1.437,0,0,1,1.378-1.621,1.509,1.509,0,0,1,1.606,1.453l.862,11.642a1.44,1.44,0,0,1-1.373,1.629Zm214.377-17.771c-.806.043-1.244-.578-1.311-1.382l-.938-11.025c-.069-.8.256-1.48,1.065-1.522s1.239.584,1.308,1.386l.938,11.015c.06.8-.266,1.481-1.072,1.524Zm-216.123-5.527a1.509,1.509,0,0,1-1.606-1.456l-.873-11.642a1.422,1.422,0,0,1,1.378-1.606,1.509,1.509,0,0,1,1.6,1.459l.862,11.622a1.43,1.43,0,0,1-1.373,1.617Zm214.25-16.505c-.806.039-1.242-.586-1.311-1.389l-.936-11c-.067-.8.259-1.474,1.065-1.509s1.24.591,1.308,1.392l.936,11c.058.787-.265,1.463-1.072,1.5Zm-216-6.742a1.523,1.523,0,0,1-1.606-1.464l-.647-8.733a17.769,17.769,0,0,1,.065-3.124,1.578,1.578,0,0,1,1.792-1.334,1.486,1.486,0,0,1,1.313,1.71,15.133,15.133,0,0,0-.19,2.621l.647,8.725A1.419,1.419,0,0,1,1091.4,2125.428Zm214.135-15.251c-.806.035-1.244-.595-1.311-1.395l-.181-2.128a15.862,15.862,0,0,0-3-7.6,1.346,1.346,0,1,1,2.169-1.571,18.421,18.421,0,0,1,3.21,9.072l.179,2.125C1306.651,2109.475,1306.325,2110.146,1305.531,2110.177Zm-209.526-6.569a1.74,1.74,0,0,1-1.235-.453,1.464,1.464,0,0,1-.058-2.156,19.894,19.894,0,0,1,11.657-5.312,1.681,1.681,0,0,1,1.835,1.347,1.488,1.488,0,0,1-1.369,1.682,16.659,16.659,0,0,0-9.766,4.458,1.622,1.622,0,0,1-1.074.433Zm197.218-10.538a1.529,1.529,0,0,1-.534-.08,15.706,15.706,0,0,0-5.569-.8l-5,.179a1.557,1.557,0,0,1-1.6-1.4,1.384,1.384,0,0,1,1.354-1.509l5-.177a18.786,18.786,0,0,1,6.638.966,1.509,1.509,0,0,1,1,1.846,1.387,1.387,0,0,1-1.3.981Zm-22.318-.3-11.279.405a1.567,1.567,0,0,1-1.615-1.41,1.4,1.4,0,0,1,1.371-1.509l11.279-.4a1.561,1.561,0,0,1,1.6,1.405,1.388,1.388,0,0,1-1.371,1.5Zm-22.626.813-11.427.412a1.579,1.579,0,0,1-1.63-1.419,1.414,1.414,0,0,1,1.391-1.526l11.411-.4a1.576,1.576,0,0,1,1.623,1.415,1.405,1.405,0,0,1-1.38,1.52Zm-22.9.824-11.551.416a1.592,1.592,0,0,1-1.647-1.427,1.428,1.428,0,0,1,1.408-1.535l11.549-.405a1.583,1.583,0,0,1,1.639,1.421,1.419,1.419,0,0,1-1.408,1.531Zm-23.18.841-11.687.418a1.6,1.6,0,0,1-1.667-1.434,1.444,1.444,0,0,1,1.429-1.543l11.687-.412a1.6,1.6,0,0,1,1.656,1.429,1.438,1.438,0,0,1-1.418,1.542Zm-23.445.84-11.83.432a1.621,1.621,0,0,1-1.684-1.444,1.458,1.458,0,0,1,1.449-1.553l11.827-.416a1.607,1.607,0,0,1,1.673,1.438,1.448,1.448,0,0,1-1.429,1.537Zm-23.73.863-11.971.431a1.63,1.63,0,0,1-1.7-1.451,1.476,1.476,0,0,1,1.468-1.565l11.972-.431a1.623,1.623,0,0,1,1.69,1.446,1.464,1.464,0,0,1-1.457,1.555Zm-24.016.862-12.119.432a1.648,1.648,0,0,1-1.725-1.462,1.492,1.492,0,0,1,1.487-1.574l12.119-.431a1.636,1.636,0,0,1,1.709,1.455,1.483,1.483,0,0,1-1.472,1.567Z" transform="translate(-1089.103 -2089.267)" fill="#fff"/>
      </g>
      <path id="Path_718" data-name="Path 718" d="M1980.569,2313.736a4.483,4.483,0,0,0-4.133-.326l-42.538,18.2c-6.1,2.637-10.268,8.818-9.717,15.464l1.468,17.667c.588,7.073,6.308,12.985,13.317,14.529l44.021,9.639a4.578,4.578,0,0,0,3.956-.988,4.485,4.485,0,0,0,1.55-3.723l-5.75-66.884A4.627,4.627,0,0,0,1980.569,2313.736Z" transform="translate(-1607.405 -1926.036)" fill="url(#linear-gradient-56)"/>
      <path id="Path_719" data-name="Path 719" d="M1990.385,2472.12a8.665,8.665,0,0,1-8.179,9.4,9.193,9.193,0,0,1-9.7-8.347,8.66,8.66,0,0,1,8.22-9.391A9.206,9.206,0,0,1,1990.385,2472.12Z" transform="translate(-1645.323 -2044.255)" fill="url(#linear-gradient-57)"/>
    </g>
  </g>
</svg>
