<svg xmlns="http://www.w3.org/2000/svg" xmlns:xlink="http://www.w3.org/1999/xlink" viewBox="0 0 235.94 258.93"><defs><style>.cls-1{fill:#13247a;}.cls-1,.cls-14{opacity:0.5;}.cls-2{fill:url(#Áåçûìÿííûé_ãðàäèåíò_10);}.cls-3{fill:url(#Áåçûìÿííûé_ãðàäèåíò_5);}.cls-13,.cls-4{fill:#fff;}.cls-5{fill:#0f65b2;}.cls-6{fill:#0063ad;}.cls-7,.cls-9{fill:#041860;}.cls-7{opacity:0.6;}.cls-8{fill:url(#Áåçûìÿííûé_ãðàäèåíò_5-2);}.cls-13,.cls-9{opacity:0.2;}.cls-10{fill:url(#Áåçûìÿííûé_ãðàäèåíò_345);}.cls-11{fill:url(#Áåçûìÿííûé_ãðàäèåíò_123);}.cls-12{fill:url(#Áåçûìÿííûé_ãðàäèåíò_17);}.cls-14{fill:#7bdaff;}</style><linearGradient id="Áåçûìÿííûé_ãðàäèåíò_10" x1="16.02" y1="122.72" x2="216.18" y2="228.18" gradientUnits="userSpaceOnUse"><stop offset="0" stop-color="#3a9bd5"/><stop offset="0.31" stop-color="#3a9bd5"/><stop offset="0.36" stop-color="#3a9bd5"/><stop offset="0.6" stop-color="#3999d4"/><stop offset="0.69" stop-color="#3592cf"/><stop offset="0.75" stop-color="#2f86c7"/><stop offset="0.8" stop-color="#2676bc"/><stop offset="0.81" stop-color="#2573ba"/></linearGradient><linearGradient id="Áåçûìÿííûé_ãðàäèåíò_5" x1="1519.43" y1="-146.29" x2="1651.29" y2="-76.81" gradientTransform="matrix(1, -0.58, 0.87, 0.5, -1371.25, 1140.36)" gradientUnits="userSpaceOnUse"><stop offset="0" stop-color="#59bdef"/><stop offset="1" stop-color="#7bdaff"/></linearGradient><linearGradient id="Áåçûìÿííûé_ãðàäèåíò_5-2" x1="41.09" y1="993.91" x2="-187.71" y2="964.77" gradientTransform="matrix(0.87, 0.5, 0, 1.15, 218.86, -1011.73)" xlink:href="#Áåçûìÿííûé_ãðàäèåíò_5"/><linearGradient id="Áåçûìÿííûé_ãðàäèåíò_345" x1="-835.34" y1="122.01" x2="-727.12" y2="159.63" gradientTransform="matrix(0.87, 0.5, 0, 1.15, 819.45, 355.35)" gradientUnits="userSpaceOnUse"><stop offset="0" stop-color="#2573ba"/><stop offset="0.91" stop-color="#0364ae"/><stop offset="1" stop-color="#0063ad"/></linearGradient><linearGradient id="Áåçûìÿííûé_ãðàäèåíò_123" x1="-1445.97" y1="39.82" x2="-1399.92" y2="39.82" gradientTransform="matrix(-1, 0, 0, 1, -1339.05, 0)" gradientUnits="userSpaceOnUse"><stop offset="0" stop-color="#0063ad"/><stop offset="1" stop-color="#2573ba"/></linearGradient><linearGradient id="Áåçûìÿííûé_ãðàäèåíò_17" x1="-876.29" y1="134.84" x2="-788.82" y2="134.84" gradientTransform="matrix(0.87, 0.5, 0, 1.15, 819.45, 355.35)" gradientUnits="userSpaceOnUse"><stop offset="0" stop-color="#7bdaff"/><stop offset="1" stop-color="#59bdef"/></linearGradient></defs><title>secure</title><g id="Layer_2" data-name="Layer 2"><g id="Ñëîé_1" data-name="Ñëîé 1"><path class="cls-1" d="M233.38,217.44l-69.27,40c-3.1,1.79-7.78,2-10.46.43L1.81,170.22c-2.68-1.55-2.34-4.25.75-6l69.28-40c3.09-1.79,7.77-2,10.45-.43L234.13,211.4C236.81,213,236.48,215.65,233.38,217.44Z"/><path class="cls-2" d="M235.94,192.32l-14.27-2.49L82.29,109.36c-2.68-1.54-7.36-1.35-10.45.44L7.27,147.09,0,145.82v7.39H0a3.06,3.06,0,0,0,1.8,2.63l151.84,87.67c2.68,1.55,7.36,1.35,10.46-.43l69.27-40c1.72-1,2.59-2.27,2.56-3.47h0Z"/><path class="cls-3" d="M233.38,195.73l-69.27,40c-3.1,1.79-7.78,2-10.46.44L1.81,148.51c-2.68-1.55-2.34-4.25.75-6l69.28-40c3.09-1.79,7.77-2,10.45-.43l151.84,87.66C236.81,191.24,236.48,193.94,233.38,195.73Z"/><path class="cls-4" d="M233.38,194.79l-69.27,40c-3.1,1.79-7.78,2-10.46.43L1.81,147.57a3.39,3.39,0,0,1-1.76-2.14,3,3,0,0,0,1.76,3.08l151.84,87.67c2.68,1.54,7.36,1.35,10.46-.44l69.27-40c1.93-1.11,2.78-2.58,2.51-3.9A4.65,4.65,0,0,1,233.38,194.79Z"/><polygon class="cls-5" points="233.49 189.32 153.01 235.8 2.46 148.88 82.94 102.4 233.49 189.32"/><path class="cls-6" d="M47.58,120.6l-10.69,6.17a1.71,1.71,0,0,1-1.57.06l-.11-.06c-.4-.23-.35-.64.12-.9L46,119.69a1.76,1.76,0,0,1,1.56-.06l.11.06C48.1,119.92,48,120.33,47.58,120.6Z"/><polygon class="cls-4" points="22.06 149.64 20.71 150.42 17.52 148.57 18.86 147.79 22.06 149.64"/><polygon class="cls-4" points="24.55 148.21 23.2 148.98 20 147.14 21.35 146.36 24.55 148.21"/><polygon class="cls-4" points="27.03 146.77 25.68 147.55 22.49 145.7 23.84 144.92 27.03 146.77"/><polygon class="cls-4" points="29.52 145.33 28.17 146.11 24.97 144.27 26.32 143.49 29.52 145.33"/><ellipse class="cls-7" cx="101.75" cy="158.63" rx="26.9" ry="15.53"/><path class="cls-4" d="M101.75,182.94c-10.7,0-21.39-2.35-29.53-7.05-8-4.59-12.34-10.72-12.34-17.26S64.26,146,72.22,141.38c16.28-9.4,42.77-9.4,59.05,0,8,4.59,12.34,10.72,12.34,17.25s-4.38,12.67-12.33,17.26C123.13,180.59,112.44,182.94,101.75,182.94Zm0-47.91c-10.57,0-21.13,2.33-29.17,7-7.73,4.46-12,10.37-12,16.63s4.25,12.18,12,16.64c16.08,9.28,42.25,9.28,58.34,0,7.72-4.46,12-10.37,12-16.64s-4.25-12.17-12-16.63C122.87,137.36,112.31,135,101.75,135Z"/><path class="cls-4" d="M210.57,67.09,95.11.43A2.32,2.32,0,0,0,92.75.24h0L91,1.24l.79.11a4.75,4.75,0,0,0-.32,1.8V82.7c0,2.66,1.61,5.74,3.6,6.88l115.46,66.67a3.9,3.9,0,0,0,.64.28v.91l1.72-1h0a3.16,3.16,0,0,0,1.25-2.91V74C214.17,71.32,212.56,68.24,210.57,67.09Z"/><path class="cls-8" d="M208.9,157.22,93.43,90.56c-2-1.15-3.6-4.23-3.6-6.88V4.13c0-2.65,1.61-3.87,3.6-2.72L208.9,68.07c2,1.15,3.6,4.23,3.6,6.88V154.5C212.5,157.15,210.89,158.37,208.9,157.22Z"/><path class="cls-4" d="M174.47,72.2V60.84l2.4,1.39a7.73,7.73,0,0,1,1.19.83,5.72,5.72,0,0,1,.91,1,4.06,4.06,0,0,1,.59,1.24,5.13,5.13,0,0,1,.2,1.5c0,1.4-.49,1.91-1.45,1.52a4.5,4.5,0,0,1,1.3,1.63,5.28,5.28,0,0,1,.44,2.19c0,1.08-.23,1.76-.7,2.05s-1.16.17-2.06-.35Zm1.79-5.69.56.32q.78.45,1.08.24c.2-.15.3-.53.3-1.15a3.31,3.31,0,0,0-.1-.83,1.86,1.86,0,0,0-.33-.64,3,3,0,0,0-.51-.5,8.44,8.44,0,0,0-.75-.48l-.25-.14Zm0,5.26.66.38q.79.46,1.11.21c.2-.17.3-.58.3-1.24a3.63,3.63,0,0,0-.34-1.69,2.86,2.86,0,0,0-1.17-1.14l-.56-.32Z"/><path class="cls-4" d="M180.69,75.79l2-10.2,1.87,1.08,2,12.5-1.67-1-.4-2.86-1.7-1-.4,2.41ZM183,73.12l1.32.76-.66-5Z"/><path class="cls-4" d="M187.52,79.73V68.38l1.23.71,2.41,7.82V70.48l1.48.86V82.69L191.47,82,189,73.85v6.76Z"/><path class="cls-4" d="M194.11,83.54V72.19l1.79,1v4.93l1.94-3.81,1.7,1-1.88,4,2.08,7.47-1.79-1-1.69-6.32-.36.53v4.61Z"/><polygon class="cls-4" points="121.71 90.39 99.79 77.73 99.79 74.8 121.71 87.46 121.71 90.39"/><polygon class="cls-4" points="148.65 105.94 126.73 93.29 126.73 90.36 148.65 103.01 148.65 105.94"/><polygon class="cls-4" points="175.59 121.5 153.68 108.84 153.68 105.91 175.59 118.57 175.59 121.5"/><polygon class="cls-4" points="202.54 137.05 180.62 124.4 180.62 121.47 202.54 134.12 202.54 137.05"/><path class="cls-9" d="M115.8,32.71l-26-2.11V83.68c0,2.65,1.61,5.73,3.6,6.88l50,28.85c12.91-18.3,10-46.34,10-46.34Z"/><path class="cls-10" d="M144.51,79.26,106.92,38.9l-37.59-3s-6,51,37.59,105C150.55,137.2,144.51,79.26,144.51,79.26Z"/><polygon class="cls-11" points="69.33 35.86 60.87 40.74 98.46 43.78 106.92 38.9 69.33 35.86"/><path class="cls-12" d="M136.05,84.15,98.46,43.78,83,42.22,60.87,40.74s-6,51,37.59,105C142.09,142.08,136.05,84.15,136.05,84.15Z"/><path class="cls-4" d="M136.05,84.15,98.46,43.78l-37.59-3,1.06-.61L100,43.21l37.59,40.36s5,48.43-27.44,59.53C140.93,131,136.05,84.15,136.05,84.15Z"/><path class="cls-13" d="M131.49,84.77,97.69,48.48,83.8,47.08,63.89,45.75s-5.43,45.81,33.8,94.41C136.92,136.86,131.49,84.77,131.49,84.77Z"/><rect class="cls-4" x="71.5" y="58.55" width="1.88" height="1.88" transform="translate(63.28 -33.8) rotate(45)"/><rect class="cls-4" x="76.3" y="58.53" width="1.88" height="1.88" transform="translate(64.68 -37.2) rotate(45)"/><rect class="cls-4" x="73.91" y="56.14" width="1.88" height="1.88" transform="translate(62.28 -36.21) rotate(45)"/><rect class="cls-4" x="73.89" y="60.94" width="1.88" height="1.88" transform="translate(65.68 -34.79) rotate(45)"/><path class="cls-4" d="M212,52.4l-2.73-2.74,6.57-6.57-6.57-6.57L212,33.78l9.31,9.31Zm-1.64-2.74L212,51.31l8.22-8.22L212,34.87l-1.64,1.65,6.57,6.57Z"/><polygon class="cls-14" points="201.81 34.33 199.63 36.52 206.2 43.09 199.63 49.66 201.81 51.85 208.39 45.28 210.58 43.09 201.81 34.33"/><path class="cls-4" d="M158.26,211a.52.52,0,0,1-.52-.48.53.53,0,0,1,.48-.57,54.15,54.15,0,0,0,22.35-6.78c7-4.06,11.25-8.1,12.52-12a.53.53,0,0,1,1,.33c-1.35,4.17-5.73,8.41-13,12.61A55.23,55.23,0,0,1,158.3,211Z"/><path class="cls-4" d="M194,189a.52.52,0,0,1-.52-.51c-.12-3.11-2.39-6-6.56-8.45-9.24-5.33-21.29-5.3-33.93.08a.52.52,0,1,1-.41-1c12.95-5.52,25.33-5.53,34.86,0,4.51,2.61,7,5.83,7.09,9.32a.53.53,0,0,1-.51.55Z"/><path class="cls-4" d="M150.25,211h-.05A28,28,0,0,1,139,207.78c-3.26-1.88-5.29-4.43-5.87-7.36a1.34,1.34,0,0,1,.34-1.16,3.22,3.22,0,0,1,2.57-.88,2.52,2.52,0,0,1,2.42,1.41,8.92,8.92,0,0,0,4.44,5.13c8.21,4.73,24,3.32,35.23-3.16,7.23-4.18,11.06-8.44,11.06-12.32,0-2.73-1.94-5.29-5.6-7.41-9.46-5.46-22.3-4.31-35.22,3.16-4.67,2.69-8,6-9.42,9.29a2.43,2.43,0,0,1-2.25,1.16,2.75,2.75,0,0,1-2.38-1,1.21,1.21,0,0,1-.07-1.19c1.91-3.86,5.75-7.54,11.11-10.64a.53.53,0,0,1,.72.2.51.51,0,0,1-.2.71c-5.18,3-8.87,6.52-10.69,10.19a.14.14,0,0,0,0,.16,1.79,1.79,0,0,0,1.46.49,1.52,1.52,0,0,0,1.31-.53c1.5-3.5,5-7,9.86-9.78,13.26-7.66,26.48-8.81,36.27-3.16,4,2.32,6.13,5.19,6.13,8.32,0,4.34-3.9,8.79-11.59,13.23-11.5,6.65-27.78,8.06-36.27,3.16a10,10,0,0,1-4.93-5.75c-.08-.28-.66-.6-1.46-.65a2.26,2.26,0,0,0-1.73.52.33.33,0,0,0-.1.27c.52,2.62,2.38,4.92,5.37,6.65A26.88,26.88,0,0,0,150.3,210a.53.53,0,0,1-.05,1.05Z"/><path class="cls-4" d="M163.49,205.58a2.88,2.88,0,0,1-2.1-.78,1.23,1.23,0,0,1-.3-1.24,2,2,0,0,1,1.62-1.18,33.16,33.16,0,0,0,10-3.73c4.86-2.8,7.61-5.6,8-8.1a4.06,4.06,0,0,0-1.28-3.46,1.33,1.33,0,0,1-.39-1.24,2,2,0,0,1,1.37-1.29,3.64,3.64,0,0,1,3.62.62,6.34,6.34,0,0,1,2,5c-.2,2.59-2.08,5.28-5.58,8a.52.52,0,1,1-.64-.83c3.25-2.52,5-4.95,5.18-7.24a5.4,5.4,0,0,0-1.67-4.17,2.69,2.69,0,0,0-2.51-.35c-.46.16-.66.39-.69.53s0,.13.11.28a5,5,0,0,1,1.57,4.34c-.4,2.87-3.25,5.85-8.47,8.86a34.65,34.65,0,0,1-10.31,3.85,1.12,1.12,0,0,0-.83.48s0,.09.08.21a2.15,2.15,0,0,0,1.85.37,39.55,39.55,0,0,0,11.33-4.29.53.53,0,0,1,.72.2.51.51,0,0,1-.19.71,40.42,40.42,0,0,1-11.64,4.41A3.82,3.82,0,0,1,163.49,205.58Z"/><path class="cls-4" d="M155.16,206.39H155a20.77,20.77,0,0,1-9.63-2.34c-2.75-1.59-4.21-3.82-4.21-6.44,0-4,3.49-8.38,9.33-11.76,9.26-5.34,18.52-7.06,26.06-4.83a2,2,0,0,1,1.53,1.28,1.3,1.3,0,0,1-.31,1.26h0a3.56,3.56,0,0,1-3.5.71c-5.39-1.62-12.19-.47-19.15,3.22-.26.14-.36.28-.36.37s.12.22.3.33a2.55,2.55,0,0,0,2.16,0c6.92-3.66,13.38-4.33,17.7-1.83,1.74,1,2.66,2.32,2.66,3.8,0,2.45-2.4,5.07-7.12,7.8-6.48,3.74-15,4.89-19.05,2.57a4.16,4.16,0,0,1-2.2-2.95c-.24-1.6.51-3.38,2.16-5.18.1-.1.09-.16.08-.17s-.18-.28-.48-.4a2.35,2.35,0,0,0-2.25.25c-1.82,2-2.68,4-2.42,5.77a4.92,4.92,0,0,0,2.68,3.48,14.58,14.58,0,0,0,6.29,1.62c1.35.07,2.31.74,2.36,1.62a1.39,1.39,0,0,1-.42,1.05A3,3,0,0,1,155.16,206.39Zm14.58-25.27c-5.79,0-12.23,1.92-18.68,5.64-5.52,3.19-8.81,7.24-8.81,10.85,0,2.22,1.28,4.14,3.69,5.53a19.84,19.84,0,0,0,9.13,2.2,2,2,0,0,0,1.43-.43.35.35,0,0,0,.12-.22c0-.27-.54-.62-1.37-.66a15.58,15.58,0,0,1-6.75-1.76,6,6,0,0,1-3.19-4.23c-.32-2.07.63-4.43,2.68-6.64a3.32,3.32,0,0,1,3.42-.51,1.71,1.71,0,0,1,1.11,1.14,1.24,1.24,0,0,1-.34,1.12c-1.4,1.52-2.08,3-1.89,4.3a3.13,3.13,0,0,0,1.69,2.2c3.73,2.16,11.8,1,18-2.57,4.26-2.46,6.6-4.9,6.6-6.89,0-1.1-.72-2.08-2.14-2.89-4-2.31-10.08-1.64-16.68,1.85a3.57,3.57,0,0,1-3.17-.05,1.46,1.46,0,0,1-.83-1.26,1.54,1.54,0,0,1,.92-1.28c7.21-3.82,14.29-5,19.94-3.3a2.59,2.59,0,0,0,2.41-.39h0c.13-.15.11-.24.1-.28a1.24,1.24,0,0,0-.83-.57A23.35,23.35,0,0,0,169.74,181.12Zm7.68,2.1Z"/><path class="cls-4" d="M157.66,199.44a6.33,6.33,0,0,1-3.11-.66,2.36,2.36,0,0,1-1.29-2.1c0-1.88,2-4.17,5.42-6.12,5.5-3.18,10.3-4.05,13.18-2.39a2.66,2.66,0,0,1,1.54,2.24c0,1.53-1.39,3.25-4.25,5.12a3.5,3.5,0,0,1-3.34.06,1.49,1.49,0,0,1-.82-1.22,1.39,1.39,0,0,1,.71-1.2c2.3-1.49,2.3-2.1,2.3-2.1-.64-.37-2.58-.06-6.08,2-2.43,1.4-3.43,2.6-3.43,2.93a.52.52,0,0,1-.52.53h0a.52.52,0,0,1-.53-.52c0-1.45,3-3.32,4-3.85,2.4-1.39,5.58-2.87,7.07-2a1.08,1.08,0,0,1,.58.91c0,.51-.26,1.38-2.77,3-.15.1-.25.21-.24.3s.08.2.3.33a2.49,2.49,0,0,0,2.24,0c3.32-2.17,3.78-3.57,3.77-4.21a1.71,1.71,0,0,0-1-1.36c-1.21-.69-4.8-1.85-12.14,2.39-3,1.71-4.89,3.76-4.89,5.21a1.33,1.33,0,0,0,.76,1.19c1.28.73,3.79.69,6.72-.11a.51.51,0,0,1,.64.36.53.53,0,0,1-.37.65A16.77,16.77,0,0,1,157.66,199.44Z"/><path class="cls-4" d="M149,181.36a.33.33,0,0,1-.17,0l-13.84-8a.33.33,0,1,1,.33-.58l13.84,8a.33.33,0,0,1-.16.62Z"/></g></g></svg>